{
.appVersion = "1277";
copyright = "Copyright 2010 Google Inc. All Rights Reserved.";
customParameters = (
{
name = glyphOrder;
value = (
.notdef,
null,
nonmarkingreturn,
space,
exclam,
quotedbl,
numbersign,
dollar,
percent,
ampersand,
quotesingle,
parenleft,
parenright,
asterisk,
plus,
comma,
hyphen,
period,
slash,
zero,
one,
two,
three,
four,
five,
six,
seven,
eight,
nine,
colon,
semicolon,
less,
equal,
greater,
question,
at,
A,
B,
C,
D,
E,
F,
G,
H,
I,
J,
K,
L,
M,
N,
O,
P,
Q,
R,
S,
T,
U,
V,
W,
X,
Y,
Z,
bracketleft,
backslash,
bracketright,
asciicircum,
underscore,
grave,
a,
b,
c,
d,
e,
f,
g,
h,
i,
j,
k,
l,
m,
n,
o,
p,
q,
r,
s,
t,
u,
v,
w,
x,
y,
z,
braceleft,
bar,
braceright,
asciitilde,
Adieresis,
Aring,
Ccedilla,
Eacute,
Ntilde,
Odieresis,
Udieresis,
aacute,
agrave,
acircumflex,
adieresis,
atilde,
aring,
ccedilla,
eacute,
egrave,
ecircumflex,
edieresis,
iacute,
igrave,
icircumflex,
idieresis,
ntilde,
oacute,
ograve,
ocircumflex,
odieresis,
otilde,
uacute,
ugrave,
ucircumflex,
udieresis,
dagger,
degree,
cent,
sterling,
section,
bullet,
paragraph,
germandbls,
registered,
copyright,
trademark,
acute,
dieresis,
notequal,
AE,
Oslash,
infinity,
plusminus,
lessequal,
greaterequal,
yen,
uni00B5,
partialdiff,
summation,
product,
integral,
ordfeminine,
ordmasculine,
uni2126,
ae,
oslash,
questiondown,
exclamdown,
logicalnot,
radical,
florin,
approxequal,
uni2206,
guillemotleft,
guillemotright,
ellipsis,
Agrave,
Atilde,
Otilde,
OE,
oe,
endash,
emdash,
quotedblleft,
quotedblright,
quoteleft,
quoteright,
divide,
lozenge,
ydieresis,
Ydieresis,
fraction,
Euro,
guilsinglleft,
guilsinglright,
uniFB01,
uniFB02,
daggerdbl,
periodcentered,
quotesinglbase,
quotedblbase,
perthousand,
Acircumflex,
Ecircumflex,
Aacute,
Edieresis,
Egrave,
Iacute,
Icircumflex,
Idieresis,
Igrave,
Oacute,
Ocircumflex,
Ograve,
Uacute,
Ucircumflex,
Ugrave,
dotlessi,
circumflex,
tilde,
uni02C9,
breve,
dotaccent,
ring,
cedilla,
hungarumlaut,
ogonek,
caron,
Lslash,
lslash,
Scaron,
scaron,
Zcaron,
zcaron,

glyphs = (
{
glyphname = .notdef;
lastChange = "2019-12-20 16:16:27 +0000";
layers = (
{
layerId = "9CB754D2-AD8E-43A2-9483-C1400C56EABF";
paths = (
{
closed = 1;
nodes = (
"234 0 LINE",
"1359 0 LINE",
"1359 1409 LINE",
"234 1409 LINE"
);
},
{
closed = 1;
nodes = (
"1283 1333 LINE",
"1283 76 LINE",
"310 76 LINE",
"310 1333 LINE"
);
}
);
width = 1593;
}
);
note = .notdef;
},
{
glyphname = exclam;
lastChange = "2019-12-20 14:30:44 +0000";
layers = (
{
layerId = "9CB754D2-AD8E-43A2-9483-C1400C56EABF";
paths = (
{
closed = 1;
nodes = (
"489 1341 LINE",
"190 1341 LINE",
"282 420 LINE",
"397 420 LINE"
);
},
{
closed = 1;
nodes = (
"410 -29 OFFCURVE",
"506 68 OFFCURVE",
"506 137 QCURVE SMOOTH",
"506 207 OFFCURVE",
"409 303 OFFCURVE",
"340 303 QCURVE SMOOTH",
"270 303 OFFCURVE",
"174 206 OFFCURVE",
"174 137 QCURVE SMOOTH",
"174 67 OFFCURVE",
"271 -29 OFFCURVE",
"340 -29 QCURVE SMOOTH"
);
}
);
width = 682;
}
);
note = exclam;
unicode = 0021;
},
{
glyphname = quotedbl;
lastChange = "2019-12-20 14:30:44 +0000";
layers = (
{
layerId = "9CB754D2-AD8E-43A2-9483-C1400C56EABF";
paths = (
{
closed = 1;
nodes = (
"729 860 LINE",
"833 860 LINE",
"911 1341 LINE",
"653 1341 LINE"
);
},
{
closed = 1;
nodes = (
"303 860 LINE",
"407 860 LINE",
"485 1341 LINE",
"227 1341 LINE"
);
}
);
width = 1137;
}
);
note = quotedbl;
unicode = 0022;
},
{
glyphname = numbersign;
lastChange = "2019-12-20 14:30:44 +0000";
layers = (
{
layerId = "9CB754D2-AD8E-43A2-9483-C1400C56EABF";
paths = (
{
closed = 1;
nodes = (
"997 411 LINE",
"997 534 LINE",
"768 534 LINE",
"819 821 LINE",
"997 821 LINE",
"997 944 LINE",
"841 944 LINE",
"915 1341 LINE",
"772 1341 LINE",
"698 944 LINE",
"428 944 LINE",
"502 1341 LINE",
"358 1341 LINE",
"285 944 LINE",
"27 944 LINE",
"27 821 LINE",
"262 821 LINE",
"209 534 LINE",
"27 534 LINE",
"27 411 LINE",
"184 411 LINE",
"108 0 LINE",
"254 0 LINE",
"328 411 LINE",
"598 411 LINE",
"522 0 LINE",
"665 0 LINE",
"741 411 LINE"
);
},
{
closed = 1;
nodes = (
"676 821 LINE",
"622 534 LINE",
"352 534 LINE",
"405 821 LINE"
);
}
);
width = 1024;
}
);
note = numbersign;
unicode = 0023;
},
{
glyphname = dollar;
lastChange = "2019-12-20 14:30:44 +0000";
layers = (
{
layerId = "9CB754D2-AD8E-43A2-9483-C1400C56EABF";
paths = (
{
closed = 1;
nodes = (
"466 -156 LINE",
"568 -156 LINE",
"568 -16 LINE",
"751 -3 OFFCURVE",
"966 212 OFFCURVE",
"966 387 QCURVE SMOOTH",
"966 463 OFFCURVE",
"933 581 OFFCURVE",
"875 669 OFFCURVE",
"795 736 OFFCURVE",
"693 791 OFFCURVE",
"568 841 QCURVE",
"568 1256 LINE",
"622 1251 OFFCURVE",
"722 1206 OFFCURVE",
"751 1177 QCURVE",
"783 1034 LINE",
"874 1034 LINE",
"874 1313 LINE",
"719 1350 OFFCURVE",
"568 1356 QCURVE",
"568 1483 LINE",
"466 1483 LINE",
"466 1354 LINE",
"295 1340 OFFCURVE",
"89 1158 OFFCURVE",
"89 1014 QCURVE SMOOTH",
"89 895 OFFCURVE",
"164 739 OFFCURVE",
"298 632 OFFCURVE",
"466 566 QCURVE",
"466 78 LINE",
"401 80 OFFCURVE",
"232 144 OFFCURVE",
"202 185 QCURVE",
"166 371 LINE",
"73 371 LINE",
"73 51 LINE",
"128 26 OFFCURVE",
"359 -18 OFFCURVE",
"466 -20 QCURVE"
);
},
{
closed = 1;
nodes = (
"752 220 OFFCURVE",
"657 93 OFFCURVE",
"568 77 QCURVE",
"568 528 LINE",
"647 499 OFFCURVE",
"716 449 OFFCURVE",
"752 379 OFFCURVE",
"752 330 QCURVE SMOOTH"
);
},
{
closed = 1;
nodes = (
"303 1143 OFFCURVE",
"387 1242 OFFCURVE",
"466 1254 QCURVE",
"466 879 LINE",
"393 909 OFFCURVE",
"333 956 OFFCURVE",
"303 1021 OFFCURVE",
"303 1067 QCURVE SMOOTH"
);
}
);
width = 1024;
}
);
note = dollar;
unicode = 0024;
},
{
glyphname = percent;
lastChange = "2019-12-20 14:30:44 +0000";
layers = (
{
layerId = "9CB754D2-AD8E-43A2-9483-C1400C56EABF";
paths = (
{
closed = 1;
nodes = (
"1589 1362 LINE",
"1438 1362 LINE",
"490 -20 LINE",
"640 -20 LINE"
);
},
{
closed = 1;
nodes = (
"861 1178 OFFCURVE",
"696 1362 OFFCURVE",
"537 1362 QCURVE SMOOTH",
"210 1362 OFFCURVE",
"210 995 QCURVE SMOOTH",
"210 813 OFFCURVE",
"370 623 OFFCURVE",
"531 623 QCURVE SMOOTH",
"861 623 OFFCURVE",
"861 995 QCURVE SMOOTH"
);
},
{
closed = 1;
nodes = (
"645 846 OFFCURVE",
"589 716 OFFCURVE",
"531 716 QCURVE SMOOTH",
"476 716 OFFCURVE",
"425 840 OFFCURVE",
"425 995 QCURVE SMOOTH",
"425 1146 OFFCURVE",
"475 1268 OFFCURVE",
"531 1268 QCURVE SMOOTH",
"590 1268 OFFCURVE",
"645 1141 OFFCURVE",
"645 995 QCURVE SMOOTH"
);
},
{
closed = 1;
nodes = (
"1856 529 OFFCURVE",
"1692 713 OFFCURVE",
"1533 713 QCURVE SMOOTH",
"1367 713 OFFCURVE",
"1205 524 OFFCURVE",
"1205 346 QCURVE SMOOTH",
"1205 163 OFFCURVE",
"1366 -27 OFFCURVE",
"1527 -27 QCURVE SMOOTH",
"1856 -27 OFFCURVE",
"1856 346 QCURVE SMOOTH"
);
},
{
closed = 1;
nodes = (
"1641 197 OFFCURVE",
"1585 67 OFFCURVE",
"1527 67 QCURVE SMOOTH",
"1472 67 OFFCURVE",
"1421 191 OFFCURVE",
"1421 346 QCURVE SMOOTH",
"1421 497 OFFCURVE",
"1471 619 OFFCURVE",
"1527 619 QCURVE SMOOTH",
"1586 619 OFFCURVE",
"1641 492 OFFCURVE",
"1641 346 QCURVE SMOOTH"
);
}
);
width = 2048;
}
);
note = percent;
unicode = 0025;
},
{
glyphname = ampersand;
lastChange = "2019-12-20 14:30:44 +0000";
layers = (
{
layerId = "9CB754D2-AD8E-43A2-9483-C1400C56EABF";
paths = (
{
closed = 1;
nodes = (
"1043 1214 OFFCURVE",
"856 1362 OFFCURVE",
"681 1362 QCURVE SMOOTH",
"500 1362 OFFCURVE",
"304 1206 OFFCURVE",
"304 1067 QCURVE SMOOTH",
"304 890 OFFCURVE",
"430 745 QCURVE",
"311 698 OFFCURVE",
"188 595 OFFCURVE",
"118 452 OFFCURVE",
"118 356 QCURVE SMOOTH",
"118 168 OFFCURVE",
"385 -20 OFFCURVE",
"660 -20 QCURVE SMOOTH",
"927 -20 OFFCURVE",
"1103 110 QCURVE",
"1222 0 LINE",
"1606 0 LINE",
"1606 63 LINE",
"1490 88 LINE",
"1270 286 LINE",
"1359 420 OFFCURVE",
"1420 626 QCURVE SMOOTH",
"1447 717 LINE",
"1557 743 LINE",
"1557 807 LINE",
"1080 807 LINE",
"1080 743 LINE",
"1191 717 LINE",
"1183 541 OFFCURVE",
"1132 410 QCURVE",
"752 753 LINE",
"870 800 OFFCURVE",
"983 885 OFFCURVE",
"1043 997 OFFCURVE",
"1043 1073 QCURVE SMOOTH"
);
},
{
closed = 1;
nodes = (
"536 86 OFFCURVE",
"394 224 OFFCURVE",
"394 367 QCURVE SMOOTH",
"394 466 OFFCURVE",
"454 604 OFFCURVE",
"522 650 QCURVE",
"999 206 LINE",
"868 86 OFFCURVE",
"660 86 QCURVE SMOOTH"
);
},
{
closed = 1;
nodes = (
"554 1175 OFFCURVE",
"613 1262 OFFCURVE",
"681 1262 QCURVE SMOOTH",
"793 1262 OFFCURVE",
"793 1089 QCURVE SMOOTH",
"793 995 OFFCURVE",
"737 885 OFFCURVE",
"661 844 QCURVE",
"597 914 OFFCURVE",
"554 1025 OFFCURVE",
"554 1089 QCURVE SMOOTH"
);
}
);
width = 1706;
}
);
note = ampersand;
unicode = 0026;
},
{
glyphname = quotesingle;
lastChange = "2019-12-20 14:30:44 +0000";
layers = (
{
layerId = "9CB754D2-AD8E-43A2-9483-C1400C56EABF";
paths = (
{
closed = 1;
nodes = (
"232 860 LINE",
"336 860 LINE",
"414 1341 LINE",
"156 1341 LINE"
);
}
);
width = 569;
}
);
note = quotesingle;
unicode = 0027;
},
{
glyphname = parenleft;
lastChange = "2019-12-20 14:30:44 +0000";
layers = (
{
layerId = "9CB754D2-AD8E-43A2-9483-C1400C56EABF";
paths = (
{
closed = 1;
nodes = (
"363 730 OFFCURVE",
"415 1020 OFFCURVE",
"525 1238 OFFCURVE",
"616 1307 QCURVE",
"616 1421 LINE",
"418 1317 OFFCURVE",
"195 1069 OFFCURVE",
"90 733 OFFCURVE",
"90 495 QCURVE SMOOTH",
"90 255 OFFCURVE",
"195 -82 OFFCURVE",
"418 -331 OFFCURVE",
"616 -436 QCURVE",
"616 -322 LINE",
"525 -253 OFFCURVE",
"414 -33 OFFCURVE",
"363 257 OFFCURVE",
"363 494 QCURVE SMOOTH"
);
}
);
width = 682;
}
);
note = parenleft;
unicode = 0028;
},
{
glyphname = parenright;
lastChange = "2019-12-20 14:30:44 +0000";
layers = (
{
layerId = "9CB754D2-AD8E-43A2-9483-C1400C56EABF";
paths = (
{
closed = 1;
nodes = (
"265 -330 OFFCURVE",
"488 -81 OFFCURVE",
"592 256 OFFCURVE",
"592 495 QCURVE SMOOTH",
"592 732 OFFCURVE",
"488 1067 OFFCURVE",
"266 1314 OFFCURVE",
"66 1421 QCURVE",
"66 1307 LINE",
"157 1237 OFFCURVE",
"267 1021 OFFCURVE",
"319 731 OFFCURVE",
"319 494 QCURVE SMOOTH",
"319 261 OFFCURVE",
"268 -32 OFFCURVE",
"157 -252 OFFCURVE",
"66 -322 QCURVE",
"66 -436 LINE"
);
}
);
width = 682;
}
);
note = parenright;
unicode = 0029;
},
{
glyphname = asterisk;
lastChange = "2019-12-20 14:30:44 +0000";
layers = (
{
layerId = "9CB754D2-AD8E-43A2-9483-C1400C56EABF";
paths = (
{
closed = 1;
nodes = (
"844 667 LINE",
"939 878 LINE",
"627 964 LINE",
"939 1052 LINE",
"844 1261 LINE",
"556 1034 LINE",
"629 1351 LINE",
"396 1351 LINE",
"466 1034 LINE",
"179 1267 LINE",
"85 1054 LINE",
"392 964 LINE",
"85 876 LINE",
"179 663 LINE",
"466 899 LINE",
"396 579 LINE",
"629 579 LINE",
"556 895 LINE"
);
}
);
width = 1024;
}
);
note = asterisk;
unicode = 002A;
},
{
glyphname = plus;
lastChange = "2019-12-20 14:30:44 +0000";
layers = (
{
layerId = "9CB754D2-AD8E-43A2-9483-C1400C56EABF";
paths = (
{
closed = 1;
nodes = (
"1060 608 LINE",
"1060 751 LINE",
"655 751 LINE",
"655 1157 LINE",
"512 1157 LINE",
"512 751 LINE",
"108 751 LINE",
"108 608 LINE",
"512 608 LINE",
"512 203 LINE",
"655 203 LINE",
"655 608 LINE"
);
}
);
width = 1167;
}
);
note = plus;
unicode = 002B;
},
{
glyphname = comma;
lastChange = "2019-12-20 14:30:44 +0000";
layers = (
{
layerId = "9CB754D2-AD8E-43A2-9483-C1400C56EABF";
paths = (
{
closed = 1;
nodes = (
"434 192 OFFCURVE",
"322 301 OFFCURVE",
"237 301 QCURVE SMOOTH",
"168 301 OFFCURVE",
"78 233 OFFCURVE",
"78 168 QCURVE SMOOTH",
"78 84 OFFCURVE",
"154 44 QCURVE SMOOTH",
"199 19 OFFCURVE",
"229 -13 OFFCURVE",
"229 -35 QCURVE SMOOTH",
"229 -69 OFFCURVE",
"180 -144 OFFCURVE",
"90 -206 OFFCURVE",
"27 -225 QCURVE",
"27 -317 LINE",
"226 -265 OFFCURVE",
"434 -50 OFFCURVE",
"434 106 QCURVE SMOOTH"
);
}
);
width = 512;
}
);
note = comma;
unicode = 002C;
},
{
glyphname = hyphen;
lastChange = "2019-12-20 14:30:44 +0000";
layers = (
{
layerId = "9CB754D2-AD8E-43A2-9483-C1400C56EABF";
paths = (
{
closed = 1;
nodes = (
"607 395 LINE",
"607 569 LINE",
"75 569 LINE",
"75 395 LINE"
);
}
);
width = 682;
}
);
note = hyphen;
unicode = "002D,00AD";
},
{
glyphname = period;
lastChange = "2019-12-20 14:30:44 +0000";
layers = (
{
layerId = "9CB754D2-AD8E-43A2-9483-C1400C56EABF";
paths = (
{
closed = 1;
nodes = (
"326 -29 OFFCURVE",
"422 68 OFFCURVE",
"422 137 QCURVE SMOOTH",
"422 207 OFFCURVE",
"325 303 OFFCURVE",
"256 303 QCURVE SMOOTH",
"186 303 OFFCURVE",
"90 206 OFFCURVE",
"90 137 QCURVE SMOOTH",
"90 67 OFFCURVE",
"187 -29 OFFCURVE",
"256 -29 QCURVE SMOOTH"
);
}
);
width = 512;
}
);
note = period;
unicode = 002E;
},
{
glyphname = slash;
lastChange = "2019-12-20 14:30:44 +0000";
layers = (
{
layerId = "9CB754D2-AD8E-43A2-9483-C1400C56EABF";
paths = (
{
closed = 1;
nodes = (
"590 1349 LINE",
"450 1349 LINE",
"-20 -20 LINE",
"121 -20 LINE"
);
}
);
width = 569;
}
);
note = slash;
unicode = 002F;
},
{
glyphname = zero;
lastChange = "2019-12-20 14:30:44 +0000";
layers = (
{
layerId = "9CB754D2-AD8E-43A2-9483-C1400C56EABF";
paths = (
{
closed = 1;
nodes = (
"946 1013 OFFCURVE",
"726 1362 OFFCURVE",
"514 1362 QCURVE SMOOTH",
"294 1362 OFFCURVE",
"78 1009 OFFCURVE",
"78 676 QCURVE SMOOTH",
"78 336 OFFCURVE",
"294 -20 OFFCURVE",
"506 -20 QCURVE SMOOTH",
"946 -20 OFFCURVE",
"946 676 QCURVE SMOOTH"
);
},
{
closed = 1;
nodes = (
"653 357 OFFCURVE",
"582 80 OFFCURVE",
"508 80 QCURVE SMOOTH",
"435 80 OFFCURVE",
"371 350 OFFCURVE",
"371 676 QCURVE SMOOTH",
"371 997 OFFCURVE",
"434 1261 OFFCURVE",
"508 1261 QCURVE SMOOTH",
"583 1261 OFFCURVE",
"653 988 OFFCURVE",
"653 676 QCURVE SMOOTH"
);
}
);
width = 1024;
}
);
note = zero;
unicode = 0030;
},
{
glyphname = one;
lastChange = "2019-12-20 14:30:44 +0000";
layers = (
{
layerId = "9CB754D2-AD8E-43A2-9483-C1400C56EABF";
paths = (
{
closed = 1;
nodes = (
"685 1352 LINE",
"543 1352 LINE",
"165 1130 LINE",
"165 1045 LINE",
"396 1121 LINE",
"396 110 LINE",
"164 86 LINE",
"164 0 LINE",
"918 0 LINE",
"918 86 LINE",
"685 110 LINE"
);
}
);
width = 1024;
}
);
note = one;
unicode = 0031;
},
{
glyphname = two;
lastChange = "2019-12-20 14:30:44 +0000";
layers = (
{
layerId = "9CB754D2-AD8E-43A2-9483-C1400C56EABF";
paths = (
{
closed = 1;
nodes = (
"936 226 LINE",
"278 226 LINE",
"378 315 OFFCURVE",
"464 385 QCURVE SMOOTH",
"689 568 OFFCURVE",
"840 730 OFFCURVE",
"910 901 OFFCURVE",
"910 1006 QCURVE SMOOTH",
"910 1174 OFFCURVE",
"675 1356 OFFCURVE",
"454 1356 QCURVE SMOOTH",
"364 1356 OFFCURVE",
"211 1331 OFFCURVE",
"131 1313 QCURVE",
"131 1008 LINE",
"218 1008 LINE",
"261 1202 LINE",
"292 1228 OFFCURVE",
"366 1254 OFFCURVE",
"428 1254 QCURVE SMOOTH",
"516 1254 OFFCURVE",
"622 1120 OFFCURVE",
"622 1011 QCURVE SMOOTH",
"622 887 OFFCURVE",
"553 693 OFFCURVE",
"405 512 OFFCURVE",
"245 354 QCURVE SMOOTH",
"172 281 OFFCURVE",
"86 189 QCURVE",
"86 0 LINE",
"936 0 LINE"
);
}
);
width = 1024;
}
);
note = two;
unicode = 0032;
},
{
glyphname = three;
lastChange = "2019-12-20 14:30:44 +0000";
layers = (
{
layerId = "9CB754D2-AD8E-43A2-9483-C1400C56EABF";
paths = (
{
closed = 1;
nodes = (
"954 661 OFFCURVE",
"616 702 QCURVE",
"750 722 OFFCURVE",
"894 890 OFFCURVE",
"894 1026 QCURVE SMOOTH",
"894 1356 OFFCURVE",
"443 1356 QCURVE SMOOTH",
"371 1356 OFFCURVE",
"223 1339 OFFCURVE",
"121 1313 QCURVE",
"121 1008 LINE",
"208 1008 LINE",
"251 1202 LINE",
"282 1221 OFFCURVE",
"351 1254 OFFCURVE",
"405 1254 QCURVE SMOOTH",
"498 1254 OFFCURVE",
"599 1126 OFFCURVE",
"599 1014 QCURVE SMOOTH",
"599 894 OFFCURVE",
"514 775 OFFCURVE",
"425 769 QCURVE SMOOTH",
"313 761 LINE",
"313 640 LINE",
"429 633 LINE SMOOTH",
"551 625 OFFCURVE",
"660 496 OFFCURVE",
"660 375 QCURVE SMOOTH",
"660 236 OFFCURVE",
"524 81 OFFCURVE",
"403 81 QCURVE SMOOTH",
"308 81 OFFCURVE",
"221 130 QCURVE",
"169 345 LINE",
"77 345 LINE",
"89 20 LINE",
"273 -20 OFFCURVE",
"459 -20 QCURVE SMOOTH",
"692 -20 OFFCURVE",
"954 182 OFFCURVE",
"954 365 QCURVE SMOOTH"
);
}
);
width = 1024;
}
);
note = three;
unicode = 0033;
},
{
glyphname = four;
lastChange = "2019-12-20 14:30:44 +0000";
layers = (
{
layerId = "9CB754D2-AD8E-43A2-9483-C1400C56EABF";
paths = (
{
closed = 1;
nodes = (
"986 265 LINE",
"986 470 LINE",
"852 470 LINE",
"852 1348 LINE",
"632 1348 LINE",
"28 428 LINE",
"28 265 LINE",
"583 265 LINE",
"583 0 LINE",
"852 0 LINE",
"852 265 LINE"
);
},
{
closed = 1;
nodes = (
"583 470 LINE",
"194 470 LINE",
"593 1079 LINE",
"583 979 OFFCURVE",
"583 867 QCURVE SMOOTH"
);
}
);
width = 1024;
}
);
note = four;
unicode = 0034;
},
{
glyphname = five;
lastChange = "2019-12-20 14:30:44 +0000";
layers = (
{
layerId = "9CB754D2-AD8E-43A2-9483-C1400C56EABF";
paths = (
{
closed = 1;
nodes = (
"382 793 OFFCURVE",
"260 766 QCURVE",
"260 1118 LINE",
"849 1118 LINE",
"849 1341 LINE",
"149 1341 LINE",
"149 653 LINE",
"249 653 LINE",
"280 666 LINE SMOOTH",
"339 692 OFFCURVE",
"410 692 QCURVE SMOOTH",
"538 692 OFFCURVE",
"655 549 OFFCURVE",
"655 389 QCURVE SMOOTH",
"655 81 OFFCURVE",
"425 81 QCURVE SMOOTH",
"379 81 OFFCURVE",
"265 108 OFFCURVE",
"226 130 QCURVE",
"174 345 LINE",
"82 345 LINE",
"94 20 LINE",
"278 -20 OFFCURVE",
"464 -20 QCURVE SMOOTH",
"698 -20 OFFCURVE",
"949 197 OFFCURVE",
"949 399 QCURVE SMOOTH",
"949 597 OFFCURVE",
"718 793 OFFCURVE",
"480 793 QCURVE SMOOTH"
);
}
);
width = 1024;
}
);
note = five;
unicode = 0035;
},
{
glyphname = six;
lastChange = "2019-12-20 14:30:44 +0000";
layers = (
{
layerId = "9CB754D2-AD8E-43A2-9483-C1400C56EABF";
paths = (
{
closed = 1;
nodes = (
"964 609 OFFCURVE",
"765 815 OFFCURVE",
"582 815 QCURVE SMOOTH",
"475 815 OFFCURVE",
"366 768 QCURVE",
"377 998 OFFCURVE",
"502 1254 OFFCURVE",
"602 1254 QCURVE SMOOTH",
"684 1254 OFFCURVE",
"753 1202 QCURVE",
"796 1008 LINE",
"883 1008 LINE",
"883 1313 LINE",
"738 1356 OFFCURVE",
"582 1356 QCURVE SMOOTH",
"431 1356 OFFCURVE",
"199 1192 OFFCURVE",
"70 878 OFFCURVE",
"70 662 QCURVE SMOOTH",
"70 330 OFFCURVE",
"315 -20 OFFCURVE",
"545 -20 QCURVE SMOOTH",
"746 -20 OFFCURVE",
"964 205 OFFCURVE",
"964 416 QCURVE SMOOTH"
);
},
{
closed = 1;
nodes = (
"364 81 OFFCURVE",
"364 662 QCURVE SMOOTH",
"364 667 LINE",
"441 690 OFFCURVE",
"515 690 QCURVE SMOOTH",
"592 690 OFFCURVE",
"670 538 OFFCURVE",
"670 397 QCURVE SMOOTH",
"670 239 OFFCURVE",
"614 81 OFFCURVE",
"541 81 QCURVE SMOOTH"
);
}
);
width = 1024;
}
);
note = six;
unicode = 0036;
},
{
glyphname = seven;
lastChange = "2019-12-20 14:30:44 +0000";
layers = (
{
layerId = "9CB754D2-AD8E-43A2-9483-C1400C56EABF";
paths = (
{
closed = 1;
nodes = (
"250 1118 LINE",
"779 1118 LINE",
"214 0 LINE",
"453 0 LINE",
"974 1262 LINE",
"974 1341 LINE",
"117 1341 LINE",
"117 958 LINE",
"204 958 LINE"
);
}
);
width = 1024;
}
);
note = seven;
unicode = 0037;
},
{
glyphname = eight;
lastChange = "2019-12-20 14:30:44 +0000";
layers = (
{
layerId = "9CB754D2-AD8E-43A2-9483-C1400C56EABF";
paths = (
{
closed = 1;
nodes = (
"925 1175 OFFCURVE",
"708 1362 OFFCURVE",
"514 1362 QCURVE SMOOTH",
"316 1362 OFFCURVE",
"99 1178 OFFCURVE",
"99 1014 QCURVE SMOOTH",
"99 902 OFFCURVE",
"205 748 OFFCURVE",
"302 711 QCURVE",
"192 670 OFFCURVE",
"68 490 OFFCURVE",
"68 362 QCURVE SMOOTH",
"68 -20 OFFCURVE",
"506 -20 QCURVE SMOOTH",
"737 -20 OFFCURVE",
"956 172 OFFCURVE",
"956 362 QCURVE SMOOTH",
"956 488 OFFCURVE",
"834 668 OFFCURVE",
"719 711 QCURVE",
"817 746 OFFCURVE",
"925 901 OFFCURVE",
"925 1011 QCURVE SMOOTH"
);
},
{
closed = 1;
nodes = (
"672 213 OFFCURVE",
"592 81 OFFCURVE",
"506 81 QCURVE SMOOTH",
"425 81 OFFCURVE",
"352 207 OFFCURVE",
"352 362 QCURVE SMOOTH",
"352 520 OFFCURVE",
"424 656 OFFCURVE",
"506 656 QCURVE SMOOTH",
"592 656 OFFCURVE",
"672 516 OFFCURVE",
"672 362 QCURVE SMOOTH"
);
},
{
closed = 1;
nodes = (
"641 878 OFFCURVE",
"577 763 OFFCURVE",
"508 763 QCURVE SMOOTH",
"443 763 OFFCURVE",
"383 875 OFFCURVE",
"383 1011 QCURVE SMOOTH",
"383 1143 OFFCURVE",
"444 1261 OFFCURVE",
"508 1261 QCURVE SMOOTH",
"575 1261 OFFCURVE",
"641 1142 OFFCURVE",
"641 1011 QCURVE SMOOTH"
);
}
);
width = 1024;
}
);
note = eight;
unicode = 0038;
},
{
glyphname = nine;
lastChange = "2019-12-20 14:30:44 +0000";
layers = (
{
layerId = "9CB754D2-AD8E-43A2-9483-C1400C56EABF";
paths = (
{
closed = 1;
nodes = (
"56 737 OFFCURVE",
"265 521 OFFCURVE",
"446 521 QCURVE SMOOTH",
"549 521 OFFCURVE",
"653 558 QCURVE",
"643 326 OFFCURVE",
"522 81 OFFCURVE",
"414 81 QCURVE SMOOTH",
"369 81 OFFCURVE",
"272 109 OFFCURVE",
"237 134 QCURVE",
"194 328 LINE",
"107 328 LINE",
"107 23 LINE",
"252 -20 OFFCURVE",
"418 -20 QCURVE SMOOTH",
"585 -20 OFFCURVE",
"823 138 OFFCURVE",
"950 448 OFFCURVE",
"950 674 QCURVE SMOOTH",
"950 1026 OFFCURVE",
"733 1356 OFFCURVE",
"498 1356 QCURVE SMOOTH",
"290 1356 OFFCURVE",
"56 1136 OFFCURVE",
"56 932 QCURVE SMOOTH"
);
},
{
closed = 1;
nodes = (
"350 1255 OFFCURVE",
"500 1255 QCURVE SMOOTH",
"587 1255 OFFCURVE",
"656 963 OFFCURVE",
"656 674 QCURVE SMOOTH",
"656 660 LINE",
"582 642 OFFCURVE",
"506 642 QCURVE SMOOTH",
"350 642 OFFCURVE",
"350 928 QCURVE SMOOTH"
);
}
);
width = 1024;
}
);
note = nine;
unicode = 0039;
},
{
glyphname = colon;
lastChange = "2019-12-20 14:30:44 +0000";
layers = (
{
layerId = "9CB754D2-AD8E-43A2-9483-C1400C56EABF";
paths = (
{
closed = 1;
nodes = (
"403 -29 OFFCURVE",
"499 68 OFFCURVE",
"499 137 QCURVE SMOOTH",
"499 207 OFFCURVE",
"402 303 OFFCURVE",
"333 303 QCURVE SMOOTH",
"263 303 OFFCURVE",
"168 207 OFFCURVE",
"168 137 QCURVE SMOOTH",
"168 67 OFFCURVE",
"263 -29 OFFCURVE",
"333 -29 QCURVE SMOOTH"
);
},
{
closed = 1;
nodes = (
"403 628 OFFCURVE",
"499 725 OFFCURVE",
"499 794 QCURVE SMOOTH",
"499 863 OFFCURVE",
"404 960 OFFCURVE",
"333 960 QCURVE SMOOTH",
"261 960 OFFCURVE",
"168 864 OFFCURVE",
"168 794 QCURVE SMOOTH",
"168 724 OFFCURVE",
"263 628 OFFCURVE",
"333 628 QCURVE SMOOTH"
);
}
);
width = 682;
}
);
note = colon;
unicode = 003A;
},
{
glyphname = semicolon;
lastChange = "2019-12-20 14:30:44 +0000";
layers = (
{
layerId = "9CB754D2-AD8E-43A2-9483-C1400C56EABF";
paths = (
{
closed = 1;
nodes = (
"405 628 OFFCURVE",
"501 725 OFFCURVE",
"501 794 QCURVE SMOOTH",
"501 863 OFFCURVE",
"406 960 OFFCURVE",
"335 960 QCURVE SMOOTH",
"263 960 OFFCURVE",
"170 864 OFFCURVE",
"170 794 QCURVE SMOOTH",
"170 724 OFFCURVE",
"265 628 OFFCURVE",
"335 628 QCURVE SMOOTH"
);
},
{
closed = 1;
nodes = (
"514 192 OFFCURVE",
"400 301 OFFCURVE",
"317 301 QCURVE SMOOTH",
"242 301 OFFCURVE",
"155 228 OFFCURVE",
"155 168 QCURVE SMOOTH",
"155 84 OFFCURVE",
"232 44 QCURVE SMOOTH",
"277 20 OFFCURVE",
"309 -13 OFFCURVE",
"309 -35 QCURVE SMOOTH",
"309 -68 OFFCURVE",
"260 -144 OFFCURVE",
"169 -206 OFFCURVE",
"106 -225 QCURVE",
"106 -317 LINE",
"306 -264 OFFCURVE",
"514 -50 OFFCURVE",
"514 106 QCURVE SMOOTH"
);
}
);
width = 682;
}
);
note = semicolon;
unicode = "003B,037E";
},
{
glyphname = less;
lastChange = "2019-12-20 14:30:44 +0000";
layers = (
{
layerId = "9CB754D2-AD8E-43A2-9483-C1400C56EABF";
paths = (
{
closed = 1;
nodes = (
"1054 166 LINE",
"1054 309 LINE",
"287 680 LINE",
"1054 1050 LINE",
"1054 1193 LINE",
"102 725 LINE",
"102 635 LINE"
);
}
);
width = 1167;
}
);
note = less;
unicode = 003C;
},
{
glyphname = equal;
lastChange = "2019-12-20 14:30:44 +0000";
layers = (
{
layerId = "9CB754D2-AD8E-43A2-9483-C1400C56EABF";
paths = (
{
closed = 1;
nodes = (
"102 547 LINE",
"102 403 LINE",
"1054 403 LINE",
"1054 547 LINE"
);
},
{
closed = 1;
nodes = (
"102 956 LINE",
"102 813 LINE",
"1054 813 LINE",
"1054 956 LINE"
);
}
);
width = 1167;
}
);
note = equal;
unicode = 003D;
},
{
glyphname = greater;
lastChange = "2019-12-20 14:30:44 +0000";
layers = (
{
layerId = "9CB754D2-AD8E-43A2-9483-C1400C56EABF";
paths = (
{
closed = 1;
nodes = (
"1056 635 LINE",
"1056 725 LINE",
"104 1193 LINE",
"104 1050 LINE",
"872 680 LINE",
"104 309 LINE",
"104 166 LINE"
);
}
);
width = 1167;
}
);
note = greater;
unicode = 003E;
},
{
glyphname = question;
lastChange = "2019-12-20 14:30:44 +0000";
layers = (
{
layerId = "9CB754D2-AD8E-43A2-9483-C1400C56EABF";
paths = (
{
closed = 1;
nodes = (
"515 -29 OFFCURVE",
"611 68 OFFCURVE",
"611 137 QCURVE SMOOTH",
"611 207 OFFCURVE",
"514 303 OFFCURVE",
"445 303 QCURVE SMOOTH",
"375 303 OFFCURVE",
"280 207 OFFCURVE",
"280 137 QCURVE SMOOTH",
"280 67 OFFCURVE",
"375 -29 OFFCURVE",
"445 -29 QCURVE SMOOTH"
);
},
{
closed = 1;
nodes = (
"518 592 LINE",
"605 616 LINE SMOOTH",
"747 656 OFFCURVE",
"902 856 OFFCURVE",
"902 1001 QCURVE SMOOTH",
"902 1356 OFFCURVE",
"448 1356 QCURVE SMOOTH",
"290 1356 OFFCURVE",
"124 1313 QCURVE",
"124 1018 LINE",
"213 1018 LINE",
"256 1212 LINE",
"321 1254 OFFCURVE",
"405 1254 QCURVE SMOOTH",
"517 1254 OFFCURVE",
"613 1131 OFFCURVE",
"613 994 QCURVE SMOOTH",
"613 884 OFFCURVE",
"530 755 OFFCURVE",
"426 728 QCURVE SMOOTH",
"331 703 LINE",
"388 390 LINE",
"491 390 LINE"
);
}
);
width = 1024;
}
);
note = question;
unicode = 003F;
},
{
glyphname = at;
lastChange = "2019-12-20 14:30:44 +0000";
layers = (
{
layerId = "9CB754D2-AD8E-43A2-9483-C1400C56EABF";
paths = (
{
closed = 1;
nodes = (
"1798 1043 OFFCURVE",
"1424 1364 OFFCURVE",
"1083 1364 QCURVE SMOOTH",
"811 1364 OFFCURVE",
"365 1110 OFFCURVE",
"107 648 OFFCURVE",
"107 362 QCURVE SMOOTH",
"107 142 OFFCURVE",
"292 -201 OFFCURVE",
"636 -389 OFFCURVE",
"864 -389 QCURVE SMOOTH",
"1040 -389 OFFCURVE",
"1338 -287 OFFCURVE",
"1480 -173 QCURVE",
"1436 -109 LINE",
"1300 -204 OFFCURVE",
"1042 -284 OFFCURVE",
"895 -284 QCURVE SMOOTH",
"710 -284 OFFCURVE",
"437 -121 OFFCURVE",
"291 174 OFFCURVE",
"291 363 QCURVE SMOOTH",
"291 621 OFFCURVE",
"496 1038 OFFCURVE",
"853 1263 OFFCURVE",
"1079 1263 QCURVE SMOOTH",
"1329 1263 OFFCURVE",
"1614 994 OFFCURVE",
"1614 751 QCURVE SMOOTH",
"1614 599 OFFCURVE",
"1523 319 OFFCURVE",
"1367 159 OFFCURVE",
"1273 159 QCURVE SMOOTH",
"1240 159 OFFCURVE",
"1223 192 OFFCURVE",
"1223 215 QCURVE SMOOTH",
"1223 235 OFFCURVE",
"1237 335 OFFCURVE",
"1246 372 QCURVE SMOOTH",
"1367 913 LINE",
"1271 924 OFFCURVE",
"1184 924 QCURVE SMOOTH",
"1007 924 OFFCURVE",
"783 834 OFFCURVE",
"602 657 OFFCURVE",
"500 412 OFFCURVE",
"500 283 QCURVE SMOOTH",
"500 165 OFFCURVE",
"600 25 OFFCURVE",
"686 25 QCURVE SMOOTH",
"805 25 OFFCURVE",
"905 107 QCURVE SMOOTH",
"957 150 LINE",
"961 25 OFFCURVE",
"1085 25 QCURVE SMOOTH",
"1270 25 OFFCURVE",
"1604 229 OFFCURVE",
"1798 564 OFFCURVE",
"1798 752 QCURVE SMOOTH"
);
},
{
closed = 1;
nodes = (
"740 444 OFFCURVE",
"814 698 OFFCURVE",
"922 803 OFFCURVE",
"1024 803 QCURVE SMOOTH",
"1068 803 OFFCURVE",
"1085 798 QCURVE",
"965 237 LINE",
"934 209 OFFCURVE",
"845 169 OFFCURVE",
"811 169 QCURVE SMOOTH",
"783 169 OFFCURVE",
"740 244 OFFCURVE",
"740 316 QCURVE SMOOTH"
);
}
);
width = 1905;
}
);
note = at;
unicode = 0040;
},
{
glyphname = A;
lastChange = "2019-12-20 14:30:44 +0000";
layers = (
{
layerId = "9CB754D2-AD8E-43A2-9483-C1400C56EABF";
paths = (
{
closed = 1;
nodes = (
"256 100 LINE",
"379 447 LINE",
"894 447 LINE",
"1022 100 LINE",
"867 73 LINE",
"867 0 LINE",
"1464 0 LINE",
"1464 73 LINE",
"1362 100 LINE",
"887 1352 LINE",
"597 1352 LINE",
"120 100 LINE",
"20 73 LINE",
"20 0 LINE",
"428 0 LINE",
"428 73 LINE"
);
},
{
closed = 1;
nodes = (
"856 557 LINE",
"420 557 LINE",
"641 1150 LINE"
);
}
);
width = 1479;
}
);
note = A;
unicode = 0041;
},
{
glyphname = B;
lastChange = "2019-12-20 14:30:44 +0000";
layers = (
{
layerId = "9CB754D2-AD8E-43A2-9483-C1400C56EABF";
paths = (
{
closed = 1;
nodes = (
"878 876 OFFCURVE",
"776 764 OFFCURVE",
"669 764 QCURVE SMOOTH",
"522 764 LINE",
"522 1231 LINE",
"661 1231 LINE SMOOTH",
"777 1231 OFFCURVE",
"878 1127 OFFCURVE",
"878 1010 QCURVE SMOOTH"
);
},
{
closed = 1;
nodes = (
"979 246 OFFCURVE",
"866 104 OFFCURVE",
"749 104 QCURVE SMOOTH",
"666 104 OFFCURVE",
"522 110 QCURVE",
"522 654 LINE",
"695 654 LINE SMOOTH",
"846 654 OFFCURVE",
"979 524 OFFCURVE",
"979 391 QCURVE SMOOTH"
);
},
{
closed = 1;
nodes = (
"296 0 LINE",
"752 -6 LINE SMOOTH",
"1021 -6 OFFCURVE",
"1309 196 OFFCURVE",
"1309 391 QCURVE SMOOTH",
"1309 533 OFFCURVE",
"1117 698 OFFCURVE",
"930 717 QCURVE",
"1056 744 OFFCURVE",
"1206 918 OFFCURVE",
"1206 1038 QCURVE SMOOTH",
"1206 1198 OFFCURVE",
"952 1341 OFFCURVE",
"685 1341 QCURVE SMOOTH",
"34 1341 LINE",
"34 1268 LINE",
"207 1242 LINE",
"207 100 LINE",
"34 73 LINE",
"34 0 LINE"
);
}
);
width = 1366;
}
);
note = B;
unicode = 0042;
},
{
glyphname = C;
lastChange = "2019-12-20 14:30:44 +0000";
layers = (
{
layerId = "9CB754D2-AD8E-43A2-9483-C1400C56EABF";
paths = (
{
closed = 1;
nodes = (
"939 -20 OFFCURVE",
"1227 29 OFFCURVE",
"1317 64 QCURVE",
"1323 404 LINE",
"1232 404 LINE",
"1200 184 LINE",
"1152 143 OFFCURVE",
"983 83 OFFCURVE",
"870 83 QCURVE SMOOTH",
"656 83 OFFCURVE",
"432 377 OFFCURVE",
"432 658 QCURVE SMOOTH",
"432 962 OFFCURVE",
"646 1251 OFFCURVE",
"878 1251 QCURVE SMOOTH",
"1053 1251 OFFCURVE",
"1185 1161 QCURVE",
"1213 967 LINE",
"1303 967 LINE",
"1297 1289 LINE",
"1047 1356 OFFCURVE",
"814 1356 QCURVE SMOOTH",
"461 1356 OFFCURVE",
"100 999 OFFCURVE",
"100 655 QCURVE SMOOTH",
"100 338 OFFCURVE",
"478 -20 OFFCURVE",
"815 -20 QCURVE SMOOTH"
);
}
);
width = 1479;
}
);
note = C;
unicode = 0043;
},
{
glyphname = D;
lastChange = "2019-12-20 14:30:44 +0000";
layers = (
{
layerId = "9CB754D2-AD8E-43A2-9483-C1400C56EABF";
paths = (
{
closed = 1;
nodes = (
"1047 457 OFFCURVE",
"977 218 OFFCURVE",
"826 106 OFFCURVE",
"696 106 QCURVE SMOOTH",
"618 106 OFFCURVE",
"522 114 QCURVE",
"522 1231 LINE",
"596 1231 LINE SMOOTH",
"835 1231 OFFCURVE",
"1047 960 OFFCURVE",
"1047 670 QCURVE SMOOTH"
);
},
{
closed = 1;
nodes = (
"36 1341 LINE",
"36 1268 LINE",
"208 1242 LINE",
"208 100 LINE",
"36 73 LINE",
"36 0 LINE",
"715 -4 LINE SMOOTH",
"1049 -4 OFFCURVE",
"1379 333 OFFCURVE",
"1379 678 QCURVE SMOOTH",
"1379 1014 OFFCURVE",
"1034 1341 OFFCURVE",
"673 1341 QCURVE SMOOTH"
);
}
);
width = 1479;
}
);
note = D;
unicode = 0044;
},
{
glyphname = E;
lastChange = "2019-12-20 14:30:44 +0000";
layers = (
{
layerId = "9CB754D2-AD8E-43A2-9483-C1400C56EABF";
paths = (
{
closed = 1;
nodes = (
"35 0 LINE",
"1242 0 LINE",
"1261 374 LINE",
"1170 374 LINE",
"1113 126 LINE",
"1033 110 OFFCURVE",
"775 110 QCURVE SMOOTH",
"522 110 LINE",
"522 627 LINE",
"873 627 LINE",
"904 475 LINE",
"993 475 LINE",
"993 887 LINE",
"904 887 LINE",
"873 739 LINE",
"522 739 LINE",
"522 1231 LINE",
"730 1231 LINE SMOOTH",
"942 1231 OFFCURVE",
"1054 1217 QCURVE",
"1086 1000 LINE",
"1177 1000 LINE",
"1177 1341 LINE",
"35 1341 LINE",
"35 1268 LINE",
"207 1242 LINE",
"207 100 LINE",
"35 73 LINE"
);
}
);
width = 1366;
}
);
note = E;
unicode = 0045;
},
{
glyphname = F;
lastChange = "2019-12-20 14:30:44 +0000";
layers = (
{
layerId = "9CB754D2-AD8E-43A2-9483-C1400C56EABF";
paths = (
{
closed = 1;
nodes = (
"849 572 LINE",
"880 400 LINE",
"969 400 LINE",
"969 852 LINE",
"880 852 LINE",
"849 682 LINE",
"522 682 LINE",
"522 1231 LINE",
"687 1231 LINE SMOOTH",
"752 1231 OFFCURVE",
"978 1224 OFFCURVE",
"1027 1217 QCURVE",
"1059 980 LINE",
"1153 980 LINE",
"1153 1341 LINE",
"35 1341 LINE",
"35 1268 LINE",
"207 1242 LINE",
"207 100 LINE",
"48 73 LINE",
"48 0 LINE",
"745 0 LINE",
"745 73 LINE",
"522 100 LINE",
"522 572 LINE"
);
}
);
width = 1251;
}
);
note = F;
unicode = 0046;
},
{
glyphname = G;
lastChange = "2019-12-20 14:30:44 +0000";
layers = (
{
layerId = "9CB754D2-AD8E-43A2-9483-C1400C56EABF";
paths = (
{
closed = 1;
nodes = (
"1406 506 LINE",
"1537 532 LINE",
"1537 606 LINE",
"919 606 LINE",
"919 532 LINE",
"1091 506 LINE",
"1091 118 LINE",
"986 83 OFFCURVE",
"870 83 QCURVE SMOOTH",
"657 83 OFFCURVE",
"432 374 OFFCURVE",
"432 657 QCURVE SMOOTH",
"432 961 OFFCURVE",
"645 1251 OFFCURVE",
"878 1251 QCURVE SMOOTH",
"979 1251 OFFCURVE",
"1169 1191 OFFCURVE",
"1248 1137 QCURVE",
"1272 963 LINE",
"1362 963 LINE",
"1362 1271 LINE",
"1196 1318 OFFCURVE",
"1072 1342 OFFCURVE",
"929 1356 OFFCURVE",
"842 1356 QCURVE SMOOTH",
"485 1356 OFFCURVE",
"100 992 OFFCURVE",
"100 655 QCURVE SMOOTH",
"100 446 OFFCURVE",
"277 140 OFFCURVE",
"604 -20 OFFCURVE",
"823 -20 QCURVE SMOOTH",
"954 -20 OFFCURVE",
"1282 29 OFFCURVE",
"1406 70 QCURVE"
);
}
);
width = 1593;
}
);
note = G;
unicode = 0047;
},
{
glyphname = H;
lastChange = "2019-12-20 14:30:44 +0000";
layers = (
{
layerId = "9CB754D2-AD8E-43A2-9483-C1400C56EABF";
paths = (
{
closed = 1;
nodes = (
"694 0 LINE",
"694 74 LINE",
"522 100 LINE",
"522 635 LINE",
"1070 635 LINE",
"1070 100 LINE",
"898 74 LINE",
"898 0 LINE",
"1559 0 LINE",
"1559 74 LINE",
"1386 100 LINE",
"1386 1241 LINE",
"1559 1268 LINE",
"1559 1341 LINE",
"898 1341 LINE",
"898 1268 LINE",
"1070 1241 LINE",
"1070 745 LINE",
"522 745 LINE",
"522 1241 LINE",
"694 1268 LINE",
"694 1341 LINE",
"35 1341 LINE",
"35 1268 LINE",
"207 1241 LINE",
"207 100 LINE",
"35 74 LINE",
"35 0 LINE"
);
}
);
width = 1593;
}
);
note = H;
unicode = 0048;
},
{
glyphname = I;
lastChange = "2019-12-20 14:30:44 +0000";
layers = (
{
layerId = "9CB754D2-AD8E-43A2-9483-C1400C56EABF";
paths = (
{
closed = 1;
nodes = (
"556 1241 LINE",
"728 1268 LINE",
"728 1341 LINE",
"69 1341 LINE",
"69 1268 LINE",
"241 1241 LINE",
"241 100 LINE",
"69 74 LINE",
"69 0 LINE",
"728 0 LINE",
"728 74 LINE",
"556 100 LINE"
);
}
);
width = 797;
}
);
note = I;
unicode = 0049;
},
{
glyphname = J;
lastChange = "2019-12-20 14:30:44 +0000";
layers = (
{
layerId = "9CB754D2-AD8E-43A2-9483-C1400C56EABF";
paths = (
{
closed = 1;
nodes = (
"501 276 LINE SMOOTH",
"501 182 OFFCURVE",
"410 86 OFFCURVE",
"341 86 QCURVE SMOOTH",
"299 86 OFFCURVE",
"229 112 OFFCURVE",
"210 135 QCURVE",
"180 314 LINE",
"91 314 LINE",
"91 10 LINE",
"134 -3 OFFCURVE",
"279 -20 OFFCURVE",
"354 -20 QCURVE SMOOTH",
"576 -20 OFFCURVE",
"816 215 OFFCURVE",
"816 432 QCURVE SMOOTH",
"816 1242 LINE",
"968 1268 LINE",
"968 1341 LINE",
"329 1341 LINE",
"329 1268 LINE",
"501 1242 LINE"
);
}
);
width = 1024;
}
);
note = J;
unicode = 004A;
},
{
glyphname = K;
lastChange = "2019-12-20 14:30:44 +0000";
layers = (
{
layerId = "9CB754D2-AD8E-43A2-9483-C1400C56EABF";
paths = (
{
closed = 1;
nodes = (
"1010 1341 LINE",
"1010 1268 LINE",
"1133 1242 LINE",
"522 696 LINE",
"522 1242 LINE",
"695 1268 LINE",
"695 1341 LINE",
"35 1341 LINE",
"35 1268 LINE",
"207 1242 LINE",
"207 100 LINE",
"35 73 LINE",
"35 0 LINE",
"715 0 LINE",
"715 73 LINE",
"522 100 LINE",
"522 546 LINE",
"638 646 LINE",
"1139 0 LINE",
"1577 0 LINE",
"1577 73 LINE",
"1452 100 LINE",
"862 851 LINE",
"1305 1242 LINE",
"1469 1268 LINE",
"1469 1341 LINE"
);
}
);
width = 1593;
}
);
note = K;
unicode = 004B;
},
{
glyphname = L;
lastChange = "2019-12-20 14:30:44 +0000";
layers = (
{
layerId = "9CB754D2-AD8E-43A2-9483-C1400C56EABF";
paths = (
{
closed = 1;
nodes = (
"729 1341 LINE",
"36 1341 LINE",
"36 1268 LINE",
"207 1242 LINE",
"207 100 LINE",
"35 73 LINE",
"35 0 LINE",
"1242 0 LINE",
"1280 405 LINE",
"1190 405 LINE",
"1108 126 LINE",
"1008 106 OFFCURVE",
"795 106 QCURVE SMOOTH",
"522 106 LINE",
"522 1242 LINE",
"729 1268 LINE"
);
}
);
width = 1366;
}
);
note = L;
unicode = 004C;
},
{
glyphname = M;
lastChange = "2019-12-20 14:30:44 +0000";
layers = (
{
layerId = "9CB754D2-AD8E-43A2-9483-C1400C56EABF";
paths = (
{
closed = 1;
nodes = (
"1387 1133 LINE",
"1387 100 LINE",
"1207 73 LINE",
"1207 0 LINE",
"1874 0 LINE",
"1874 73 LINE",
"1702 100 LINE",
"1702 1242 LINE",
"1874 1268 LINE",
"1874 1341 LINE",
"1336 1341 LINE",
"945 459 LINE",
"562 1341 LINE",
"35 1341 LINE",
"35 1268 LINE",
"207 1242 LINE",
"207 100 LINE",
"35 73 LINE",
"35 0 LINE",
"512 0 LINE",
"512 73 LINE",
"332 100 LINE",
"332 1133 LINE",
"827 0 LINE",
"882 0 LINE"
);
}
);
width = 1933;
}
);
note = M;
unicode = 004D;
},
{
glyphname = N;
lastChange = "2019-12-20 14:30:44 +0000";
layers = (
{
layerId = "9CB754D2-AD8E-43A2-9483-C1400C56EABF";
paths = (
{
closed = 1;
nodes = (
"1155 484 LINE",
"498 1341 LINE",
"39 1341 LINE",
"39 1268 LINE",
"211 1242 LINE",
"211 100 LINE",
"39 73 LINE",
"39 0 LINE",
"516 0 LINE",
"516 73 LINE",
"336 100 LINE",
"336 1078 LINE",
"1163 0 LINE",
"1280 0 LINE",
"1280 1242 LINE",
"1452 1268 LINE",
"1452 1341 LINE",
"975 1341 LINE",
"975 1268 LINE",
"1155 1242 LINE"
);
}
);
width = 1479;
}
);
note = N;
unicode = 004E;
},
{
glyphname = O;
lastChange = "2019-12-20 14:30:44 +0000";
layers = (
{
layerId = "9CB754D2-AD8E-43A2-9483-C1400C56EABF";
paths = (
{
closed = 1;
nodes = (
"432 989 OFFCURVE",
"607 1255 OFFCURVE",
"797 1255 QCURVE SMOOTH",
"986 1255 OFFCURVE",
"1161 989 OFFCURVE",
"1161 672 QCURVE SMOOTH",
"1161 354 OFFCURVE",
"986 80 OFFCURVE",
"797 80 QCURVE SMOOTH",
"607 80 OFFCURVE",
"432 353 OFFCURVE",
"432 672 QCURVE SMOOTH"
);
},
{
closed = 1;
nodes = (
"100 330 OFFCURVE",
"458 -20 OFFCURVE",
"797 -20 QCURVE SMOOTH",
"1137 -20 OFFCURVE",
"1493 331 OFFCURVE",
"1493 672 QCURVE SMOOTH",
"1493 1009 OFFCURVE",
"1141 1356 OFFCURVE",
"797 1356 QCURVE SMOOTH",
"100 1356 OFFCURVE",
"100 672 QCURVE SMOOTH"
);
}
);
width = 1593;
}
);
note = O;
unicode = 004F;
},
{
glyphname = P;
lastChange = "2019-12-20 14:30:44 +0000";
layers = (
{
layerId = "9CB754D2-AD8E-43A2-9483-C1400C56EABF";
paths = (
{
closed = 1;
nodes = (
"871 776 OFFCURVE",
"745 636 OFFCURVE",
"606 636 QCURVE SMOOTH",
"523 636 LINE",
"523 1231 LINE",
"602 1231 LINE SMOOTH",
"752 1231 OFFCURVE",
"871 1104 OFFCURVE",
"871 944 QCURVE SMOOTH"
);
},
{
closed = 1;
nodes = (
"703 526 LINE SMOOTH",
"1193 526 OFFCURVE",
"1193 946 QCURVE SMOOTH",
"1193 1150 OFFCURVE",
"911 1341 OFFCURVE",
"626 1341 QCURVE SMOOTH",
"35 1341 LINE",
"35 1268 LINE",
"207 1242 LINE",
"207 100 LINE",
"48 73 LINE",
"48 0 LINE",
"746 0 LINE",
"746 73 LINE",
"523 100 LINE",
"523 526 LINE"
);
}
);
width = 1251;
}
);
note = P;
unicode = 0050;
},
{
glyphname = Q;
lastChange = "2019-12-20 14:30:44 +0000";
layers = (
{
layerId = "9CB754D2-AD8E-43A2-9483-C1400C56EABF";
paths = (
{
closed = 1;
nodes = (
"100 335 OFFCURVE",
"452 -18 OFFCURVE",
"785 -20 QCURVE",
"891 -155 OFFCURVE",
"984 -248 OFFCURVE",
"1081 -305 OFFCURVE",
"1194 -332 OFFCURVE",
"1267 -332 QCURVE SMOOTH",
"1329 -332 OFFCURVE",
"1482 -301 OFFCURVE",
"1503 -291 QCURVE",
"1503 -205 LINE",
"1473 -213 OFFCURVE",
"1421 -213 QCURVE SMOOTH",
"1316 -213 OFFCURVE",
"1169 -29 QCURVE SMOOTH",
"1119 32 LINE",
"1493 175 OFFCURVE",
"1493 672 QCURVE SMOOTH",
"1493 1009 OFFCURVE",
"1141 1356 OFFCURVE",
"797 1356 QCURVE SMOOTH",
"100 1356 OFFCURVE",
"100 672 QCURVE SMOOTH"
);
},
{
closed = 1;
nodes = (
"432 989 OFFCURVE",
"607 1255 OFFCURVE",
"797 1255 QCURVE SMOOTH",
"986 1255 OFFCURVE",
"1161 989 OFFCURVE",
"1161 672 QCURVE SMOOTH",
"1161 354 OFFCURVE",
"986 80 OFFCURVE",
"797 80 QCURVE SMOOTH",
"607 80 OFFCURVE",
"432 353 OFFCURVE",
"432 672 QCURVE SMOOTH"
);
}
);
width = 1593;
}
);
note = Q;
unicode = 0051;
},
{
glyphname = R;
lastChange = "2019-12-20 14:30:44 +0000";
layers = (
{
layerId = "9CB754D2-AD8E-43A2-9483-C1400C56EABF";
paths = (
{
closed = 1;
nodes = (
"689 568 LINE",
"1063 0 LINE",
"1497 0 LINE",
"1497 73 LINE",
"1352 100 LINE",
"994 596 LINE",
"1264 678 OFFCURVE",
"1264 966 QCURVE SMOOTH",
"1264 1159 OFFCURVE",
"972 1341 OFFCURVE",
"676 1341 QCURVE SMOOTH",
"35 1341 LINE",
"35 1268 LINE",
"207 1242 LINE",
"207 100 LINE",
"48 73 LINE",
"48 0 LINE",
"695 0 LINE",
"695 73 LINE",
"523 100 LINE",
"523 568 LINE"
);
},
{
closed = 1;
nodes = (
"952 806 OFFCURVE",
"822 678 OFFCURVE",
"668 678 QCURVE SMOOTH",
"523 678 LINE",
"523 1231 LINE",
"663 1231 LINE SMOOTH",
"828 1231 OFFCURVE",
"952 1114 OFFCURVE",
"952 964 QCURVE SMOOTH"
);
}
);
width = 1479;
}
);
note = R;
unicode = 0052;
},
{
glyphname = S;
lastChange = "2019-12-20 14:30:44 +0000";
layers = (
{
layerId = "9CB754D2-AD8E-43A2-9483-C1400C56EABF";
paths = (
{
closed = 1;
nodes = (
"109 51 LINE",
"195 19 OFFCURVE",
"434 -20 OFFCURVE",
"549 -20 QCURVE SMOOTH",
"1052 -20 OFFCURVE",
"1052 407 QCURVE SMOOTH",
"1052 518 OFFCURVE",
"962 682 OFFCURVE",
"791 793 OFFCURVE",
"562 868 QCURVE SMOOTH",
"445 905 OFFCURVE",
"335 1000 OFFCURVE",
"335 1067 QCURVE SMOOTH",
"335 1161 OFFCURVE",
"467 1252 OFFCURVE",
"590 1252 QCURVE SMOOTH",
"726 1252 OFFCURVE",
"828 1178 QCURVE",
"873 994 LINE",
"962 994 LINE",
"962 1313 LINE",
"758 1356 OFFCURVE",
"590 1356 QCURVE SMOOTH",
"358 1356 OFFCURVE",
"117 1171 OFFCURVE",
"117 994 QCURVE SMOOTH",
"117 894 OFFCURVE",
"179 757 OFFCURVE",
"283 661 OFFCURVE",
"434 590 OFFCURVE",
"606 533 QCURVE SMOOTH",
"723 493 OFFCURVE",
"832 391 OFFCURVE",
"832 317 QCURVE SMOOTH",
"832 81 OFFCURVE",
"545 81 QCURVE SMOOTH",
"454 81 OFFCURVE",
"284 147 OFFCURVE",
"242 196 QCURVE",
"197 411 LINE",
"109 411 LINE"
);
}
);
width = 1139;
}
);
note = S;
unicode = 0053;
},
{
glyphname = T;
lastChange = "2019-12-20 14:30:44 +0000";
layers = (
{
layerId = "9CB754D2-AD8E-43A2-9483-C1400C56EABF";
paths = (
{
closed = 1;
nodes = (
"1052 0 LINE",
"1052 73 LINE",
"839 100 LINE",
"839 1233 LINE",
"888 1233 LINE SMOOTH",
"1133 1233 OFFCURVE",
"1216 1215 QCURVE",
"1243 966 LINE",
"1335 966 LINE",
"1335 1341 LINE",
"32 1341 LINE",
"32 966 LINE",
"123 966 LINE",
"150 1215 LINE",
"243 1235 OFFCURVE",
"472 1235 QCURVE SMOOTH",
"523 1235 LINE",
"523 100 LINE",
"310 73 LINE",
"310 0 LINE"
);
}
);
width = 1366;
}
);
note = T;
unicode = 0054;
},
{
glyphname = U;
lastChange = "2019-12-20 14:30:44 +0000";
layers = (
{
layerId = "9CB754D2-AD8E-43A2-9483-C1400C56EABF";
paths = (
{
closed = 1;
nodes = (
"681 122 OFFCURVE",
"518 294 OFFCURVE",
"518 455 QCURVE SMOOTH",
"518 1242 LINE",
"690 1268 LINE",
"690 1341 LINE",
"51 1341 LINE",
"51 1268 LINE",
"203 1242 LINE",
"203 469 LINE SMOOTH",
"203 232 OFFCURVE",
"490 -19 OFFCURVE",
"759 -19 QCURVE SMOOTH",
"1008 -19 OFFCURVE",
"1276 229 OFFCURVE",
"1276 461 QCURVE SMOOTH",
"1276 1242 LINE",
"1428 1268 LINE",
"1428 1341 LINE",
"972 1341 LINE",
"972 1268 LINE",
"1152 1242 LINE",
"1152 453 LINE SMOOTH",
"1152 290 OFFCURVE",
"988 122 OFFCURVE",
"838 122 QCURVE SMOOTH"
);
}
);
width = 1479;
}
);
note = U;
unicode = 0055;
},
{
glyphname = V;
lastChange = "2019-12-20 14:30:44 +0000";
layers = (
{
layerId = "9CB754D2-AD8E-43A2-9483-C1400C56EABF";
paths = (
{
closed = 1;
nodes = (
"1061 1341 LINE",
"1061 1268 LINE",
"1196 1241 LINE",
"844 362 LINE",
"467 1241 LINE",
"606 1268 LINE",
"606 1341 LINE",
"23 1341 LINE",
"23 1268 LINE",
"133 1241 LINE",
"678 -31 LINE",
"811 -31 LINE",
"1329 1241 LINE",
"1456 1268 LINE",
"1456 1341 LINE"
);
}
);
width = 1479;
}
);
note = V;
unicode = 0056;
},
{
glyphname = W;
lastChange = "2019-12-20 14:30:44 +0000";
layers = (
{
layerId = "9CB754D2-AD8E-43A2-9483-C1400C56EABF";
paths = (
{
closed = 1;
nodes = (
"1899 1242 LINE",
"2016 1268 LINE",
"2016 1341 LINE",
"1582 1341 LINE",
"1582 1268 LINE",
"1751 1242 LINE",
"1514 445 LINE",
"1199 1227 LINE",
"1074 1227 LINE",
"760 443 LINE",
"474 1242 LINE",
"631 1268 LINE",
"631 1341 LINE",
"29 1341 LINE",
"29 1268 LINE",
"146 1242 LINE",
"590 -31 LINE",
"713 -31 LINE",
"1044 796 LINE",
"1378 -31 LINE",
"1501 -31 LINE"
);
}
);
width = 2048;
}
);
note = W;
unicode = 0057;
},
{
glyphname = X;
lastChange = "2019-12-20 14:30:44 +0000";
layers = (
{
layerId = "9CB754D2-AD8E-43A2-9483-C1400C56EABF";
paths = (
{
closed = 1;
nodes = (
"682 547 LINE",
"972 100 LINE",
"802 73 LINE",
"802 0 LINE",
"1455 0 LINE",
"1455 73 LINE",
"1303 100 LINE",
"864 779 LINE",
"1229 1242 LINE",
"1377 1268 LINE",
"1377 1341 LINE",
"918 1341 LINE",
"918 1268 LINE",
"1084 1242 LINE",
"799 880 LINE",
"565 1242 LINE",
"735 1268 LINE",
"735 1341 LINE",
"82 1341 LINE",
"82 1268 LINE",
"233 1242 LINE",
"617 648 LINE",
"186 100 LINE",
"38 73 LINE",
"38 0 LINE",
"496 0 LINE",
"496 73 LINE",
"330 100 LINE"
);
}
);
width = 1479;
}
);
note = X;
unicode = 0058;
},
{
glyphname = Y;
lastChange = "2019-12-20 14:30:44 +0000";
layers = (
{
layerId = "9CB754D2-AD8E-43A2-9483-C1400C56EABF";
paths = (
{
closed = 1;
nodes = (
"1298 1242 LINE",
"1440 1268 LINE",
"1440 1341 LINE",
"984 1341 LINE",
"984 1268 LINE",
"1148 1242 LINE",
"852 680 LINE",
"546 1242 LINE",
"726 1268 LINE",
"726 1341 LINE",
"36 1341 LINE",
"36 1268 LINE",
"187 1242 LINE",
"595 522 LINE",
"595 100 LINE",
"382 73 LINE",
"382 0 LINE",
"1124 0 LINE",
"1124 73 LINE",
"911 100 LINE",
"911 528 LINE"
);
}
);
width = 1479;
}
);
note = Y;
unicode = 0059;
},
{
glyphname = Z;
lastChange = "2019-12-20 14:30:44 +0000";
layers = (
{
layerId = "9CB754D2-AD8E-43A2-9483-C1400C56EABF";
paths = (
{
closed = 1;
nodes = (
"98 0 LINE",
"1235 0 LINE",
"1262 393 LINE",
"1172 393 LINE",
"1113 137 LINE",
"1064 126 OFFCURVE",
"843 104 OFFCURVE",
"729 104 QCURVE SMOOTH",
"449 104 LINE",
"1196 1235 LINE",
"1196 1341 LINE",
"160 1341 LINE",
"160 1004 LINE",
"249 1004 LINE",
"280 1215 LINE",
"373 1235 OFFCURVE",
"600 1235 QCURVE SMOOTH",
"840 1235 LINE",
"98 114 LINE"
);
}
);
width = 1366;
}
);
note = Z;
unicode = 005A;
},
{
glyphname = bracketleft;
lastChange = "2019-12-20 14:30:44 +0000";
layers = (
{
layerId = "9CB754D2-AD8E-43A2-9483-C1400C56EABF";
paths = (
{
closed = 1;
nodes = (
"608 -274 LINE",
"608 -207 LINE",
"405 -166 LINE",
"405 1313 LINE",
"608 1354 LINE",
"608 1421 LINE",
"152 1421 LINE",
"152 -274 LINE"
);
}
);
width = 682;
}
);
note = bracketleft;
unicode = 005B;
},
{
glyphname = backslash;
lastChange = "2019-12-20 14:30:44 +0000";
layers = (
{
layerId = "9CB754D2-AD8E-43A2-9483-C1400C56EABF";
paths = (
{
closed = 1;
nodes = (
"449 -20 LINE",
"590 -20 LINE",
"120 1349 LINE",
"-20 1349 LINE"
);
}
);
width = 569;
}
);
note = backslash;
unicode = 005C;
},
{
glyphname = bracketright;
lastChange = "2019-12-20 14:30:44 +0000";
layers = (
{
layerId = "9CB754D2-AD8E-43A2-9483-C1400C56EABF";
paths = (
{
closed = 1;
nodes = (
"530 -274 LINE",
"530 1421 LINE",
"74 1421 LINE",
"74 1354 LINE",
"277 1313 LINE",
"277 -166 LINE",
"74 -207 LINE",
"74 -274 LINE"
);
}
);
width = 682;
}
);
note = bracketright;
unicode = 005D;
},
{
glyphname = asciicircum;
lastChange = "2019-12-20 14:30:44 +0000";
layers = (
{
layerId = "9CB754D2-AD8E-43A2-9483-C1400C56EABF";
paths = (
{
closed = 1;
nodes = (
"1068 389 LINE",
"640 1341 LINE",
"550 1341 LINE",
"122 389 LINE",
"265 389 LINE",
"595 1150 LINE",
"925 389 LINE"
);
}
);
width = 1190;
}
);
note = asciicircum;
unicode = 005E;
},
{
glyphname = underscore;
lastChange = "2019-12-20 14:30:44 +0000";
layers = (
{
layerId = "9CB754D2-AD8E-43A2-9483-C1400C56EABF";
paths = (
{
closed = 1;
nodes = (
"1040 -285 LINE",
"1040 -141 LINE",
"-16 -141 LINE",
"-16 -285 LINE"
);
}
);
width = 1024;
}
);
note = underscore;
unicode = 005F;
},
{
glyphname = grave;
lastChange = "2019-12-20 14:30:44 +0000";
layers = (
{
layerId = "9CB754D2-AD8E-43A2-9483-C1400C56EABF";
paths = (
{
closed = 1;
nodes = (
"538 1118 LINE",
"538 1150 LINE",
"373 1423 LINE",
"88 1423 LINE",
"88 1386 LINE",
"452 1118 LINE"
);
}
);
width = 682;
}
);
note = grave;
unicode = 0060;
},
{
glyphname = a;
lastChange = "2019-12-20 14:30:44 +0000";
layers = (
{
layerId = "9CB754D2-AD8E-43A2-9483-C1400C56EABF";
paths = (
{
closed = 1;
nodes = (
"472 961 OFFCURVE",
"330 949 OFFCURVE",
"179 926 QCURVE",
"179 699 LINE",
"245 699 LINE",
"283 816 LINE",
"387 868 OFFCURVE",
"471 868 QCURVE SMOOTH",
"610 868 OFFCURVE",
"610 698 QCURVE SMOOTH",
"610 561 LINE",
"488 558 LINE SMOOTH",
"314 554 OFFCURVE",
"152 493 OFFCURVE",
"66 366 OFFCURVE",
"66 260 QCURVE SMOOTH",
"66 -20 OFFCURVE",
"357 -20 QCURVE SMOOTH",
"421 -20 OFFCURVE",
"547 19 OFFCURVE",
"625 72 QCURVE",
"647 0 LINE",
"993 0 LINE",
"993 66 LINE",
"899 90 LINE",
"899 701 LINE SMOOTH",
"899 961 OFFCURVE",
"546 961 QCURVE SMOOTH"
);
},
{
closed = 1;
nodes = (
"610 136 LINE",
"530 101 OFFCURVE",
"462 101 QCURVE SMOOTH",
"414 101 OFFCURVE",
"354 181 OFFCURVE",
"354 266 QCURVE SMOOTH",
"354 371 OFFCURVE",
"429 465 OFFCURVE",
"526 469 QCURVE SMOOTH",
"610 472 LINE"
);
}
);
width = 1024;
}
);
note = a;
unicode = 0061;
},
{
glyphname = b;
lastChange = "2019-12-20 14:30:44 +0000";
layers = (
{
layerId = "9CB754D2-AD8E-43A2-9483-C1400C56EABF";
paths = (
{
closed = 1;
nodes = (
"763 278 OFFCURVE",
"667 85 OFFCURVE",
"568 85 QCURVE SMOOTH",
"475 85 OFFCURVE",
"411 101 QCURVE",
"411 820 LINE",
"440 837 OFFCURVE",
"530 854 OFFCURVE",
"568 854 QCURVE SMOOTH",
"672 854 OFFCURVE",
"763 682 OFFCURVE",
"763 497 QCURVE SMOOTH"
);
},
{
closed = 1;
nodes = (
"122 48 LINE",
"434 -20 OFFCURVE",
"596 -20 QCURVE SMOOTH",
"815 -20 OFFCURVE",
"1056 254 OFFCURVE",
"1056 496 QCURVE SMOOTH",
"1056 741 OFFCURVE",
"868 965 OFFCURVE",
"664 965 QCURVE SMOOTH",
"592 965 OFFCURVE",
"441 920 OFFCURVE",
"401 887 QCURVE",
"411 983 OFFCURVE",
"411 1076 QCURVE SMOOTH",
"411 1421 LINE",
"26 1421 LINE",
"26 1356 LINE",
"122 1333 LINE"
);
}
);
width = 1139;
}
);
note = b;
unicode = 0062;
},
{
glyphname = c;
lastChange = "2019-12-20 14:30:44 +0000";
layers = (
{
layerId = "9CB754D2-AD8E-43A2-9483-C1400C56EABF";
paths = (
{
closed = 1;
nodes = (
"858 134 LINE",
"760 105 OFFCURVE",
"622 105 QCURVE SMOOTH",
"486 105 OFFCURVE",
"361 277 OFFCURVE",
"361 478 QCURVE SMOOTH",
"361 597 OFFCURVE",
"414 768 OFFCURVE",
"510 862 OFFCURVE",
"569 862 QCURVE SMOOTH",
"623 862 OFFCURVE",
"689 842 OFFCURVE",
"723 817 QCURVE",
"765 652 LINE",
"837 652 LINE",
"837 930 LINE",
"672 965 OFFCURVE",
"532 965 QCURVE SMOOTH",
"393 965 OFFCURVE",
"183 848 OFFCURVE",
"70 627 OFFCURVE",
"70 472 QCURVE SMOOTH",
"70 223 OFFCURVE",
"319 -19 OFFCURVE",
"570 -19 QCURVE SMOOTH",
"654 -19 OFFCURVE",
"813 21 OFFCURVE",
"858 57 QCURVE"
);
}
);
width = 909;
}
);
note = c;
unicode = 0063;
},
{
glyphname = d;
lastChange = "2019-12-20 14:30:44 +0000";
layers = (
{
layerId = "9CB754D2-AD8E-43A2-9483-C1400C56EABF";
paths = (
{
closed = 1;
nodes = (
"754 0 LINE",
"1116 0 LINE",
"1116 66 LINE",
"1013 90 LINE",
"1013 1421 LINE",
"628 1421 LINE",
"628 1355 LINE",
"724 1331 LINE",
"724 1093 LINE SMOOTH",
"724 971 OFFCURVE",
"730 938 QCURVE",
"619 965 OFFCURVE",
"510 965 QCURVE SMOOTH",
"302 965 OFFCURVE",
"83 711 OFFCURVE",
"83 467 QCURVE SMOOTH",
"83 219 OFFCURVE",
"287 -20 OFFCURVE",
"495 -20 QCURVE SMOOTH",
"541 -20 OFFCURVE",
"617 -6 OFFCURVE",
"677 17 OFFCURVE",
"733 53 QCURVE"
);
},
{
closed = 1;
nodes = (
"376 666 OFFCURVE",
"476 863 OFFCURVE",
"566 863 QCURVE SMOOTH",
"646 863 OFFCURVE",
"724 842 QCURVE",
"724 134 LINE",
"638 91 OFFCURVE",
"558 91 QCURVE SMOOTH",
"470 91 OFFCURVE",
"376 288 OFFCURVE",
"376 475 QCURVE SMOOTH"
);
}
);
width = 1139;
}
);
note = d;
unicode = 0064;
},
{
glyphname = e;
lastChange = "2019-12-20 14:30:44 +0000";
layers = (
{
layerId = "9CB754D2-AD8E-43A2-9483-C1400C56EABF";
paths = (
{
closed = 1;
nodes = (
"281 963 OFFCURVE",
"70 721 OFFCURVE",
"70 475 QCURVE SMOOTH",
"70 222 OFFCURVE",
"291 -19 OFFCURVE",
"522 -19 QCURVE SMOOTH",
"605 -19 OFFCURVE",
"780 24 OFFCURVE",
"835 57 QCURVE",
"835 134 LINE",
"701 105 OFFCURVE",
"613 105 QCURVE SMOOTH",
"519 105 OFFCURVE",
"411 171 OFFCURVE",
"363 297 OFFCURVE",
"363 446 QCURVE SMOOTH",
"363 462 LINE",
"856 462 LINE",
"856 544 LINE SMOOTH",
"856 759 OFFCURVE",
"685 963 OFFCURVE",
"494 963 QCURVE SMOOTH"
);
},
{
closed = 1;
nodes = (
"521 862 OFFCURVE",
"564 810 OFFCURVE",
"582 701 OFFCURVE",
"582 567 QCURVE",
"364 567 LINE",
"364 732 OFFCURVE",
"423 862 OFFCURVE",
"483 862 QCURVE SMOOTH"
);
}
);
width = 909;
}
);
note = e;
unicode = 0065;
},
{
glyphname = f;
lastChange = "2019-12-20 14:30:44 +0000";
layers = (
{
layerId = "9CB754D2-AD8E-43A2-9483-C1400C56EABF";
paths = (
{
closed = 1;
nodes = (
"157 90 LINE",
"55 66 LINE",
"55 0 LINE",
"599 0 LINE",
"599 66 LINE",
"446 90 LINE",
"446 836 LINE",
"637 836 LINE",
"637 940 LINE",
"446 940 LINE",
"446 1077 LINE SMOOTH",
"446 1332 OFFCURVE",
"546 1332 QCURVE SMOOTH",
"585 1332 OFFCURVE",
"609 1308 QCURVE",
"638 1199 LINE",
"702 1199 LINE",
"702 1423 LINE",
"635 1442 OFFCURVE",
"536 1442 QCURVE SMOOTH",
"353 1442 OFFCURVE",
"157 1237 OFFCURVE",
"157 1045 QCURVE SMOOTH",
"157 944 LINE",
"15 905 LINE",
"15 836 LINE",
"157 836 LINE"
);
}
);
width = 682;
}
);
note = f;
unicode = 0066;
},
{
glyphname = g;
lastChange = "2019-12-20 14:30:44 +0000";
layers = (
{
layerId = "9CB754D2-AD8E-43A2-9483-C1400C56EABF";
paths = (
{
closed = 1;
nodes = (
"90 157 LINE",
"90 94 OFFCURVE",
"173 -20 OFFCURVE",
"232 -43 QCURVE",
"127 -104 OFFCURVE",
"54 -188 OFFCURVE",
"54 -233 QCURVE SMOOTH",
"54 -335 OFFCURVE",
"278 -452 OFFCURVE",
"482 -452 QCURVE SMOOTH",
"654 -452 OFFCURVE",
"885 -364 OFFCURVE",
"1004 -207 OFFCURVE",
"1004 -98 QCURVE SMOOTH",
"1004 166 OFFCURVE",
"661 166 QCURVE SMOOTH",
"442 166 LINE SMOOTH",
"391 166 OFFCURVE",
"321 217 OFFCURVE",
"319 246 QCURVE",
"343 322 LINE",
"417 310 OFFCURVE",
"496 310 QCURVE SMOOTH",
"702 310 OFFCURVE",
"917 481 OFFCURVE",
"917 640 QCURVE SMOOTH",
"917 770 OFFCURVE",
"855 846 QCURVE",
"969 1008 LINE",
"934 1051 LINE",
"709 940 LINE",
"678 950 OFFCURVE",
"543 965 OFFCURVE",
"500 965 QCURVE SMOOTH",
"297 965 OFFCURVE",
"79 796 OFFCURVE",
"79 640 QCURVE SMOOTH",
"79 422 OFFCURVE",
"257 347 QCURVE"
);
},
{
closed = 1;
nodes = (
"785 -250 OFFCURVE",
"628 -344 OFFCURVE",
"483 -344 QCURVE SMOOTH",
"376 -344 OFFCURVE",
"253 -280 OFFCURVE",
"253 -216 QCURVE SMOOTH",
"253 -135 OFFCURVE",
"341 -71 QCURVE",
"658 -71 LINE SMOOTH",
"785 -71 OFFCURVE",
"785 -166 QCURVE SMOOTH"
);
},
{
closed = 1;
nodes = (
"424 410 OFFCURVE",
"362 525 OFFCURVE",
"362 640 QCURVE SMOOTH",
"362 755 OFFCURVE",
"425 864 OFFCURVE",
"494 864 QCURVE SMOOTH",
"569 864 OFFCURVE",
"634 755 OFFCURVE",
"634 640 QCURVE SMOOTH",
"634 525 OFFCURVE",
"568 410 OFFCURVE",
"494 410 QCURVE SMOOTH"
);
}
);
width = 1024;
}
);
note = g;
unicode = 0067;
},
{
glyphname = h;
lastChange = "2019-12-20 14:30:44 +0000";
layers = (
{
layerId = "9CB754D2-AD8E-43A2-9483-C1400C56EABF";
paths = (
{
closed = 1;
nodes = (
"436 1421 LINE",
"51 1421 LINE",
"51 1355 LINE",
"147 1331 LINE",
"147 90 LINE",
"55 66 LINE",
"55 0 LINE",
"522 0 LINE",
"522 66 LINE",
"436 90 LINE",
"436 793 LINE",
"512 827 OFFCURVE",
"588 827 QCURVE SMOOTH",
"654 827 OFFCURVE",
"725 733 OFFCURVE",
"725 649 QCURVE SMOOTH",
"725 90 LINE",
"641 66 LINE",
"641 0 LINE",
"1108 0 LINE",
"1108 66 LINE",
"1014 90 LINE",
"1014 688 LINE SMOOTH",
"1014 965 OFFCURVE",
"754 965 QCURVE SMOOTH",
"641 965 OFFCURVE",
"499 893 QCURVE SMOOTH",
"430 858 LINE",
"436 948 OFFCURVE",
"436 1014 QCURVE SMOOTH"
);
}
);
width = 1139;
}
);
note = h;
unicode = 0068;
},
{
glyphname = i;
lastChange = "2019-12-20 14:30:44 +0000";
layers = (
{
layerId = "9CB754D2-AD8E-43A2-9483-C1400C56EABF";
paths = (
{
closed = 1;
nodes = (
"436 940 LINE",
"51 940 LINE",
"51 874 LINE",
"147 850 LINE",
"147 90 LINE",
"45 66 LINE",
"45 0 LINE",
"539 0 LINE",
"539 66 LINE",
"436 90 LINE"
);
},
{
closed = 1;
nodes = (
"137 1203 OFFCURVE",
"227 1114 OFFCURVE",
"291 1114 QCURVE SMOOTH",
"356 1114 OFFCURVE",
"444 1205 OFFCURVE",
"444 1268 QCURVE SMOOTH",
"444 1332 OFFCURVE",
"355 1421 OFFCURVE",
"291 1421 QCURVE SMOOTH",
"228 1421 OFFCURVE",
"137 1333 OFFCURVE",
"137 1268 QCURVE SMOOTH"
);
}
);
width = 569;
}
);
note = i;
unicode = 0069;
},
{
glyphname = j;
lastChange = "2019-12-20 14:30:44 +0000";
layers = (
{
layerId = "9CB754D2-AD8E-43A2-9483-C1400C56EABF";
paths = (
{
closed = 1;
nodes = (
"553 1332 OFFCURVE",
"463 1421 OFFCURVE",
"400 1421 QCURVE SMOOTH",
"335 1421 OFFCURVE",
"246 1331 OFFCURVE",
"246 1268 QCURVE SMOOTH",
"246 1203 OFFCURVE",
"336 1114 OFFCURVE",
"400 1114 QCURVE SMOOTH",
"464 1114 OFFCURVE",
"553 1204 OFFCURVE",
"553 1268 QCURVE SMOOTH"
);
},
{
closed = 1;
nodes = (
"545 940 LINE",
"90 940 LINE",
"90 874 LINE",
"256 840 LINE",
"256 -71 LINE SMOOTH",
"256 -193 OFFCURVE",
"193 -326 OFFCURVE",
"139 -326 QCURVE SMOOTH",
"114 -326 OFFCURVE",
"90 -307 QCURVE",
"47 -193 LINE",
"-17 -193 LINE",
"-17 -418 LINE",
"66 -436 OFFCURVE",
"155 -436 QCURVE SMOOTH",
"342 -436 OFFCURVE",
"545 -227 OFFCURVE",
"545 -39 QCURVE SMOOTH"
);
}
);
width = 682;
}
);
note = j;
unicode = 006A;
},
{
glyphname = k;
lastChange = "2019-12-20 14:30:44 +0000";
layers = (
{
layerId = "9CB754D2-AD8E-43A2-9483-C1400C56EABF";
paths = (
{
closed = 1;
nodes = (
"436 1421 LINE",
"51 1421 LINE",
"51 1355 LINE",
"147 1331 LINE",
"147 90 LINE",
"58 66 LINE",
"58 0 LINE",
"529 0 LINE",
"529 66 LINE",
"436 90 LINE",
"436 339 LINE",
"551 419 LINE",
"739 90 LINE",
"684 66 LINE",
"684 0 LINE",
"1136 0 LINE",
"1136 66 LINE",
"1052 90 LINE",
"729 616 LINE",
"953 852 LINE",
"1061 874 LINE",
"1061 940 LINE",
"703 940 LINE",
"703 874 LINE",
"803 851 LINE",
"436 451 LINE"
);
}
);
width = 1139;
}
);
note = k;
unicode = 006B;
},
{
glyphname = l;
lastChange = "2019-12-20 14:30:44 +0000";
layers = (
{
layerId = "9CB754D2-AD8E-43A2-9483-C1400C56EABF";
paths = (
{
closed = 1;
nodes = (
"431 1421 LINE",
"46 1421 LINE",
"46 1355 LINE",
"142 1331 LINE",
"142 90 LINE",
"40 66 LINE",
"40 0 LINE",
"534 0 LINE",
"534 66 LINE",
"431 90 LINE"
);
}
);
width = 569;
}
);
note = l;
unicode = 006C;
},
{
glyphname = m;
lastChange = "2019-12-20 14:30:44 +0000";
layers = (
{
layerId = "9CB754D2-AD8E-43A2-9483-C1400C56EABF";
paths = (
{
closed = 1;
nodes = (
"420 940 LINE",
"55 940 LINE",
"55 874 LINE",
"147 850 LINE",
"147 90 LINE",
"55 66 LINE",
"55 0 LINE",
"522 0 LINE",
"522 66 LINE",
"436 90 LINE",
"436 788 LINE",
"521 827 OFFCURVE",
"587 827 QCURVE SMOOTH",
"653 827 OFFCURVE",
"718 733 OFFCURVE",
"718 649 QCURVE SMOOTH",
"718 90 LINE",
"634 66 LINE",
"634 0 LINE",
"1101 0 LINE",
"1101 66 LINE",
"1007 90 LINE",
"1007 688 LINE SMOOTH",
"1007 743 OFFCURVE",
"997 785 QCURVE",
"1083 827 OFFCURVE",
"1157 827 QCURVE SMOOTH",
"1223 827 OFFCURVE",
"1288 733 OFFCURVE",
"1288 649 QCURVE SMOOTH",
"1288 90 LINE",
"1204 66 LINE",
"1204 0 LINE",
"1671 0 LINE",
"1671 66 LINE",
"1577 90 LINE",
"1577 688 LINE SMOOTH",
"1577 965 OFFCURVE",
"1323 965 QCURVE SMOOTH",
"1182 965 OFFCURVE",
"977 843 QCURVE",
"921 965 OFFCURVE",
"753 965 QCURVE SMOOTH",
"642 965 OFFCURVE",
"502 893 QCURVE SMOOTH",
"434 858 LINE"
);
}
);
width = 1706;
}
);
note = m;
unicode = 006D;
},
{
glyphname = n;
lastChange = "2019-12-20 14:30:44 +0000";
layers = (
{
layerId = "9CB754D2-AD8E-43A2-9483-C1400C56EABF";
paths = (
{
closed = 1;
nodes = (
"420 940 LINE",
"55 940 LINE",
"55 874 LINE",
"147 850 LINE",
"147 90 LINE",
"55 66 LINE",
"55 0 LINE",
"522 0 LINE",
"522 66 LINE",
"436 90 LINE",
"436 793 LINE",
"512 827 OFFCURVE",
"588 827 QCURVE SMOOTH",
"654 827 OFFCURVE",
"725 733 OFFCURVE",
"725 649 QCURVE SMOOTH",
"725 90 LINE",
"641 66 LINE",
"641 0 LINE",
"1108 0 LINE",
"1108 66 LINE",
"1014 90 LINE",
"1014 688 LINE SMOOTH",
"1014 965 OFFCURVE",
"754 965 QCURVE SMOOTH",
"642 965 OFFCURVE",
"502 893 QCURVE SMOOTH",
"434 858 LINE"
);
}
);
width = 1139;
}
);
note = n;
unicode = 006E;
},
{
glyphname = o;
lastChange = "2019-12-20 14:30:44 +0000";
layers = (
{
layerId = "9CB754D2-AD8E-43A2-9483-C1400C56EABF";
paths = (
{
closed = 1;
nodes = (
"946 716 OFFCURVE",
"737 965 OFFCURVE",
"514 965 QCURVE SMOOTH",
"293 965 OFFCURVE",
"78 724 OFFCURVE",
"78 475 QCURVE SMOOTH",
"78 225 OFFCURVE",
"290 -20 OFFCURVE",
"506 -20 QCURVE SMOOTH",
"729 -20 OFFCURVE",
"946 222 OFFCURVE",
"946 475 QCURVE SMOOTH"
);
},
{
closed = 1;
nodes = (
"653 253 OFFCURVE",
"587 80 OFFCURVE",
"508 80 QCURVE SMOOTH",
"432 80 OFFCURVE",
"371 244 OFFCURVE",
"371 475 QCURVE SMOOTH",
"371 702 OFFCURVE",
"431 864 OFFCURVE",
"508 864 QCURVE SMOOTH",
"588 864 OFFCURVE",
"653 695 OFFCURVE",
"653 475 QCURVE SMOOTH"
);
}
);
width = 1024;
}
);
note = o;
unicode = 006F;
},
{
glyphname = p;
lastChange = "2019-12-20 14:30:44 +0000";
layers = (
{
layerId = "9CB754D2-AD8E-43A2-9483-C1400C56EABF";
paths = (
{
closed = 1;
nodes = (
"407 940 LINE",
"26 940 LINE",
"26 874 LINE",
"129 850 LINE",
"129 -346 LINE",
"27 -370 LINE",
"27 -436 LINE",
"556 -436 LINE",
"556 -370 LINE",
"418 -346 LINE",
"418 -141 LINE SMOOTH",
"418 -59 OFFCURVE",
"412 7 QCURVE",
"520 -20 OFFCURVE",
"626 -20 QCURVE SMOOTH",
"834 -20 OFFCURVE",
"1056 241 OFFCURVE",
"1056 487 QCURVE SMOOTH",
"1056 735 OFFCURVE",
"865 965 OFFCURVE",
"669 965 QCURVE SMOOTH",
"516 965 OFFCURVE",
"409 892 QCURVE"
);
},
{
closed = 1;
nodes = (
"763 86 OFFCURVE",
"587 86 QCURVE SMOOTH",
"499 86 OFFCURVE",
"418 107 QCURVE",
"418 816 LINE",
"496 854 OFFCURVE",
"589 854 QCURVE SMOOTH",
"763 854 OFFCURVE",
"763 480 QCURVE SMOOTH"
);
}
);
width = 1139;
}
);
note = p;
unicode = 0070;
},
{
glyphname = q;
lastChange = "2019-12-20 14:30:44 +0000";
layers = (
{
layerId = "9CB754D2-AD8E-43A2-9483-C1400C56EABF";
paths = (
{
closed = 1;
nodes = (
"377 660 OFFCURVE",
"475 862 OFFCURVE",
"577 862 QCURVE SMOOTH",
"661 862 OFFCURVE",
"729 845 QCURVE",
"729 129 LINE",
"700 112 OFFCURVE",
"615 91 OFFCURVE",
"577 91 QCURVE SMOOTH",
"470 91 OFFCURVE",
"377 268 OFFCURVE",
"377 448 QCURVE SMOOTH"
);
},
{
closed = 1;
nodes = (
"1018 985 LINE",
"927 985 LINE",
"808 942 LINE",
"601 965 OFFCURVE",
"529 965 QCURVE SMOOTH",
"309 965 OFFCURVE",
"84 715 OFFCURVE",
"84 474 QCURVE SMOOTH",
"84 227 OFFCURVE",
"285 -20 OFFCURVE",
"494 -20 QCURVE SMOOTH",
"641 -20 OFFCURVE",
"739 58 QCURVE",
"729 -38 OFFCURVE",
"729 -131 QCURVE SMOOTH",
"729 -346 LINE",
"591 -370 LINE",
"591 -436 LINE",
"1120 -436 LINE",
"1120 -370 LINE",
"1018 -346 LINE"
);
}
);
width = 1139;
}
);
note = q;
unicode = 0071;
},
{
glyphname = r;
lastChange = "2019-12-20 14:30:44 +0000";
layers = (
{
layerId = "9CB754D2-AD8E-43A2-9483-C1400C56EABF";
paths = (
{
closed = 1;
nodes = (
"450 940 LINE",
"55 940 LINE",
"55 874 LINE",
"177 850 LINE",
"177 90 LINE",
"55 66 LINE",
"55 0 LINE",
"617 0 LINE",
"617 66 LINE",
"466 90 LINE",
"466 661 LINE",
"527 698 OFFCURVE",
"687 753 OFFCURVE",
"750 753 QCURVE",
"809 627 LINE",
"865 627 LINE",
"865 970 LINE",
"811 970 LINE SMOOTH",
"740 970 OFFCURVE",
"569 865 OFFCURVE",
"461 745 QCURVE"
);
}
);
width = 909;
}
);
note = r;
unicode = 0072;
},
{
glyphname = s;
lastChange = "2019-12-20 14:30:44 +0000";
layers = (
{
layerId = "9CB754D2-AD8E-43A2-9483-C1400C56EABF";
paths = (
{
closed = 1;
nodes = (
"747 408 OFFCURVE",
"625 555 OFFCURVE",
"479 600 QCURVE SMOOTH",
"345 640 OFFCURVE",
"259 708 OFFCURVE",
"259 761 QCURVE SMOOTH",
"259 812 OFFCURVE",
"328 871 OFFCURVE",
"400 871 QCURVE SMOOTH",
"447 871 OFFCURVE",
"552 834 OFFCURVE",
"581 805 QCURVE",
"613 695 LINE",
"679 695 LINE",
"679 936 LINE",
"505 965 OFFCURVE",
"402 965 QCURVE SMOOTH",
"252 965 OFFCURVE",
"62 813 OFFCURVE",
"62 685 QCURVE SMOOTH",
"62 571 OFFCURVE",
"183 415 OFFCURVE",
"328 370 QCURVE SMOOTH",
"466 327 OFFCURVE",
"548 261 OFFCURVE",
"548 206 QCURVE SMOOTH",
"548 148 OFFCURVE",
"463 73 OFFCURVE",
"376 73 QCURVE SMOOTH",
"317 73 OFFCURVE",
"203 120 OFFCURVE",
"168 155 QCURVE",
"130 287 LINE",
"64 287 LINE",
"64 31 LINE",
"111 13 OFFCURVE",
"294 -20 OFFCURVE",
"370 -20 QCURVE SMOOTH",
"554 -20 OFFCURVE",
"747 141 OFFCURVE",
"747 298 QCURVE SMOOTH"
);
}
);
width = 797;
}
);
note = s;
unicode = 0073;
},
{
glyphname = t;
lastChange = "2019-12-20 14:30:44 +0000";
layers = (
{
layerId = "9CB754D2-AD8E-43A2-9483-C1400C56EABF";
paths = (
{
closed = 1;
nodes = (
"498 -20 OFFCURVE",
"643 14 OFFCURVE",
"673 35 QCURVE",
"673 120 LINE",
"596 104 OFFCURVE",
"543 104 QCURVE SMOOTH",
"499 104 OFFCURVE",
"445 170 OFFCURVE",
"445 235 QCURVE SMOOTH",
"445 836 LINE",
"643 836 LINE",
"643 940 LINE",
"445 940 LINE",
"445 1153 LINE",
"295 1153 LINE",
"178 940 LINE",
"33 901 LINE",
"33 836 LINE",
"156 836 LINE",
"156 217 LINE SMOOTH",
"156 102 OFFCURVE",
"303 -20 OFFCURVE",
"438 -20 QCURVE SMOOTH"
);
}
);
width = 682;
}
);
note = t;
unicode = 0074;
},
{
glyphname = u;
lastChange = "2019-12-20 14:30:44 +0000";
layers = (
{
layerId = "9CB754D2-AD8E-43A2-9483-C1400C56EABF";
paths = (
{
closed = 1;
nodes = (
"719 0 LINE",
"1084 0 LINE",
"1084 66 LINE",
"992 90 LINE",
"992 940 LINE",
"617 940 LINE",
"617 874 LINE",
"703 850 LINE",
"703 147 LINE",
"627 113 OFFCURVE",
"551 113 QCURVE SMOOTH",
"485 113 OFFCURVE",
"414 207 OFFCURVE",
"414 291 QCURVE SMOOTH",
"414 940 LINE",
"31 940 LINE",
"31 874 LINE",
"125 850 LINE",
"125 252 LINE SMOOTH",
"125 -25 OFFCURVE",
"385 -25 QCURVE SMOOTH",
"497 -25 OFFCURVE",
"637 47 QCURVE SMOOTH",
"705 82 LINE"
);
}
);
width = 1139;
}
);
note = u;
unicode = 0075;
},
{
glyphname = v;
lastChange = "2019-12-20 14:30:44 +0000";
layers = (
{
layerId = "9CB754D2-AD8E-43A2-9483-C1400C56EABF";
paths = (
{
closed = 1;
nodes = (
"956 854 LINE",
"1024 874 LINE",
"1024 940 LINE",
"717 940 LINE",
"717 874 LINE",
"827 850 LINE",
"610 312 LINE",
"369 848 LINE",
"481 874 LINE",
"481 940 LINE",
"0 940 LINE",
"0 874 LINE",
"66 850 LINE",
"459 -20 LINE",
"580 -20 LINE"
);
}
);
width = 1024;
}
);
note = v;
unicode = 0076;
},
{
glyphname = w;
lastChange = "2019-12-20 14:30:44 +0000";
layers = (
{
layerId = "9CB754D2-AD8E-43A2-9483-C1400C56EABF";
paths = (
{
closed = 1;
nodes = (
"779 846 LINE",
"561 311 LINE",
"359 848 LINE",
"471 874 LINE",
"471 940 LINE",
"6 940 LINE",
"6 874 LINE",
"76 850 LINE",
"409 -20 LINE",
"530 -20 LINE",
"744 507 LINE",
"959 -20 LINE",
"1080 -20 LINE",
"1396 854 LINE",
"1468 874 LINE",
"1468 940 LINE",
"1163 940 LINE",
"1163 874 LINE",
"1273 850 LINE",
"1091 311 LINE",
"874 846 LINE"
);
}
);
width = 1479;
}
);
note = w;
unicode = 0077;
},
{
glyphname = x;
lastChange = "2019-12-20 14:30:44 +0000";
layers = (
{
layerId = "9CB754D2-AD8E-43A2-9483-C1400C56EABF";
paths = (
{
closed = 1;
nodes = (
"122 850 LINE",
"392 433 LINE",
"92 81 LINE",
"8 65 LINE",
"8 0 LINE",
"328 0 LINE",
"328 65 LINE",
"234 86 LINE",
"452 341 LINE",
"616 88 LINE",
"511 65 LINE",
"511 0 LINE",
"1013 0 LINE",
"1013 65 LINE",
"923 86 LINE",
"625 544 LINE",
"889 854 LINE",
"972 875 LINE",
"972 940 LINE",
"652 940 LINE",
"652 875 LINE",
"746 850 LINE",
"565 637 LINE",
"428 848 LINE",
"533 875 LINE",
"533 940 LINE",
"31 940 LINE",
"31 875 LINE"
);
}
);
width = 1024;
}
);
note = x;
unicode = 0078;
},
{
glyphname = y;
lastChange = "2019-12-20 14:30:44 +0000";
layers = (
{
layerId = "9CB754D2-AD8E-43A2-9483-C1400C56EABF";
paths = (
{
closed = 1;
nodes = (
"418 -127 OFFCURVE",
"372 -226 OFFCURVE",
"321 -294 OFFCURVE",
"263 -330 OFFCURVE",
"225 -330 QCURVE SMOOTH",
"180 -330 OFFCURVE",
"151 -307 QCURVE",
"108 -181 LINE",
"48 -181 LINE",
"48 -423 LINE",
"132 -442 OFFCURVE",
"213 -442 QCURVE SMOOTH",
"288 -442 OFFCURVE",
"405 -369 OFFCURVE",
"501 -222 OFFCURVE",
"565 -59 QCURVE SMOOTH",
"936 854 LINE",
"1004 874 LINE",
"1004 940 LINE",
"697 940 LINE",
"697 874 LINE",
"807 850 LINE",
"610 328 LINE",
"389 848 LINE",
"501 874 LINE",
"501 940 LINE",
"20 940 LINE",
"20 874 LINE",
"86 850 LINE",
"462 -29 LINE"
);
}
);
width = 1024;
}
);
note = y;
unicode = 0079;
},
{
glyphname = z;
lastChange = "2019-12-20 14:30:44 +0000";
layers = (
{
layerId = "9CB754D2-AD8E-43A2-9483-C1400C56EABF";
paths = (
{
closed = 1;
nodes = (
"837 0 LINE",
"864 354 LINE",
"792 354 LINE",
"739 137 LINE",
"713 117 OFFCURVE",
"587 90 OFFCURVE",
"530 90 QCURVE SMOOTH",
"380 90 LINE",
"812 891 LINE",
"812 940 LINE",
"82 940 LINE",
"82 660 LINE",
"154 660 LINE",
"185 815 LINE",
"205 831 OFFCURVE",
"309 850 OFFCURVE",
"365 850 QCURVE SMOOTH",
"472 850 LINE",
"40 45 LINE",
"40 0 LINE"
);
}
);
width = 909;
}
);
note = z;
unicode = 007A;
},
{
glyphname = braceleft;
lastChange = "2019-12-20 14:30:44 +0000";
layers = (
{
layerId = "9CB754D2-AD8E-43A2-9483-C1400C56EABF";
paths = (
{
closed = 1;
nodes = (
"727 -274 LINE",
"727 -187 LINE",
"665 -187 LINE SMOOTH",
"596 -187 OFFCURVE",
"537 -98 OFFCURVE",
"537 -12 QCURVE SMOOTH",
"537 322 LINE SMOOTH",
"537 420 OFFCURVE",
"429 554 OFFCURVE",
"335 575 QCURVE",
"335 578 LINE",
"427 597 OFFCURVE",
"537 735 OFFCURVE",
"537 829 QCURVE SMOOTH",
"537 1159 LINE SMOOTH",
"537 1246 OFFCURVE",
"596 1334 OFFCURVE",
"665 1334 QCURVE SMOOTH",
"727 1334 LINE",
"727 1421 LINE",
"592 1421 LINE SMOOTH",
"437 1421 OFFCURVE",
"281 1269 OFFCURVE",
"281 1128 QCURVE SMOOTH",
"281 834 LINE SMOOTH",
"281 720 OFFCURVE",
"168 621 OFFCURVE",
"66 618 QCURVE",
"66 533 LINE",
"178 529 OFFCURVE",
"281 421 OFFCURVE",
"281 315 QCURVE SMOOTH",
"281 20 LINE SMOOTH",
"281 -120 OFFCURVE",
"442 -274 OFFCURVE",
"592 -274 QCURVE SMOOTH"
);
}
);
width = 807;
}
);
note = braceleft;
unicode = 007B;
},
{
glyphname = bar;
lastChange = "2019-12-20 14:30:44 +0000";
layers = (
{
layerId = "9CB754D2-AD8E-43A2-9483-C1400C56EABF";
paths = (
{
closed = 1;
nodes = (
"297 -442 LINE",
"297 1421 LINE",
"154 1421 LINE",
"154 -442 LINE"
);
}
);
width = 451;
}
);
note = bar;
unicode = 007C;
},
{
glyphname = braceright;
lastChange = "2019-12-20 14:30:44 +0000";
layers = (
{
layerId = "9CB754D2-AD8E-43A2-9483-C1400C56EABF";
paths = (
{
closed = 1;
nodes = (
"215 -274 LINE SMOOTH",
"364 -274 OFFCURVE",
"526 -120 OFFCURVE",
"526 20 QCURVE SMOOTH",
"526 315 LINE SMOOTH",
"526 420 OFFCURVE",
"628 529 OFFCURVE",
"741 533 QCURVE",
"741 618 LINE",
"639 621 OFFCURVE",
"526 720 OFFCURVE",
"526 834 QCURVE SMOOTH",
"526 1128 LINE SMOOTH",
"526 1269 OFFCURVE",
"370 1421 OFFCURVE",
"215 1421 QCURVE SMOOTH",
"80 1421 LINE",
"80 1334 LINE",
"142 1334 LINE SMOOTH",
"211 1334 OFFCURVE",
"270 1246 OFFCURVE",
"270 1159 QCURVE SMOOTH",
"270 829 LINE SMOOTH",
"270 732 OFFCURVE",
"380 597 OFFCURVE",
"472 578 QCURVE",
"472 575 LINE",
"378 554 OFFCURVE",
"270 420 OFFCURVE",
"270 322 QCURVE SMOOTH",
"270 -12 LINE SMOOTH",
"270 -98 OFFCURVE",
"211 -187 OFFCURVE",
"142 -187 QCURVE SMOOTH",
"80 -187 LINE",
"80 -274 LINE"
);
}
);
width = 807;
}
);
note = braceright;
unicode = 007D;
},
{
glyphname = asciitilde;
lastChange = "2019-12-20 14:30:44 +0000";
layers = (
{
layerId = "9CB754D2-AD8E-43A2-9483-C1400C56EABF";
paths = (
{
closed = 1;
nodes = (
"849 481 OFFCURVE",
"964 564 OFFCURVE",
"1032 715 OFFCURVE",
"1052 866 QCURVE",
"908 866 LINE",
"893 739 OFFCURVE",
"827 624 OFFCURVE",
"761 624 QCURVE SMOOTH",
"730 624 OFFCURVE",
"644 674 OFFCURVE",
"566 743 QCURVE SMOOTH",
"481 812 OFFCURVE",
"362 866 OFFCURVE",
"306 866 QCURVE SMOOTH",
"214 866 OFFCURVE",
"97 782 OFFCURVE",
"31 630 OFFCURVE",
"16 481 QCURVE",
"157 481 LINE",
"170 612 OFFCURVE",
"235 723 OFFCURVE",
"306 723 QCURVE SMOOTH",
"339 723 OFFCURVE",
"422 674 OFFCURVE",
"508 602 QCURVE SMOOTH",
"582 540 OFFCURVE",
"704 481 OFFCURVE",
"761 481 QCURVE SMOOTH"
);
}
);
width = 1065;
}
);
note = asciitilde;
unicode = 007E;
},
{
glyphname = dagger;
lastChange = "2019-12-20 14:30:44 +0000";
layers = (
{
layerId = "9CB754D2-AD8E-43A2-9483-C1400C56EABF";
paths = (
{
closed = 1;
nodes = (
"565 920 LINE",
"971 854 LINE",
"971 1090 LINE",
"565 1026 LINE",
"631 1421 LINE",
"393 1421 LINE",
"459 1026 LINE",
"53 1090 LINE",
"53 854 LINE",
"459 920 LINE",
"379 760 LINE",
"479 -240 LINE",
"545 -240 LINE",
"645 760 LINE"
);
}
);
width = 1024;
}
);
note = dagger;
unicode = 2020;
},
{
glyphname = degree;
lastChange = "2019-12-20 14:30:44 +0000";
layers = (
{
layerId = "9CB754D2-AD8E-43A2-9483-C1400C56EABF";
paths = (
{
closed = 1;
nodes = (
"98 921 OFFCURVE",
"278 741 OFFCURVE",
"408 741 QCURVE SMOOTH",
"490 741 OFFCURVE",
"634 822 OFFCURVE",
"719 967 OFFCURVE",
"719 1051 QCURVE SMOOTH",
"719 1135 OFFCURVE",
"635 1279 OFFCURVE",
"491 1362 OFFCURVE",
"408 1362 QCURVE SMOOTH",
"325 1362 OFFCURVE",
"180 1278 OFFCURVE",
"98 1134 OFFCURVE",
"98 1051 QCURVE SMOOTH"
);
},
{
closed = 1;
nodes = (
"489 1250 OFFCURVE",
"599 1135 OFFCURVE",
"599 1049 QCURVE SMOOTH",
"599 966 OFFCURVE",
"488 850 OFFCURVE",
"407 850 QCURVE SMOOTH",
"328 850 OFFCURVE",
"217 966 OFFCURVE",
"217 1049 QCURVE SMOOTH",
"217 1135 OFFCURVE",
"327 1250 OFFCURVE",
"407 1250 QCURVE SMOOTH"
);
}
);
width = 819;
}
);
note = degree;
unicode = 00B0;
},
{
glyphname = cent;
lastChange = "2019-12-20 14:30:44 +0000";
layers = (
{
layerId = "9CB754D2-AD8E-43A2-9483-C1400C56EABF";
paths = (
{
closed = 1;
nodes = (
"927 339 LINE",
"816 310 OFFCURVE",
"669 310 QCURVE",
"669 1064 LINE",
"729 1055 OFFCURVE",
"780 1022 QCURVE",
"834 857 LINE",
"906 857 LINE",
"906 1135 LINE",
"799 1156 OFFCURVE",
"669 1166 QCURVE",
"669 1341 LINE",
"577 1341 LINE",
"577 1170 LINE",
"575 1170 LINE SMOOTH",
"426 1170 OFFCURVE",
"207 1053 OFFCURVE",
"89 831 OFFCURVE",
"89 677 QCURVE SMOOTH",
"89 206 OFFCURVE",
"577 187 QCURVE",
"577 0 LINE",
"669 0 LINE",
"669 187 LINE",
"743 192 OFFCURVE",
"883 230 OFFCURVE",
"927 262 QCURVE"
);
},
{
closed = 1;
nodes = (
"380 842 OFFCURVE",
"485 1044 OFFCURVE",
"577 1063 QCURVE",
"577 320 LINE",
"476 343 OFFCURVE",
"380 518 OFFCURVE",
"380 683 QCURVE SMOOTH"
);
}
);
width = 1024;
}
);
note = cent;
unicode = 00A2;
},
{
glyphname = sterling;
lastChange = "2019-12-20 14:30:44 +0000";
layers = (
{
layerId = "9CB754D2-AD8E-43A2-9483-C1400C56EABF";
paths = (
{
closed = 1;
nodes = (
"360 222 LINE",
"396 267 OFFCURVE",
"450 383 OFFCURVE",
"450 467 QCURVE SMOOTH",
"450 531 OFFCURVE",
"436 620 QCURVE",
"674 620 LINE",
"674 721 LINE",
"423 721 LINE",
"397 872 OFFCURVE",
"397 1006 QCURVE SMOOTH",
"397 1255 OFFCURVE",
"576 1255 QCURVE SMOOTH",
"670 1255 OFFCURVE",
"757 1202 QCURVE",
"800 1008 LINE",
"887 1008 LINE",
"887 1313 LINE",
"760 1342 OFFCURVE",
"636 1356 OFFCURVE",
"576 1356 QCURVE SMOOTH",
"340 1356 OFFCURVE",
"103 1174 OFFCURVE",
"103 1006 QCURVE SMOOTH",
"103 872 OFFCURVE",
"170 721 QCURVE",
"82 721 LINE",
"82 620 LINE",
"245 620 LINE",
"268 568 OFFCURVE",
"301 475 OFFCURVE",
"301 430 QCURVE SMOOTH",
"301 305 OFFCURVE",
"158 185 QCURVE SMOOTH",
"87 123 LINE",
"87 0 LINE",
"960 0 LINE",
"960 223 LINE"
);
}
);
width = 1024;
}
);
note = sterling;
unicode = 00A3;
},
{
glyphname = section;
lastChange = "2019-12-20 14:30:44 +0000";
layers = (
{
layerId = "9CB754D2-AD8E-43A2-9483-C1400C56EABF";
paths = (
{
closed = 1;
nodes = (
"855 136 OFFCURVE",
"763 284 OFFCURVE",
"666 344 QCURVE",
"775 376 OFFCURVE",
"894 532 OFFCURVE",
"894 642 QCURVE SMOOTH",
"894 705 OFFCURVE",
"858 799 OFFCURVE",
"790 876 OFFCURVE",
"691 937 OFFCURVE",
"533 1006 QCURVE SMOOTH",
"446 1043 OFFCURVE",
"366 1129 OFFCURVE",
"366 1186 QCURVE SMOOTH",
"366 1237 OFFCURVE",
"435 1296 OFFCURVE",
"507 1296 QCURVE SMOOTH",
"554 1296 OFFCURVE",
"659 1259 OFFCURVE",
"688 1230 QCURVE",
"720 1120 LINE",
"786 1120 LINE",
"786 1361 LINE",
"612 1390 OFFCURVE",
"509 1390 QCURVE SMOOTH",
"359 1390 OFFCURVE",
"169 1238 OFFCURVE",
"169 1110 QCURVE SMOOTH",
"169 1019 OFFCURVE",
"254 885 OFFCURVE",
"348 834 QCURVE",
"246 804 OFFCURVE",
"130 660 OFFCURVE",
"130 560 QCURVE SMOOTH",
"130 485 OFFCURVE",
"185 368 OFFCURVE",
"285 276 OFFCURVE",
"392 220 QCURVE SMOOTH",
"488 170 LINE SMOOTH",
"570 127 OFFCURVE",
"653 30 OFFCURVE",
"653 -29 QCURVE SMOOTH",
"653 -87 OFFCURVE",
"565 -162 OFFCURVE",
"484 -162 QCURVE SMOOTH",
"429 -162 OFFCURVE",
"315 -114 OFFCURVE",
"276 -75 QCURVE",
"238 57 LINE",
"172 57 LINE",
"172 -204 LINE",
"219 -222 OFFCURVE",
"402 -255 OFFCURVE",
"478 -255 QCURVE SMOOTH",
"660 -255 OFFCURVE",
"855 -100 OFFCURVE",
"855 42 QCURVE SMOOTH"
);
},
{
closed = 1;
nodes = (
"692 519 OFFCURVE",
"607 426 OFFCURVE",
"541 414 QCURVE",
"443 466 OFFCURVE",
"367 526 OFFCURVE",
"327 594 OFFCURVE",
"327 636 QCURVE SMOOTH",
"327 683 OFFCURVE",
"417 766 OFFCURVE",
"481 774 QCURVE",
"578 732 OFFCURVE",
"653 678 OFFCURVE",
"692 614 OFFCURVE",
"692 571 QCURVE SMOOTH"
);
}
);
width = 1024;
}
);
note = section;
unicode = 00A7;
},
{
glyphname = bullet;
lastChange = "2019-12-20 14:30:44 +0000";
layers = (
{
layerId = "9CB754D2-AD8E-43A2-9483-C1400C56EABF";
paths = (
{
closed = 1;
nodes = (
"472 401 OFFCURVE",
"635 562 OFFCURVE",
"635 678 QCURVE SMOOTH",
"635 794 OFFCURVE",
"472 955 OFFCURVE",
"358 955 QCURVE SMOOTH",
"244 955 OFFCURVE",
"81 794 OFFCURVE",
"81 678 QCURVE SMOOTH",
"81 562 OFFCURVE",
"244 401 OFFCURVE",
"358 401 QCURVE SMOOTH"
);
}
);
width = 717;
}
);
note = bullet;
unicode = 2022;
},
{
glyphname = paragraph;
lastChange = "2019-12-20 14:30:44 +0000";
layers = (
{
layerId = "9CB754D2-AD8E-43A2-9483-C1400C56EABF";
paths = (
{
closed = 1;
nodes = (
"1019 1268 LINE",
"1019 1341 LINE",
"531 1341 LINE SMOOTH",
"323 1341 OFFCURVE",
"97 1138 OFFCURVE",
"97 952 QCURVE SMOOTH",
"97 767 OFFCURVE",
"327 552 OFFCURVE",
"521 545 QCURVE",
"521 -258 LINE",
"661 -258 LINE",
"661 1245 LINE",
"796 1245 LINE",
"796 -258 LINE",
"936 -258 LINE",
"936 1245 LINE"
);
}
);
width = 1106;
}
);
note = paragraph;
unicode = 00B6;
},
{
glyphname = germandbls;
lastChange = "2019-12-20 14:30:44 +0000";
layers = (
{
layerId = "9CB754D2-AD8E-43A2-9483-C1400C56EABF";
paths = (
{
closed = 1;
nodes = (
"537 721 OFFCURVE",
"572 607 OFFCURVE",
"656 489 OFFCURVE",
"698 448 QCURVE SMOOTH",
"772 377 OFFCURVE",
"834 274 OFFCURVE",
"834 216 QCURVE SMOOTH",
"834 158 OFFCURVE",
"770 75 OFFCURVE",
"721 73 QCURVE SMOOTH",
"711 73 LINE SMOOTH",
"643 73 OFFCURVE",
"600 127 QCURVE",
"562 269 LINE",
"496 269 LINE",
"496 21 LINE",
"525 6 OFFCURVE",
"672 -20 OFFCURVE",
"740 -20 QCURVE SMOOTH",
"902 -20 OFFCURVE",
"1088 139 OFFCURVE",
"1088 277 QCURVE SMOOTH",
"1088 335 OFFCURVE",
"1059 435 OFFCURVE",
"1001 518 OFFCURVE",
"913 607 QCURVE SMOOTH",
"841 680 OFFCURVE",
"786 785 OFFCURVE",
"786 841 QCURVE SMOOTH",
"786 911 OFFCURVE",
"892 985 OFFCURVE",
"995 985 QCURVE",
"983 1442 OFFCURVE",
"558 1442 QCURVE SMOOTH",
"339 1442 OFFCURVE",
"125 1203 OFFCURVE",
"125 952 QCURVE SMOOTH",
"125 90 LINE",
"43 66 LINE",
"43 0 LINE",
"414 0 LINE",
"414 952 LINE SMOOTH",
"414 1180 OFFCURVE",
"475 1341 OFFCURVE",
"552 1341 QCURVE SMOOTH",
"630 1341 OFFCURVE",
"700 1195 OFFCURVE",
"706 1046 QCURVE",
"627 1014 OFFCURVE",
"537 875 OFFCURVE",
"537 785 QCURVE SMOOTH"
);
}
);
width = 1139;
}
);
note = germandbls;
unicode = 00DF;
},
{
glyphname = registered;
lastChange = "2019-12-20 14:30:44 +0000";
layers = (
{
layerId = "9CB754D2-AD8E-43A2-9483-C1400C56EABF";
paths = (
{
closed = 1;
nodes = (
"1470 859 OFFCURVE",
"1285 1178 OFFCURVE",
"965 1362 OFFCURVE",
"778 1362 QCURVE SMOOTH",
"592 1362 OFFCURVE",
"275 1180 OFFCURVE",
"88 859 OFFCURVE",
"88 670 QCURVE SMOOTH",
"88 484 OFFCURVE",
"272 164 OFFCURVE",
"592 -20 OFFCURVE",
"778 -20 QCURVE SMOOTH",
"968 -20 OFFCURVE",
"1289 168 OFFCURVE",
"1470 485 OFFCURVE",
"1470 670 QCURVE SMOOTH"
);
},
{
closed = 1;
nodes = (
"1192 276 LINE",
"1192 334 LINE",
"1122 350 LINE",
"915 639 LINE",
"1003 667 OFFCURVE",
"1094 783 OFFCURVE",
"1094 860 QCURVE SMOOTH",
"1094 966 OFFCURVE",
"934 1081 OFFCURVE",
"778 1081 QCURVE SMOOTH",
"428 1081 LINE",
"428 1026 LINE",
"512 1010 LINE",
"512 350 LINE",
"436 334 LINE",
"436 276 LINE",
"782 276 LINE",
"782 334 LINE",
"688 350 LINE",
"688 619 LINE",
"737 619 LINE",
"967 276 LINE"
);
},
{
closed = 1;
nodes = (
"911 766 OFFCURVE",
"815 694 OFFCURVE",
"711 694 QCURVE SMOOTH",
"688 694 LINE",
"688 1006 LINE",
"707 1006 LINE SMOOTH",
"827 1006 OFFCURVE",
"911 940 OFFCURVE",
"911 858 QCURVE SMOOTH"
);
},
{
closed = 1;
nodes = (
"943 1278 OFFCURVE",
"1220 1113 OFFCURVE",
"1380 832 OFFCURVE",
"1380 670 QCURVE SMOOTH",
"1380 508 OFFCURVE",
"1217 224 OFFCURVE",
"938 63 OFFCURVE",
"778 63 QCURVE SMOOTH",
"616 63 OFFCURVE",
"339 224 OFFCURVE",
"178 507 OFFCURVE",
"178 670 QCURVE SMOOTH",
"178 834 OFFCURVE",
"339 1116 OFFCURVE",
"617 1278 OFFCURVE",
"778 1278 QCURVE SMOOTH"
);
}
);
width = 1530;
}
);
note = registered;
unicode = 00AE;
},
{
glyphname = copyright;
lastChange = "2019-12-20 14:30:44 +0000";
layers = (
{
layerId = "9CB754D2-AD8E-43A2-9483-C1400C56EABF";
paths = (
{
closed = 1;
nodes = (
"88 484 OFFCURVE",
"272 164 OFFCURVE",
"592 -20 OFFCURVE",
"778 -20 QCURVE SMOOTH",
"968 -20 OFFCURVE",
"1289 168 OFFCURVE",
"1470 485 OFFCURVE",
"1470 670 QCURVE SMOOTH",
"1470 859 OFFCURVE",
"1285 1178 OFFCURVE",
"965 1362 OFFCURVE",
"778 1362 QCURVE SMOOTH",
"592 1362 OFFCURVE",
"275 1180 OFFCURVE",
"88 859 OFFCURVE",
"88 670 QCURVE SMOOTH"
);
},
{
closed = 1;
nodes = (
"969 254 OFFCURVE",
"1096 293 QCURVE",
"1100 512 LINE",
"1030 512 LINE",
"1008 393 LINE",
"935 334 OFFCURVE",
"813 334 QCURVE SMOOTH",
"684 334 OFFCURVE",
"577 501 OFFCURVE",
"577 666 QCURVE SMOOTH",
"577 856 OFFCURVE",
"689 1008 OFFCURVE",
"819 1008 QCURVE SMOOTH",
"876 1008 OFFCURVE",
"958 982 OFFCURVE",
"999 957 QCURVE",
"1018 852 LINE",
"1087 852 LINE",
"1083 1059 LINE",
"933 1089 OFFCURVE",
"815 1089 QCURVE SMOOTH",
"608 1089 OFFCURVE",
"387 872 OFFCURVE",
"387 664 QCURVE SMOOTH",
"387 476 OFFCURVE",
"614 254 OFFCURVE",
"813 254 QCURVE SMOOTH"
);
},
{
closed = 1;
nodes = (
"943 1278 OFFCURVE",
"1220 1113 OFFCURVE",
"1380 832 OFFCURVE",
"1380 670 QCURVE SMOOTH",
"1380 508 OFFCURVE",
"1217 224 OFFCURVE",
"938 63 OFFCURVE",
"778 63 QCURVE SMOOTH",
"616 63 OFFCURVE",
"339 224 OFFCURVE",
"178 507 OFFCURVE",
"178 670 QCURVE SMOOTH",
"178 834 OFFCURVE",
"339 1116 OFFCURVE",
"617 1278 OFFCURVE",
"778 1278 QCURVE SMOOTH"
);
}
);
width = 1530;
}
);
note = copyright;
unicode = 00A9;
},
{
glyphname = trademark;
lastChange = "2019-12-20 14:30:44 +0000";
layers = (
{
layerId = "9CB754D2-AD8E-43A2-9483-C1400C56EABF";
paths = (
{
closed = 1;
nodes = (
"675 538 LINE",
"675 598 LINE",
"547 614 LINE",
"547 1274 LINE",
"577 1274 LINE SMOOTH",
"667 1274 OFFCURVE",
"738 1261 QCURVE",
"754 1112 LINE",
"825 1112 LINE",
"825 1343 LINE",
"83 1343 LINE",
"83 1112 LINE",
"154 1112 LINE",
"170 1261 LINE",
"222 1271 OFFCURVE",
"285 1275 OFFCURVE",
"327 1275 QCURVE SMOOTH",
"358 1275 LINE",
"358 614 LINE",
"230 598 LINE",
"230 538 LINE"
);
},
{
closed = 1;
nodes = (
"1679 1200 LINE",
"1679 614 LINE",
"1571 598 LINE",
"1571 538 LINE",
"1971 538 LINE",
"1971 598 LINE",
"1868 614 LINE",
"1868 1267 LINE",
"1971 1283 LINE",
"1971 1343 LINE",
"1649 1343 LINE",
"1431 848 LINE",
"1217 1343 LINE",
"882 1343 LINE",
"882 1283 LINE",
"985 1267 LINE",
"985 614 LINE",
"882 598 LINE",
"882 538 LINE",
"1178 538 LINE",
"1178 598 LINE",
"1075 614 LINE",
"1075 1183 LINE",
"1353 538 LINE",
"1386 538 LINE"
);
}
);
width = 2048;
}
);
note = trademark;
unicode = 2122;
},
{
glyphname = acute;
lastChange = "2019-12-20 14:30:44 +0000";
layers = (
{
layerId = "9CB754D2-AD8E-43A2-9483-C1400C56EABF";
paths = (
{
closed = 1;
nodes = (
"231 1118 LINE",
"596 1386 LINE",
"596 1423 LINE",
"311 1423 LINE",
"145 1151 LINE",
"145 1118 LINE"
);
}
);
width = 682;
}
);
note = acute;
unicode = 00B4;
},
{
glyphname = dieresis;
lastChange = "2019-12-20 14:30:44 +0000";
layers = (
{
layerId = "9CB754D2-AD8E-43A2-9483-C1400C56EABF";
paths = (
{
closed = 1;
nodes = (
"559 1130 OFFCURVE",
"629 1201 OFFCURVE",
"629 1251 QCURVE SMOOTH",
"629 1302 OFFCURVE",
"559 1370 OFFCURVE",
"510 1370 QCURVE SMOOTH",
"462 1370 OFFCURVE",
"389 1301 OFFCURVE",
"389 1251 QCURVE SMOOTH",
"389 1201 OFFCURVE",
"462 1130 OFFCURVE",
"510 1130 QCURVE SMOOTH"
);
},
{
closed = 1;
nodes = (
"223 1130 OFFCURVE",
"293 1201 OFFCURVE",
"293 1251 QCURVE SMOOTH",
"293 1299 OFFCURVE",
"223 1370 OFFCURVE",
"174 1370 QCURVE SMOOTH",
"125 1370 OFFCURVE",
"53 1299 OFFCURVE",
"53 1251 QCURVE SMOOTH",
"53 1204 OFFCURVE",
"126 1130 OFFCURVE",
"174 1130 QCURVE SMOOTH"
);
}
);
width = 682;
}
);
note = dieresis;
unicode = 00A8;
},
{
glyphname = notequal;
lastChange = "2019-12-20 14:30:44 +0000";
layers = (
{
layerId = "9CB754D2-AD8E-43A2-9483-C1400C56EABF";
paths = (
{
closed = 1;
nodes = (
"856 1220 LINE",
"671 956 LINE",
"86 956 LINE",
"86 813 LINE",
"571 813 LINE",
"385 547 LINE",
"86 547 LINE",
"86 403 LINE",
"285 403 LINE",
"101 140 LINE",
"254 140 LINE",
"438 403 LINE",
"1038 403 LINE",
"1038 547 LINE",
"538 547 LINE",
"724 813 LINE",
"1038 813 LINE",
"1038 956 LINE",
"824 956 LINE",
"1009 1220 LINE"
);
}
);
width = 1124;
}
);
note = notequal;
unicode = 2260;
},
{
glyphname = AE;
lastChange = "2019-12-20 14:30:44 +0000";
layers = (
{
layerId = "9CB754D2-AD8E-43A2-9483-C1400C56EABF";
paths = (
{
closed = 1;
nodes = (
"136 100 LINE",
"14 73 LINE",
"14 0 LINE",
"442 0 LINE",
"442 73 LINE",
"290 100 LINE",
"495 447 LINE",
"956 447 LINE",
"956 100 LINE",
"784 73 LINE",
"784 0 LINE",
"1923 0 LINE",
"1942 374 LINE",
"1851 374 LINE",
"1794 126 LINE",
"1714 110 OFFCURVE",
"1516 110 QCURVE SMOOTH",
"1271 110 LINE",
"1271 627 LINE",
"1554 627 LINE",
"1585 475 LINE",
"1674 475 LINE",
"1674 887 LINE",
"1585 887 LINE",
"1554 739 LINE",
"1271 739 LINE",
"1271 1231 LINE",
"1471 1231 LINE SMOOTH",
"1623 1231 OFFCURVE",
"1735 1217 QCURVE",
"1767 1000 LINE",
"1858 1000 LINE",
"1858 1341 LINE",
"684 1341 LINE",
"684 1270 LINE",
"827 1252 LINE"
);
},
{
closed = 1;
nodes = (
"560 557 LINE",
"956 1236 LINE",
"956 557 LINE"
);
}
);
width = 2048;
}
);
note = AE;
unicode = 00C6;
},
{
glyphname = Oslash;
lastChange = "2019-12-20 14:30:44 +0000";
layers = (
{
layerId = "9CB754D2-AD8E-43A2-9483-C1400C56EABF";
paths = (
{
closed = 1;
nodes = (
"127 -55 LINE",
"276 -55 LINE",
"383 75 LINE",
"549 -20 OFFCURVE",
"797 -20 QCURVE SMOOTH",
"1137 -20 OFFCURVE",
"1493 331 OFFCURVE",
"1493 672 QCURVE SMOOTH",
"1493 1021 OFFCURVE",
"1304 1194 QCURVE",
"1466 1391 LINE",
"1321 1391 LINE",
"1213 1261 LINE",
"1049 1356 OFFCURVE",
"797 1356 QCURVE SMOOTH",
"100 1356 OFFCURVE",
"100 672 QCURVE SMOOTH",
"100 319 OFFCURVE",
"291 144 QCURVE"
);
},
{
closed = 1;
nodes = (
"432 989 OFFCURVE",
"607 1255 OFFCURVE",
"797 1255 QCURVE SMOOTH",
"998 1255 OFFCURVE",
"1084 1104 QCURVE",
"463 353 LINE",
"432 473 OFFCURVE",
"432 672 QCURVE SMOOTH"
);
},
{
closed = 1;
nodes = (
"1161 354 OFFCURVE",
"986 80 OFFCURVE",
"797 80 QCURVE SMOOTH",
"597 80 OFFCURVE",
"511 231 QCURVE",
"1130 983 LINE",
"1161 866 OFFCURVE",
"1161 672 QCURVE SMOOTH"
);
}
);
width = 1593;
}
);
note = Oslash;
unicode = 00D8;
},
{
glyphname = infinity;
lastChange = "2019-12-20 14:30:44 +0000";
layers = (
{
layerId = "9CB754D2-AD8E-43A2-9483-C1400C56EABF";
paths = (
{
closed = 1;
nodes = (
"1402 765 OFFCURVE",
"1224 977 OFFCURVE",
"1079 977 QCURVE SMOOTH",
"971 977 OFFCURVE",
"809 850 OFFCURVE",
"743 725 QCURVE",
"680 851 OFFCURVE",
"496 983 OFFCURVE",
"385 983 QCURVE SMOOTH",
"240 983 OFFCURVE",
"57 764 OFFCURVE",
"57 596 QCURVE SMOOTH",
"57 420 OFFCURVE",
"240 209 OFFCURVE",
"385 209 QCURVE SMOOTH",
"481 209 OFFCURVE",
"650 340 OFFCURVE",
"716 467 QCURVE",
"863 203 OFFCURVE",
"1077 203 QCURVE SMOOTH",
"1216 203 OFFCURVE",
"1402 424 OFFCURVE",
"1402 590 QCURVE SMOOTH"
);
},
{
closed = 1;
nodes = (
"1199 872 OFFCURVE",
"1327 714 OFFCURVE",
"1327 592 QCURVE SMOOTH",
"1327 466 OFFCURVE",
"1200 307 OFFCURVE",
"1101 307 QCURVE SMOOTH",
"1012 307 OFFCURVE",
"873 449 OFFCURVE",
"811 590 QCURVE",
"877 732 OFFCURVE",
"1016 872 OFFCURVE",
"1099 872 QCURVE SMOOTH"
);
},
{
closed = 1;
nodes = (
"582 454 OFFCURVE",
"442 313 OFFCURVE",
"358 313 QCURVE SMOOTH",
"254 313 OFFCURVE",
"133 468 OFFCURVE",
"133 594 QCURVE SMOOTH",
"133 719 OFFCURVE",
"258 879 OFFCURVE",
"354 879 QCURVE SMOOTH",
"447 879 OFFCURVE",
"586 736 OFFCURVE",
"645 596 QCURVE"
);
}
);
width = 1460;
}
);
note = infinity;
unicode = 221E;
},
{
glyphname = plusminus;
lastChange = "2019-12-20 14:30:44 +0000";
layers = (
{
layerId = "9CB754D2-AD8E-43A2-9483-C1400C56EABF";
paths = (
{
closed = 1;
nodes = (
"1039 608 LINE",
"1039 752 LINE",
"633 752 LINE",
"633 1157 LINE",
"490 1157 LINE",
"490 752 LINE",
"86 752 LINE",
"86 608 LINE",
"490 608 LINE",
"490 203 LINE",
"633 203 LINE",
"633 608 LINE"
);
},
{
closed = 1;
nodes = (
"86 141 LINE",
"86 0 LINE",
"1039 0 LINE",
"1039 141 LINE"
);
}
);
width = 1124;
}
);
note = plusminus;
unicode = 00B1;
},
{
glyphname = lessequal;
lastChange = "2019-12-20 14:30:44 +0000";
layers = (
{
layerId = "9CB754D2-AD8E-43A2-9483-C1400C56EABF";
paths = (
{
closed = 1;
nodes = (
"1038 216 LINE",
"1038 359 LINE",
"271 730 LINE",
"1038 1100 LINE",
"1038 1243 LINE",
"86 775 LINE",
"86 685 LINE"
);
},
{
closed = 1;
nodes = (
"86 144 LINE",
"86 0 LINE",
"1038 0 LINE",
"1038 144 LINE"
);
}
);
width = 1124;
}
);
note = lessequal;
unicode = 2264;
},
{
glyphname = greaterequal;
lastChange = "2019-12-20 14:30:44 +0000";
layers = (
{
layerId = "9CB754D2-AD8E-43A2-9483-C1400C56EABF";
paths = (
{
closed = 1;
nodes = (
"86 144 LINE",
"86 0 LINE",
"1038 0 LINE",
"1038 144 LINE"
);
},
{
closed = 1;
nodes = (
"1040 685 LINE",
"1040 775 LINE",
"88 1243 LINE",
"88 1100 LINE",
"856 730 LINE",
"88 359 LINE",
"88 216 LINE"
);
}
);
width = 1124;
}
);
note = greaterequal;
unicode = 2265;
},
{
glyphname = yen;
lastChange = "2019-12-20 14:30:44 +0000";
layers = (
{
layerId = "9CB754D2-AD8E-43A2-9483-C1400C56EABF";
paths = (
{
closed = 1;
nodes = (
"86 1251 LINE",
"348 639 LINE",
"115 639 LINE",
"115 537 LINE",
"372 537 LINE",
"372 399 LINE",
"115 399 LINE",
"115 297 LINE",
"372 297 LINE",
"372 90 LINE",
"230 66 LINE",
"230 0 LINE",
"804 0 LINE",
"804 66 LINE",
"661 90 LINE",
"661 297 LINE",
"905 297 LINE",
"905 399 LINE",
"661 399 LINE",
"661 537 LINE",
"905 537 LINE",
"905 639 LINE",
"679 639 LINE",
"936 1255 LINE",
"1022 1275 LINE",
"1022 1341 LINE",
"697 1341 LINE",
"697 1275 LINE",
"807 1251 LINE",
"595 709 LINE",
"389 1249 LINE",
"501 1275 LINE",
"501 1341 LINE",
"2 1341 LINE",
"2 1275 LINE"
);
}
);
width = 1024;
}
);
note = yen;
unicode = 00A5;
},
{
glyphname = uni00B5;
lastChange = "2019-12-20 14:30:44 +0000";
layers = (
{
layerId = "9CB754D2-AD8E-43A2-9483-C1400C56EABF";
paths = (
{
closed = 1;
nodes = (
"787 0 LINE",
"1144 0 LINE",
"1144 65 LINE",
"1052 90 LINE",
"1052 940 LINE",
"677 940 LINE",
"677 874 LINE",
"763 849 LINE",
"763 193 LINE",
"668 114 OFFCURVE",
"573 114 QCURVE SMOOTH",
"494 114 OFFCURVE",
"418 197 OFFCURVE",
"418 288 QCURVE SMOOTH",
"418 940 LINE",
"35 940 LINE",
"35 874 LINE",
"129 849 LINE",
"129 103 LINE SMOOTH",
"129 -131 OFFCURVE",
"105 -391 QCURVE",
"105 -436 LINE",
"387 -436 LINE",
"400 -78 OFFCURVE",
"400 32 QCURVE",
"454 -20 OFFCURVE",
"544 -20 QCURVE SMOOTH",
"600 -20 OFFCURVE",
"705 29 OFFCURVE",
"768 92 QCURVE"
);
}
);
width = 1180;
}
);
note = uni00B5;
unicode = 00B5;
},
{
glyphname = partialdiff;
lastChange = "2019-12-20 14:30:44 +0000";
layers = (
{
layerId = "9CB754D2-AD8E-43A2-9483-C1400C56EABF";
paths = (
{
closed = 1;
nodes = (
"928 1200 OFFCURVE",
"732 1477 OFFCURVE",
"549 1477 QCURVE SMOOTH",
"471 1477 OFFCURVE",
"392 1442 QCURVE",
"287 1292 LINE",
"323 1259 LINE",
"444 1343 OFFCURVE",
"551 1343 QCURVE SMOOTH",
"693 1343 OFFCURVE",
"842 1101 OFFCURVE",
"842 874 QCURVE SMOOTH",
"838 758 LINE",
"834 758 LINE",
"800 841 OFFCURVE",
"657 940 OFFCURVE",
"564 940 QCURVE SMOOTH",
"428 940 OFFCURVE",
"208 789 OFFCURVE",
"68 487 OFFCURVE",
"68 332 QCURVE SMOOTH",
"68 160 OFFCURVE",
"236 -27 OFFCURVE",
"388 -27 QCURVE SMOOTH",
"512 -27 OFFCURVE",
"713 115 OFFCURVE",
"856 390 OFFCURVE",
"928 768 OFFCURVE",
"928 938 QCURVE SMOOTH"
);
},
{
closed = 1;
nodes = (
"791 466 OFFCURVE",
"679 184 OFFCURVE",
"532 43 OFFCURVE",
"451 43 QCURVE SMOOTH",
"362 43 OFFCURVE",
"258 181 OFFCURVE",
"258 305 QCURVE SMOOTH",
"258 444 OFFCURVE",
"355 718 OFFCURVE",
"505 856 OFFCURVE",
"596 856 QCURVE SMOOTH",
"674 856 OFFCURVE",
"795 735 OFFCURVE",
"813 643 QCURVE"
);
}
);
width = 1012;
}
);
note = partialdiff;
unicode = 2202;
},
{
glyphname = summation;
lastChange = "2019-12-20 14:30:44 +0000";
layers = (
{
layerId = "9CB754D2-AD8E-43A2-9483-C1400C56EABF";
paths = (
{
closed = 1;
nodes = (
"458 1232 LINE",
"857 1231 OFFCURVE",
"956 1227 OFFCURVE",
"1079 1220 OFFCURVE",
"1114 1217 QCURVE",
"1176 970 LINE",
"1262 970 LINE",
"1262 1341 LINE",
"137 1341 LINE",
"137 1232 LINE",
"665 480 LINE",
"92 -329 LINE",
"92 -436 LINE",
"1318 -436 LINE",
"1337 128 LINE",
"1251 128 LINE",
"1174 -160 LINE",
"1141 -167 OFFCURVE",
"842 -176 OFFCURVE",
"739 -176 QCURVE SMOOTH",
"357 -176 LINE",
"868 544 LINE",
"868 647 LINE"
);
}
);
width = 1460;
}
);
note = summation;
unicode = 2211;
},
{
glyphname = product;
lastChange = "2019-12-20 14:30:44 +0000";
layers = (
{
layerId = "9CB754D2-AD8E-43A2-9483-C1400C56EABF";
paths = (
{
closed = 1;
nodes = (
"747 -436 LINE",
"747 -362 LINE",
"575 -336 LINE",
"575 1231 LINE",
"1112 1231 LINE",
"1112 -336 LINE",
"940 -362 LINE",
"940 -436 LINE",
"1601 -436 LINE",
"1601 -362 LINE",
"1428 -336 LINE",
"1428 1241 LINE",
"1601 1268 LINE",
"1601 1341 LINE",
"88 1341 LINE",
"88 1268 LINE",
"260 1241 LINE",
"260 -336 LINE",
"88 -362 LINE",
"88 -436 LINE"
);
}
);
width = 1686;
}
);
note = product;
unicode = 220F;
},
{
glyphname = integral;
lastChange = "2019-12-20 14:30:44 +0000";
layers = (
{
layerId = "9CB754D2-AD8E-43A2-9483-C1400C56EABF";
paths = (
{
closed = 1;
nodes = (
"192 -166 LINE SMOOTH",
"192 -289 OFFCURVE",
"122 -446 OFFCURVE",
"69 -446 QCURVE SMOOTH",
"11 -446 OFFCURVE",
"-58 -377 QCURVE",
"-78 -377 LINE",
"-82 -400 OFFCURVE",
"-103 -495 OFFCURVE",
"-107 -508 QCURVE",
"-107 -516 LINE",
"-95 -526 OFFCURVE",
"-13 -549 OFFCURVE",
"16 -549 QCURVE SMOOTH",
"86 -549 OFFCURVE",
"241 -435 OFFCURVE",
"342 -247 OFFCURVE",
"348 -137 QCURVE SMOOTH",
"357 146 OFFCURVE",
"364 468 OFFCURVE",
"364 541 QCURVE SMOOTH",
"360 1079 LINE SMOOTH",
"360 1203 OFFCURVE",
"430 1360 OFFCURVE",
"483 1360 QCURVE SMOOTH",
"540 1360 OFFCURVE",
"610 1290 QCURVE",
"631 1290 LINE",
"647 1355 LINE",
"665 1421 LINE",
"665 1430 LINE",
"650 1442 OFFCURVE",
"561 1462 OFFCURVE",
"536 1462 QCURVE SMOOTH",
"466 1462 OFFCURVE",
"306 1342 OFFCURVE",
"207 1153 OFFCURVE",
"200 1047 QCURVE SMOOTH",
"186 774 OFFCURVE",
"186 506 QCURVE SMOOTH"
);
}
);
width = 561;
}
);
note = integral;
unicode = 222B;
},
{
glyphname = ordfeminine;
lastChange = "2019-12-20 14:30:44 +0000";
layers = (
{
layerId = "9CB754D2-AD8E-43A2-9483-C1400C56EABF";
paths = (
{
closed = 1;
nodes = (
"283 1362 OFFCURVE",
"200 1357 OFFCURVE",
"94 1341 QCURVE",
"94 1188 LINE",
"143 1188 LINE",
"166 1265 LINE",
"192 1278 OFFCURVE",
"235 1296 OFFCURVE",
"268 1296 QCURVE SMOOTH",
"310 1296 OFFCURVE",
"365 1246 OFFCURVE",
"365 1196 QCURVE SMOOTH",
"365 1127 LINE",
"303 1125 LINE SMOOTH",
"154 1122 OFFCURVE",
"28 1031 OFFCURVE",
"28 942 QCURVE SMOOTH",
"28 774 OFFCURVE",
"217 774 QCURVE SMOOTH",
"262 774 OFFCURVE",
"348 803 OFFCURVE",
"374 829 QCURVE",
"381 786 LINE",
"595 786 LINE",
"595 835 LINE",
"539 850 LINE",
"539 1186 LINE SMOOTH",
"539 1268 OFFCURVE",
"423 1362 OFFCURVE",
"323 1362 QCURVE SMOOTH"
);
},
{
closed = 1;
nodes = (
"365 883 LINE",
"311 856 OFFCURVE",
"264 856 QCURVE SMOOTH",
"201 856 OFFCURVE",
"201 945 QCURVE SMOOTH",
"201 1005 OFFCURVE",
"247 1060 OFFCURVE",
"309 1062 QCURVE SMOOTH",
"365 1064 LINE"
);
}
);
width = 614;
}
);
note = ordfeminine;
unicode = 00AA;
},
{
glyphname = ordmasculine;
lastChange = "2019-12-20 14:30:44 +0000";
layers = (
{
layerId = "9CB754D2-AD8E-43A2-9483-C1400C56EABF";
paths = (
{
closed = 1;
nodes = (
"618 1213 OFFCURVE",
"473 1361 OFFCURVE",
"338 1361 QCURVE SMOOTH",
"199 1361 OFFCURVE",
"57 1211 OFFCURVE",
"57 1067 QCURVE SMOOTH",
"57 921 OFFCURVE",
"199 770 OFFCURVE",
"334 770 QCURVE SMOOTH",
"477 770 OFFCURVE",
"618 923 OFFCURVE",
"618 1067 QCURVE SMOOTH"
);
},
{
closed = 1;
nodes = (
"442 949 OFFCURVE",
"389 840 OFFCURVE",
"335 840 QCURVE SMOOTH",
"282 840 OFFCURVE",
"233 949 OFFCURVE",
"233 1067 QCURVE SMOOTH",
"233 1184 OFFCURVE",
"282 1290 OFFCURVE",
"335 1290 QCURVE SMOOTH",
"442 1290 OFFCURVE",
"442 1067 QCURVE SMOOTH"
);
}
);
width = 676;
}
);
note = ordmasculine;
unicode = 00BA;
},
{
glyphname = uni2126;
lastChange = "2019-12-20 14:30:44 +0000";
layers = (
{
layerId = "9CB754D2-AD8E-43A2-9483-C1400C56EABF";
paths = (
{
closed = 1;
nodes = (
"978 1255 OFFCURVE",
"1182 1038 OFFCURVE",
"1182 837 QCURVE SMOOTH",
"1182 661 OFFCURVE",
"1033 454 OFFCURVE",
"890 432 QCURVE",
"867 0 LINE",
"1492 0 LINE",
"1515 384 LINE",
"1429 384 LINE",
"1368 256 LINE",
"1288 240 OFFCURVE",
"1110 240 QCURVE SMOOTH",
"1001 240 LINE",
"1006 345 LINE",
"1246 379 OFFCURVE",
"1514 635 OFFCURVE",
"1514 837 QCURVE SMOOTH",
"1514 1086 OFFCURVE",
"1135 1356 OFFCURVE",
"787 1356 QCURVE SMOOTH",
"438 1356 OFFCURVE",
"60 1085 OFFCURVE",
"60 837 QCURVE SMOOTH",
"60 635 OFFCURVE",
"328 379 OFFCURVE",
"568 345 QCURVE",
"573 240 LINE",
"464 240 LINE SMOOTH",
"286 240 OFFCURVE",
"206 256 QCURVE",
"145 384 LINE",
"59 384 LINE",
"82 0 LINE",
"707 0 LINE",
"684 432 LINE",
"542 454 OFFCURVE",
"392 660 OFFCURVE",
"392 837 QCURVE SMOOTH",
"392 1039 OFFCURVE",
"597 1255 OFFCURVE",
"787 1255 QCURVE SMOOTH"
);
}
);
width = 1573;
}
);
note = uni2126;
unicode = 2126;
},
{
glyphname = ae;
lastChange = "2019-12-20 14:30:44 +0000";
layers = (
{
layerId = "9CB754D2-AD8E-43A2-9483-C1400C56EABF";
paths = (
{
closed = 1;
nodes = (
"839 965 OFFCURVE",
"746 891 QCURVE",
"672 961 OFFCURVE",
"514 961 QCURVE SMOOTH",
"354 961 OFFCURVE",
"179 925 QCURVE",
"179 699 LINE",
"244 699 LINE",
"283 817 LINE",
"371 868 OFFCURVE",
"463 868 QCURVE SMOOTH",
"534 868 OFFCURVE",
"602 785 OFFCURVE",
"602 696 QCURVE SMOOTH",
"602 561 LINE",
"503 558 LINE SMOOTH",
"361 553 OFFCURVE",
"207 514 OFFCURVE",
"114 443 OFFCURVE",
"66 335 OFFCURVE",
"66 260 QCURVE SMOOTH",
"66 117 OFFCURVE",
"211 -20 OFFCURVE",
"355 -20 QCURVE SMOOTH",
"552 -20 OFFCURVE",
"710 105 QCURVE",
"763 44 OFFCURVE",
"934 -19 OFFCURVE",
"1070 -19 QCURVE SMOOTH",
"1148 -19 OFFCURVE",
"1308 23 OFFCURVE",
"1360 57 QCURVE",
"1360 134 LINE",
"1320 123 OFFCURVE",
"1195 105 OFFCURVE",
"1149 105 QCURVE SMOOTH",
"1052 105 OFFCURVE",
"936 171 OFFCURVE",
"880 293 OFFCURVE",
"878 409 QCURVE SMOOTH",
"878 462 LINE",
"1401 462 LINE",
"1401 544 LINE SMOOTH",
"1401 752 OFFCURVE",
"1193 965 OFFCURVE",
"988 965 QCURVE SMOOTH"
);
},
{
closed = 1;
nodes = (
"418 101 OFFCURVE",
"354 181 OFFCURVE",
"354 266 QCURVE SMOOTH",
"354 339 OFFCURVE",
"388 425 OFFCURVE",
"457 465 OFFCURVE",
"528 469 QCURVE SMOOTH",
"602 472 LINE",
"602 420 LINE SMOOTH",
"602 337 OFFCURVE",
"635 196 OFFCURVE",
"661 164 QCURVE",
"616 138 OFFCURVE",
"522 101 OFFCURVE",
"466 101 QCURVE SMOOTH"
);
},
{
closed = 1;
nodes = (
"1060 862 OFFCURVE",
"1107 734 OFFCURVE",
"1107 567 QCURVE",
"879 567 LINE",
"879 731 OFFCURVE",
"940 862 OFFCURVE",
"1004 862 QCURVE SMOOTH"
);
}
);
width = 1479;
}
);
note = ae;
unicode = 00E6;
},
{
glyphname = oslash;
lastChange = "2019-12-20 14:30:44 +0000";
layers = (
{
layerId = "9CB754D2-AD8E-43A2-9483-C1400C56EABF";
paths = (
{
closed = 1;
nodes = (
"70 -84 LINE",
"198 -84 LINE",
"275 30 LINE",
"369 -20 OFFCURVE",
"506 -20 QCURVE SMOOTH",
"729 -20 OFFCURVE",
"946 222 OFFCURVE",
"946 475 QCURVE SMOOTH",
"946 727 OFFCURVE",
"834 849 QCURVE",
"952 1022 LINE",
"828 1022 LINE",
"753 912 LINE",
"658 965 OFFCURVE",
"514 965 QCURVE SMOOTH",
"293 965 OFFCURVE",
"78 724 OFFCURVE",
"78 475 QCURVE SMOOTH",
"78 216 OFFCURVE",
"192 94 QCURVE"
);
},
{
closed = 1;
nodes = (
"371 702 OFFCURVE",
"431 864 OFFCURVE",
"508 864 QCURVE SMOOTH",
"559 864 OFFCURVE",
"618 801 OFFCURVE",
"633 738 QCURVE",
"373 358 LINE",
"371 414 LINE",
"371 475 LINE SMOOTH"
);
},
{
closed = 1;
nodes = (
"653 253 OFFCURVE",
"587 80 OFFCURVE",
"508 80 QCURVE SMOOTH",
"460 80 OFFCURVE",
"404 139 OFFCURVE",
"390 199 QCURVE",
"651 581 LINE",
"653 475 LINE SMOOTH"
);
}
);
width = 1024;
}
);
note = oslash;
unicode = 00F8;
},
{
glyphname = questiondown;
lastChange = "2019-12-20 14:30:44 +0000";
layers = (
{
layerId = "9CB754D2-AD8E-43A2-9483-C1400C56EABF";
paths = (
{
closed = 1;
nodes = (
"511 961 OFFCURVE",
"415 864 OFFCURVE",
"415 795 QCURVE SMOOTH",
"415 725 OFFCURVE",
"512 629 OFFCURVE",
"581 629 QCURVE SMOOTH",
"651 629 OFFCURVE",
"746 725 OFFCURVE",
"746 795 QCURVE SMOOTH",
"746 865 OFFCURVE",
"651 961 OFFCURVE",
"581 961 QCURVE SMOOTH"
);
},
{
closed = 1;
nodes = (
"508 340 LINE",
"421 316 LINE SMOOTH",
"279 276 OFFCURVE",
"124 76 OFFCURVE",
"124 -69 QCURVE SMOOTH",
"124 -424 OFFCURVE",
"578 -424 QCURVE SMOOTH",
"736 -424 OFFCURVE",
"902 -381 QCURVE",
"902 -86 LINE",
"813 -86 LINE",
"770 -280 LINE",
"705 -322 OFFCURVE",
"621 -322 QCURVE SMOOTH",
"509 -322 OFFCURVE",
"413 -199 OFFCURVE",
"413 -62 QCURVE SMOOTH",
"413 48 OFFCURVE",
"496 177 OFFCURVE",
"600 204 QCURVE SMOOTH",
"695 229 LINE",
"638 542 LINE",
"535 542 LINE"
);
}
);
width = 1024;
}
);
note = questiondown;
unicode = 00BF;
},
{
glyphname = exclamdown;
lastChange = "2019-12-20 14:30:44 +0000";
layers = (
{
layerId = "9CB754D2-AD8E-43A2-9483-C1400C56EABF";
paths = (
{
closed = 1;
nodes = (
"191 -409 LINE",
"490 -409 LINE",
"398 512 LINE",
"283 512 LINE"
);
},
{
closed = 1;
nodes = (
"270 961 OFFCURVE",
"174 864 OFFCURVE",
"174 795 QCURVE SMOOTH",
"174 725 OFFCURVE",
"271 629 OFFCURVE",
"340 629 QCURVE SMOOTH",
"410 629 OFFCURVE",
"506 726 OFFCURVE",
"506 795 QCURVE SMOOTH",
"506 865 OFFCURVE",
"409 961 OFFCURVE",
"340 961 QCURVE SMOOTH"
);
}
);
width = 682;
}
);
note = exclamdown;
unicode = 00A1;
},
{
glyphname = logicalnot;
lastChange = "2019-12-20 14:30:44 +0000";
layers = (
{
layerId = "9CB754D2-AD8E-43A2-9483-C1400C56EABF";
paths = (
{
closed = 1;
nodes = (
"102 752 LINE",
"102 608 LINE",
"913 608 LINE",
"913 203 LINE",
"1055 203 LINE",
"1055 752 LINE"
);
}
);
width = 1167;
}
);
note = logicalnot;
unicode = 00AC;
},
{
glyphname = radical;
lastChange = "2019-12-20 14:30:44 +0000";
layers = (
{
layerId = "9CB754D2-AD8E-43A2-9483-C1400C56EABF";
paths = (
{
closed = 1;
nodes = (
"1122 1620 LINE",
"1032 1620 LINE",
"580 158 LINE",
"322 895 LINE",
"51 895 LINE",
"51 815 LINE",
"219 815 LINE",
"516 -14 LINE",
"623 -14 LINE"
);
}
);
width = 1124;
}
);
note = radical;
unicode = 221A;
},
{
glyphname = florin;
lastChange = "2019-12-20 14:30:44 +0000";
layers = (
{
layerId = "9CB754D2-AD8E-43A2-9483-C1400C56EABF";
paths = (
{
closed = 1;
nodes = (
"349 -285 LINE",
"638 -285 LINE",
"638 692 LINE",
"819 692 LINE",
"819 796 LINE",
"638 796 LINE",
"638 997 LINE SMOOTH",
"638 1121 OFFCURVE",
"688 1252 OFFCURVE",
"738 1252 QCURVE SMOOTH",
"761 1252 OFFCURVE",
"792 1237 OFFCURVE",
"801 1228 QCURVE",
"830 1119 LINE",
"894 1119 LINE",
"894 1343 LINE",
"863 1352 OFFCURVE",
"768 1362 OFFCURVE",
"728 1362 QCURVE SMOOTH",
"545 1362 OFFCURVE",
"349 1157 OFFCURVE",
"349 965 QCURVE SMOOTH",
"349 800 LINE",
"197 761 LINE",
"197 692 LINE",
"349 692 LINE"
);
}
);
width = 1024;
}
);
note = florin;
unicode = 0192;
},
{
glyphname = uni2206;
lastChange = "2019-12-20 14:30:44 +0000";
layers = (
{
layerId = "9CB754D2-AD8E-43A2-9483-C1400C56EABF";
paths = (
{
closed = 1;
nodes = (
"1237 97 LINE",
"766 1352 LINE",
"476 1352 LINE",
"16 97 LINE",
"16 0 LINE",
"1237 0 LINE"
);
},
{
closed = 1;
nodes = (
"521 1148 LINE",
"905 119 LINE",
"152 119 LINE"
);
}
);
width = 1253;
}
);
note = uni2206;
unicode = 2206;
},
{
glyphname = guillemotleft;
lastChange = "2019-12-20 14:30:44 +0000";
layers = (
{
layerId = "9CB754D2-AD8E-43A2-9483-C1400C56EABF";
paths = (
{
closed = 1;
nodes = (
"106 430 LINE",
"436 74 LINE",
"537 74 LINE",
"354 463 LINE",
"537 852 LINE",
"436 852 LINE",
"106 496 LINE"
);
},
{
closed = 1;
nodes = (
"516 430 LINE",
"846 74 LINE",
"946 74 LINE",
"764 463 LINE",
"946 852 LINE",
"846 852 LINE",
"516 496 LINE"
);
}
);
width = 1024;
}
);
note = guillemotleft;
unicode = 00AB;
},
{
glyphname = guillemotright;
lastChange = "2019-12-20 14:30:44 +0000";
layers = (
{
layerId = "9CB754D2-AD8E-43A2-9483-C1400C56EABF";
paths = (
{
closed = 1;
nodes = (
"918 496 LINE",
"588 852 LINE",
"487 852 LINE",
"670 463 LINE",
"487 74 LINE",
"588 74 LINE",
"918 430 LINE"
);
},
{
closed = 1;
nodes = (
"508 496 LINE",
"178 852 LINE",
"78 852 LINE",
"260 463 LINE",
"78 74 LINE",
"178 74 LINE",
"508 430 LINE"
);
}
);
width = 1024;
}
);
note = guillemotright;
unicode = 00BB;
},
{
glyphname = ellipsis;
lastChange = "2019-12-20 14:30:44 +0000";
layers = (
{
layerId = "9CB754D2-AD8E-43A2-9483-C1400C56EABF";
paths = (
{
closed = 1;
nodes = (
"406 -29 OFFCURVE",
"502 68 OFFCURVE",
"502 137 QCURVE SMOOTH",
"502 207 OFFCURVE",
"405 303 OFFCURVE",
"336 303 QCURVE SMOOTH",
"266 303 OFFCURVE",
"170 206 OFFCURVE",
"170 137 QCURVE SMOOTH",
"170 67 OFFCURVE",
"267 -29 OFFCURVE",
"336 -29 QCURVE SMOOTH"
);
},
{
closed = 1;
nodes = (
"1096 -29 OFFCURVE",
"1192 68 OFFCURVE",
"1192 137 QCURVE SMOOTH",
"1192 207 OFFCURVE",
"1095 303 OFFCURVE",
"1026 303 QCURVE SMOOTH",
"956 303 OFFCURVE",
"860 206 OFFCURVE",
"860 137 QCURVE SMOOTH",
"860 67 OFFCURVE",
"957 -29 OFFCURVE",
"1026 -29 QCURVE SMOOTH"
);
},
{
closed = 1;
nodes = (
"1786 -29 OFFCURVE",
"1882 68 OFFCURVE",
"1882 137 QCURVE SMOOTH",
"1882 207 OFFCURVE",
"1785 303 OFFCURVE",
"1716 303 QCURVE SMOOTH",
"1646 303 OFFCURVE",
"1550 206 OFFCURVE",
"1550 137 QCURVE SMOOTH",
"1550 67 OFFCURVE",
"1647 -29 OFFCURVE",
"1716 -29 QCURVE SMOOTH"
);
}
);
width = 2048;
}
);
note = ellipsis;
unicode = 2026;
},
{
glyphname = OE;
lastChange = "2019-12-20 14:30:44 +0000";
layers = (
{
layerId = "9CB754D2-AD8E-43A2-9483-C1400C56EABF";
paths = (
{
closed = 1;
nodes = (
"113 336 OFFCURVE",
"468 -7 OFFCURVE",
"810 -7 QCURVE SMOOTH",
"870 -7 OFFCURVE",
"989 0 QCURVE",
"1924 0 LINE",
"1943 374 LINE",
"1852 374 LINE",
"1795 126 LINE",
"1758 119 OFFCURVE",
"1542 110 OFFCURVE",
"1445 110 QCURVE SMOOTH",
"1292 110 LINE",
"1292 627 LINE",
"1555 627 LINE",
"1586 475 LINE",
"1675 475 LINE",
"1675 887 LINE",
"1586 887 LINE",
"1555 739 LINE",
"1292 739 LINE",
"1292 1231 LINE",
"1400 1231 LINE SMOOTH",
"1624 1231 OFFCURVE",
"1736 1217 QCURVE",
"1768 1000 LINE",
"1859 1000 LINE",
"1859 1341 LINE",
"1006 1341 LINE",
"894 1349 OFFCURVE",
"810 1349 QCURVE SMOOTH",
"458 1349 OFFCURVE",
"113 1015 OFFCURVE",
"113 675 QCURVE SMOOTH"
);
},
{
closed = 1;
nodes = (
"445 986 OFFCURVE",
"617 1248 OFFCURVE",
"810 1248 QCURVE SMOOTH",
"916 1248 OFFCURVE",
"977 1229 QCURVE",
"977 112 LINE",
"920 93 OFFCURVE",
"810 93 QCURVE SMOOTH",
"619 93 OFFCURVE",
"445 359 OFFCURVE",
"445 675 QCURVE SMOOTH"
);
}
);
width = 2048;
}
);
note = OE;
unicode = 0152;
},
{
glyphname = oe;
lastChange = "2019-12-20 14:30:44 +0000";
layers = (
{
layerId = "9CB754D2-AD8E-43A2-9483-C1400C56EABF";
paths = (
{
closed = 1;
nodes = (
"859 963 OFFCURVE",
"763 843 QCURVE",
"667 965 OFFCURVE",
"479 965 QCURVE SMOOTH",
"260 965 OFFCURVE",
"48 727 OFFCURVE",
"48 475 QCURVE SMOOTH",
"48 225 OFFCURVE",
"256 -20 OFFCURVE",
"471 -20 QCURVE SMOOTH",
"677 -20 OFFCURVE",
"773 115 QCURVE",
"890 -19 OFFCURVE",
"1124 -19 QCURVE SMOOTH",
"1270 -19 OFFCURVE",
"1393 57 QCURVE",
"1393 134 LINE",
"1339 123 OFFCURVE",
"1236 105 OFFCURVE",
"1175 105 QCURVE SMOOTH",
"1075 105 OFFCURVE",
"961 173 OFFCURVE",
"909 301 OFFCURVE",
"909 446 QCURVE SMOOTH",
"909 462 LINE",
"1432 462 LINE",
"1432 544 LINE SMOOTH",
"1432 754 OFFCURVE",
"1247 963 OFFCURVE",
"1046 963 QCURVE SMOOTH"
);
},
{
closed = 1;
nodes = (
"613 240 OFFCURVE",
"550 80 OFFCURVE",
"473 80 QCURVE SMOOTH",
"422 80 OFFCURVE",
"366 149 OFFCURVE",
"341 297 OFFCURVE",
"341 475 QCURVE SMOOTH",
"341 647 OFFCURVE",
"365 795 OFFCURVE",
"421 864 OFFCURVE",
"473 864 QCURVE SMOOTH",
"550 864 OFFCURVE",
"613 706 OFFCURVE",
"613 475 QCURVE SMOOTH"
);
},
{
closed = 1;
nodes = (
"1076 862 OFFCURVE",
"1120 812 OFFCURVE",
"1138 710 OFFCURVE",
"1138 567 QCURVE",
"910 567 LINE",
"910 733 OFFCURVE",
"970 862 OFFCURVE",
"1035 862 QCURVE SMOOTH"
);
}
);
width = 1479;
}
);
note = oe;
unicode = 0153;
},
{
glyphname = endash;
lastChange = "2019-12-20 14:30:44 +0000";
layers = (
{
layerId = "9CB754D2-AD8E-43A2-9483-C1400C56EABF";
paths = (
{
closed = 1;
nodes = (
"-14 549 LINE",
"-14 406 LINE",
"1038 406 LINE",
"1038 549 LINE"
);
}
);
width = 1024;
}
);
note = endash;
unicode = 2013;
},
{
glyphname = emdash;
lastChange = "2019-12-20 14:30:44 +0000";
layers = (
{
layerId = "9CB754D2-AD8E-43A2-9483-C1400C56EABF";
paths = (
{
closed = 1;
nodes = (
"-14 549 LINE",
"-14 406 LINE",
"2062 406 LINE",
"2062 549 LINE"
);
}
);
width = 2048;
}
);
note = emdash;
unicode = 2014;
},
{
glyphname = quotedblleft;
lastChange = "2019-12-20 14:30:44 +0000";
layers = (
{
layerId = "9CB754D2-AD8E-43A2-9483-C1400C56EABF";
paths = (
{
closed = 1;
nodes = (
"99 852 OFFCURVE",
"211 743 OFFCURVE",
"296 743 QCURVE SMOOTH",
"369 743 OFFCURVE",
"458 816 OFFCURVE",
"458 877 QCURVE SMOOTH",
"458 960 OFFCURVE",
"381 1001 QCURVE SMOOTH",
"335 1025 OFFCURVE",
"304 1056 OFFCURVE",
"304 1079 QCURVE SMOOTH",
"304 1114 OFFCURVE",
"355 1191 OFFCURVE",
"444 1251 OFFCURVE",
"507 1270 QCURVE",
"507 1362 LINE",
"305 1308 OFFCURVE",
"99 1091 OFFCURVE",
"99 936 QCURVE SMOOTH"
);
},
{
closed = 1;
nodes = (
"549 852 OFFCURVE",
"661 743 OFFCURVE",
"746 743 QCURVE SMOOTH",
"819 743 OFFCURVE",
"908 816 OFFCURVE",
"908 877 QCURVE SMOOTH",
"908 960 OFFCURVE",
"831 1001 QCURVE SMOOTH",
"785 1025 OFFCURVE",
"754 1056 OFFCURVE",
"754 1079 QCURVE SMOOTH",
"754 1114 OFFCURVE",
"805 1191 OFFCURVE",
"894 1251 OFFCURVE",
"957 1270 QCURVE",
"957 1362 LINE",
"755 1308 OFFCURVE",
"549 1091 OFFCURVE",
"549 936 QCURVE SMOOTH"
);
}
);
width = 1024;
}
);
note = quotedblleft;
unicode = 201C;
},
{
glyphname = quotedblright;
lastChange = "2019-12-20 14:30:44 +0000";
layers = (
{
layerId = "9CB754D2-AD8E-43A2-9483-C1400C56EABF";
paths = (
{
closed = 1;
nodes = (
"932 1253 OFFCURVE",
"822 1362 OFFCURVE",
"738 1362 QCURVE SMOOTH",
"665 1362 OFFCURVE",
"576 1291 OFFCURVE",
"576 1229 QCURVE SMOOTH",
"576 1144 OFFCURVE",
"653 1105 QCURVE SMOOTH",
"692 1085 OFFCURVE",
"729 1050 OFFCURVE",
"729 1026 QCURVE SMOOTH",
"729 992 OFFCURVE",
"680 917 OFFCURVE",
"590 855 OFFCURVE",
"527 836 QCURVE",
"527 743 LINE",
"728 797 OFFCURVE",
"932 1011 OFFCURVE",
"932 1167 QCURVE SMOOTH"
);
},
{
closed = 1;
nodes = (
"484 1251 OFFCURVE",
"372 1362 OFFCURVE",
"288 1362 QCURVE SMOOTH",
"215 1362 OFFCURVE",
"126 1291 OFFCURVE",
"126 1229 QCURVE SMOOTH",
"126 1144 OFFCURVE",
"203 1105 QCURVE SMOOTH",
"242 1085 OFFCURVE",
"279 1050 OFFCURVE",
"279 1026 QCURVE SMOOTH",
"279 992 OFFCURVE",
"230 917 OFFCURVE",
"140 855 OFFCURVE",
"77 836 QCURVE",
"77 743 LINE",
"275 795 OFFCURVE",
"484 1012 OFFCURVE",
"484 1167 QCURVE SMOOTH"
);
}
);
width = 1024;
}
);
note = quotedblright;
unicode = 201D;
},
{
glyphname = quoteleft;
lastChange = "2019-12-20 14:30:44 +0000";
layers = (
{
layerId = "9CB754D2-AD8E-43A2-9483-C1400C56EABF";
paths = (
{
closed = 1;
nodes = (
"161 852 OFFCURVE",
"273 743 OFFCURVE",
"358 743 QCURVE SMOOTH",
"431 743 OFFCURVE",
"520 816 OFFCURVE",
"520 877 QCURVE SMOOTH",
"520 960 OFFCURVE",
"443 1001 QCURVE SMOOTH",
"397 1025 OFFCURVE",
"366 1056 OFFCURVE",
"366 1079 QCURVE SMOOTH",
"366 1114 OFFCURVE",
"417 1191 OFFCURVE",
"506 1251 OFFCURVE",
"569 1270 QCURVE",
"569 1362 LINE",
"367 1308 OFFCURVE",
"161 1091 OFFCURVE",
"161 936 QCURVE SMOOTH"
);
}
);
width = 682;
}
);
note = quoteleft;
unicode = 2018;
},
{
glyphname = quoteright;
lastChange = "2019-12-20 14:30:44 +0000";
layers = (
{
layerId = "9CB754D2-AD8E-43A2-9483-C1400C56EABF";
paths = (
{
closed = 1;
nodes = (
"535 1254 OFFCURVE",
"422 1362 OFFCURVE",
"338 1362 QCURVE SMOOTH",
"265 1362 OFFCURVE",
"178 1290 OFFCURVE",
"178 1229 QCURVE SMOOTH",
"178 1143 OFFCURVE",
"254 1105 QCURVE SMOOTH",
"292 1086 OFFCURVE",
"330 1050 OFFCURVE",
"330 1026 QCURVE SMOOTH",
"330 993 OFFCURVE",
"281 917 OFFCURVE",
"190 855 OFFCURVE",
"127 836 QCURVE",
"127 743 LINE",
"327 796 OFFCURVE",
"535 1010 OFFCURVE",
"535 1167 QCURVE SMOOTH"
);
}
);
width = 682;
}
);
note = quoteright;
unicode = 2019;
},
{
glyphname = divide;
lastChange = "2019-12-20 14:30:44 +0000";
layers = (
{
layerId = "9CB754D2-AD8E-43A2-9483-C1400C56EABF";
paths = (
{
closed = 1;
nodes = (
"86 751 LINE",
"86 608 LINE",
"1038 608 LINE",
"1038 751 LINE"
);
},
{
closed = 1;
nodes = (
"617 183 OFFCURVE",
"695 261 OFFCURVE",
"695 317 QCURVE SMOOTH",
"695 373 OFFCURVE",
"617 451 OFFCURVE",
"561 451 QCURVE SMOOTH",
"505 451 OFFCURVE",
"427 373 OFFCURVE",
"427 317 QCURVE SMOOTH",
"427 261 OFFCURVE",
"505 183 OFFCURVE",
"561 183 QCURVE SMOOTH"
);
},
{
closed = 1;
nodes = (
"617 909 OFFCURVE",
"695 987 OFFCURVE",
"695 1043 QCURVE SMOOTH",
"695 1099 OFFCURVE",
"617 1177 OFFCURVE",
"561 1177 QCURVE SMOOTH",
"505 1177 OFFCURVE",
"427 1099 OFFCURVE",
"427 1043 QCURVE SMOOTH",
"427 987 OFFCURVE",
"505 909 OFFCURVE",
"561 909 QCURVE SMOOTH"
);
}
);
width = 1124;
}
);
note = divide;
unicode = 00F7;
},
{
glyphname = lozenge;
lastChange = "2019-12-20 14:30:44 +0000";
layers = (
{
layerId = "9CB754D2-AD8E-43A2-9483-C1400C56EABF";
paths = (
{
closed = 1;
nodes = (
"1006 721 LINE",
"547 1440 LINE",
"465 1440 LINE",
"8 719 LINE",
"465 0 LINE",
"547 0 LINE"
);
},
{
closed = 1;
nodes = (
"860 721 LINE",
"508 147 LINE",
"154 721 LINE",
"508 1286 LINE"
);
}
);
width = 1012;
}
);
note = lozenge;
unicode = 25CA;
},
{
glyphname = fraction;
lastChange = "2019-12-20 14:30:44 +0000";
layers = (
{
layerId = "9CB754D2-AD8E-43A2-9483-C1400C56EABF";
paths = (
{
closed = 1;
nodes = (
"712 1341 LINE",
"592 1341 LINE",
"-373 0 LINE",
"-250 0 LINE"
);
}
);
width = 342;
}
);
note = fraction;
unicode = "2044,2215";
},
{
glyphname = Euro;
lastChange = "2019-12-20 14:30:44 +0000";
layers = (
{
layerId = "9CB754D2-AD8E-43A2-9483-C1400C56EABF";
paths = (
{
closed = 1;
nodes = (
"26 493 LINE",
"144 493 LINE",
"175 245 OFFCURVE",
"441 -20 OFFCURVE",
"661 -20 QCURVE SMOOTH",
"835 -20 OFFCURVE",
"997 30 QCURVE",
"1001 328 LINE",
"912 328 LINE",
"884 163 LINE",
"812 83 OFFCURVE",
"686 83 QCURVE SMOOTH",
"584 83 OFFCURVE",
"447 285 OFFCURVE",
"430 493 QCURVE",
"714 493 LINE",
"714 594 LINE",
"427 594 LINE",
"424 612 OFFCURVE",
"424 667 QCURVE SMOOTH",
"427 738 LINE",
"714 738 LINE",
"714 839 LINE",
"430 839 LINE",
"459 1253 OFFCURVE",
"678 1253 QCURVE SMOOTH",
"782 1253 OFFCURVE",
"866 1188 QCURVE",
"894 1038 LINE",
"983 1038 LINE",
"979 1323 LINE",
"894 1340 OFFCURVE",
"754 1356 OFFCURVE",
"653 1356 QCURVE SMOOTH",
"204 1356 OFFCURVE",
"144 839 QCURVE",
"26 839 LINE",
"26 738 LINE",
"136 738 LINE",
"134 699 LINE",
"134 661 LINE",
"136 594 LINE",
"26 594 LINE"
);
}
);
width = 1024;
}
);
note = Euro;
unicode = 20AC;
},
{
glyphname = guilsinglleft;
lastChange = "2019-12-20 14:30:44 +0000";
layers = (
{
layerId = "9CB754D2-AD8E-43A2-9483-C1400C56EABF";
paths = (
{
closed = 1;
nodes = (
"126 429 LINE",
"456 74 LINE",
"556 74 LINE",
"374 462 LINE",
"556 851 LINE",
"456 851 LINE",
"126 495 LINE"
);
}
);
width = 682;
}
);
note = guilsinglleft;
unicode = 2039;
},
{
glyphname = guilsinglright;
lastChange = "2019-12-20 14:30:44 +0000";
layers = (
{
layerId = "9CB754D2-AD8E-43A2-9483-C1400C56EABF";
paths = (
{
closed = 1;
nodes = (
"556 496 LINE",
"226 852 LINE",
"126 852 LINE",
"308 463 LINE",
"126 74 LINE",
"226 74 LINE",
"556 430 LINE"
);
}
);
width = 682;
}
);
note = guilsinglright;
unicode = 203A;
},
{
glyphname = uniFB01;
lastChange = "2019-12-20 14:30:44 +0000";
layers = (
{
layerId = "9CB754D2-AD8E-43A2-9483-C1400C56EABF";
paths = (
{
closed = 1;
nodes = (
"1026 940 LINE",
"446 940 LINE",
"446 1057 LINE SMOOTH",
"446 1332 OFFCURVE",
"651 1332 QCURVE SMOOTH",
"695 1332 OFFCURVE",
"765 1302 OFFCURVE",
"782 1286 QCURVE",
"821 1172 LINE",
"885 1172 LINE",
"885 1406 LINE",
"853 1418 OFFCURVE",
"698 1442 OFFCURVE",
"636 1442 QCURVE SMOOTH",
"412 1442 OFFCURVE",
"157 1221 OFFCURVE",
"157 1025 QCURVE SMOOTH",
"157 944 LINE",
"15 905 LINE",
"15 836 LINE",
"157 836 LINE",
"157 90 LINE",
"55 66 LINE",
"55 0 LINE",
"549 0 LINE",
"549 66 LINE",
"446 90 LINE",
"446 836 LINE",
"737 836 LINE",
"737 90 LINE",
"635 66 LINE",
"635 0 LINE",
"1129 0 LINE",
"1129 66 LINE",
"1026 90 LINE"
);
}
);
width = 1139;
}
);
note = uniFB01;
unicode = "F001,FB01";
},
{
glyphname = uniFB02;
lastChange = "2019-12-20 14:30:44 +0000";
layers = (
{
layerId = "9CB754D2-AD8E-43A2-9483-C1400C56EABF";
paths = (
{
closed = 1;
nodes = (
"157 90 LINE",
"55 66 LINE",
"55 0 LINE",
"559 0 LINE",
"559 66 LINE",
"446 90 LINE",
"446 836 LINE",
"637 836 LINE",
"637 940 LINE",
"446 940 LINE",
"446 1087 LINE SMOOTH",
"446 1203 OFFCURVE",
"509 1332 OFFCURVE",
"570 1332 QCURVE SMOOTH",
"642 1332 OFFCURVE",
"728 1287 QCURVE",
"728 90 LINE",
"626 66 LINE",
"626 0 LINE",
"1120 0 LINE",
"1120 66 LINE",
"1017 90 LINE",
"1017 1421 LINE",
"802 1421 LINE",
"613 1442 OFFCURVE",
"546 1442 QCURVE SMOOTH",
"360 1442 OFFCURVE",
"157 1235 OFFCURVE",
"157 1045 QCURVE SMOOTH",
"157 944 LINE",
"15 905 LINE",
"15 836 LINE",
"157 836 LINE"
);
}
);
width = 1139;
}
);
note = uniFB02;
unicode = "F002,FB02";
},
{
glyphname = daggerdbl;
lastChange = "2019-12-20 14:30:44 +0000";
layers = (
{
layerId = "9CB754D2-AD8E-43A2-9483-C1400C56EABF";
paths = (
{
closed = 1;
nodes = (
"971 92 LINE",
"971 330 LINE",
"565 262 LINE",
"651 412 LINE",
"555 590 LINE",
"651 770 LINE",
"565 920 LINE",
"971 854 LINE",
"971 1090 LINE",
"565 1026 LINE",
"633 1421 LINE",
"395 1421 LINE",
"459 1026 LINE",
"53 1090 LINE",
"53 854 LINE",
"459 920 LINE",
"377 770 LINE",
"469 590 LINE",
"377 412 LINE",
"459 262 LINE",
"53 330 LINE",
"53 92 LINE",
"459 156 LINE",
"395 -240 LINE",
"633 -240 LINE",
"565 156 LINE"
);
}
);
width = 1024;
}
);
note = daggerdbl;
unicode = 2021;
},
{
glyphname = periodcentered;
lastChange = "2019-12-20 14:30:44 +0000";
layers = (
{
layerId = "9CB754D2-AD8E-43A2-9483-C1400C56EABF";
paths = (
{
closed = 1;
nodes = (
"326 511 OFFCURVE",
"422 608 OFFCURVE",
"422 677 QCURVE SMOOTH",
"422 747 OFFCURVE",
"325 843 OFFCURVE",
"256 843 QCURVE SMOOTH",
"186 843 OFFCURVE",
"90 746 OFFCURVE",
"90 677 QCURVE SMOOTH",
"90 607 OFFCURVE",
"187 511 OFFCURVE",
"256 511 QCURVE SMOOTH"
);
}
);
width = 512;
}
);
note = periodcentered;
unicode = 2219;
},
{
glyphname = quotesinglbase;
lastChange = "2019-12-20 14:30:44 +0000";
layers = (
{
layerId = "9CB754D2-AD8E-43A2-9483-C1400C56EABF";
paths = (
{
closed = 1;
nodes = (
"524 191 OFFCURVE",
"413 301 OFFCURVE",
"328 301 QCURVE SMOOTH",
"255 301 OFFCURVE",
"168 229 OFFCURVE",
"168 168 QCURVE SMOOTH",
"168 84 OFFCURVE",
"244 44 QCURVE SMOOTH",
"289 19 OFFCURVE",
"319 -13 OFFCURVE",
"319 -35 QCURVE SMOOTH",
"319 -69 OFFCURVE",
"270 -144 OFFCURVE",
"180 -206 OFFCURVE",
"117 -225 QCURVE",
"117 -317 LINE",
"524 -210 OFFCURVE",
"524 106 QCURVE SMOOTH"
);
}
);
width = 682;
}
);
note = quotesinglbase;
unicode = 201A;
},
{
glyphname = quotedblbase;
lastChange = "2019-12-20 14:30:44 +0000";
layers = (
{
layerId = "9CB754D2-AD8E-43A2-9483-C1400C56EABF";
paths = (
{
closed = 1;
nodes = (
"916 191 OFFCURVE",
"805 301 OFFCURVE",
"720 301 QCURVE SMOOTH",
"650 301 OFFCURVE",
"560 233 OFFCURVE",
"560 168 QCURVE SMOOTH",
"560 84 OFFCURVE",
"636 44 QCURVE SMOOTH",
"681 19 OFFCURVE",
"711 -13 OFFCURVE",
"711 -35 QCURVE SMOOTH",
"711 -69 OFFCURVE",
"662 -144 OFFCURVE",
"572 -206 OFFCURVE",
"509 -225 QCURVE",
"509 -317 LINE",
"916 -210 OFFCURVE",
"916 106 QCURVE SMOOTH"
);
},
{
closed = 1;
nodes = (
"466 191 OFFCURVE",
"355 301 OFFCURVE",
"270 301 QCURVE SMOOTH",
"200 301 OFFCURVE",
"110 233 OFFCURVE",
"110 168 QCURVE SMOOTH",
"110 84 OFFCURVE",
"186 44 QCURVE SMOOTH",
"231 19 OFFCURVE",
"261 -13 OFFCURVE",
"261 -35 QCURVE SMOOTH",
"261 -69 OFFCURVE",
"212 -144 OFFCURVE",
"122 -206 OFFCURVE",
"59 -225 QCURVE",
"59 -317 LINE",
"466 -209 OFFCURVE",
"466 106 QCURVE SMOOTH"
);
}
);
width = 1024;
}
);
note = quotedblbase;
unicode = 201E;
},
{
glyphname = perthousand;
lastChange = "2019-12-20 14:30:44 +0000";
layers = (
{
layerId = "9CB754D2-AD8E-43A2-9483-C1400C56EABF";
paths = (
{
closed = 1;
nodes = (
"1241 1362 LINE",
"1090 1362 LINE",
"142 -20 LINE",
"292 -20 LINE"
);
},
{
closed = 1;
nodes = (
"654 1364 OFFCURVE",
"349 1364 QCURVE SMOOTH",
"42 1364 OFFCURVE",
"42 1015 QCURVE SMOOTH",
"42 662 OFFCURVE",
"344 662 QCURVE SMOOTH",
"654 662 OFFCURVE",
"654 1015 QCURVE SMOOTH"
);
},
{
closed = 1;
nodes = (
"449 871 OFFCURVE",
"398 750 OFFCURVE",
"344 750 QCURVE SMOOTH",
"293 750 OFFCURVE",
"246 866 OFFCURVE",
"246 1015 QCURVE SMOOTH",
"246 1163 OFFCURVE",
"293 1275 OFFCURVE",
"344 1275 QCURVE SMOOTH",
"399 1275 OFFCURVE",
"449 1155 OFFCURVE",
"449 1015 QCURVE SMOOTH"
);
},
{
closed = 1;
nodes = (
"1335 673 OFFCURVE",
"1030 673 QCURVE SMOOTH",
"723 673 OFFCURVE",
"723 324 QCURVE SMOOTH",
"723 -29 OFFCURVE",
"1025 -29 QCURVE SMOOTH",
"1335 -29 OFFCURVE",
"1335 324 QCURVE SMOOTH"
);
},
{
closed = 1;
nodes = (
"1130 180 OFFCURVE",
"1079 59 OFFCURVE",
"1025 59 QCURVE SMOOTH",
"974 59 OFFCURVE",
"927 175 OFFCURVE",
"927 324 QCURVE SMOOTH",
"927 472 OFFCURVE",
"974 584 OFFCURVE",
"1025 584 QCURVE SMOOTH",
"1080 584 OFFCURVE",
"1130 464 OFFCURVE",
"1130 324 QCURVE SMOOTH"
);
},
{
closed = 1;
nodes = (
"2005 673 OFFCURVE",
"1700 673 QCURVE SMOOTH",
"1393 673 OFFCURVE",
"1393 324 QCURVE SMOOTH",
"1393 -29 OFFCURVE",
"1695 -29 QCURVE SMOOTH",
"2005 -29 OFFCURVE",
"2005 324 QCURVE SMOOTH"
);
},
{
closed = 1;
nodes = (
"1800 180 OFFCURVE",
"1749 59 OFFCURVE",
"1695 59 QCURVE SMOOTH",
"1644 59 OFFCURVE",
"1597 175 OFFCURVE",
"1597 324 QCURVE SMOOTH",
"1597 472 OFFCURVE",
"1644 584 OFFCURVE",
"1695 584 QCURVE SMOOTH",
"1750 584 OFFCURVE",
"1800 464 OFFCURVE",
"1800 324 QCURVE SMOOTH"
);
}
);
width = 2048;
}
);
note = perthousand;
unicode = 2030;
},
{
glyphname = dotlessi;
lastChange = "2019-12-20 14:30:44 +0000";
layers = (
{
layerId = "9CB754D2-AD8E-43A2-9483-C1400C56EABF";
paths = (
{
closed = 1;
nodes = (
"436 940 LINE",
"51 940 LINE",
"51 874 LINE",
"147 850 LINE",
"147 90 LINE",
"45 66 LINE",
"45 0 LINE",
"539 0 LINE",
"539 66 LINE",
"436 90 LINE"
);
}
);
width = 569;
}
);
note = dotlessi;
unicode = 0131;
},
{
glyphname = circumflex;
lastChange = "2019-12-20 14:30:44 +0000";
layers = (
{
layerId = "9CB754D2-AD8E-43A2-9483-C1400C56EABF";
paths = (
{
closed = 1;
nodes = (
"94 1118 LINE",
"342 1280 LINE",
"590 1118 LINE",
"666 1118 LINE",
"666 1151 LINE",
"449 1444 LINE",
"236 1444 LINE",
"18 1151 LINE",
"18 1118 LINE"
);
}
);
width = 682;
}
);
note = circumflex;
unicode = 02C6;
},
{
glyphname = tilde;
lastChange = "2019-12-20 14:30:44 +0000";
layers = (
{
layerId = "9CB754D2-AD8E-43A2-9483-C1400C56EABF";
paths = (
{
closed = 1;
nodes = (
"564 1120 OFFCURVE",
"669 1254 OFFCURVE",
"680 1406 QCURVE",
"575 1406 LINE",
"563 1337 OFFCURVE",
"548 1307 OFFCURVE",
"525 1294 OFFCURVE",
"506 1294 QCURVE SMOOTH",
"478 1294 OFFCURVE",
"417 1339 QCURVE SMOOTH",
"347 1389 OFFCURVE",
"268 1425 OFFCURVE",
"219 1425 QCURVE SMOOTH",
"122 1425 OFFCURVE",
"15 1292 OFFCURVE",
"4 1138 QCURVE",
"109 1138 LINE",
"118 1208 OFFCURVE",
"144 1253 OFFCURVE",
"178 1253 QCURVE SMOOTH",
"211 1253 OFFCURVE",
"268 1208 QCURVE SMOOTH",
"380 1120 OFFCURVE",
"465 1120 QCURVE SMOOTH"
);
}
);
width = 682;
}
);
note = tilde;
unicode = 02DC;
},
{
glyphname = uni02C9;
lastChange = "2019-12-20 14:30:44 +0000";
layers = (
{
layerId = "9CB754D2-AD8E-43A2-9483-C1400C56EABF";
paths = (
{
closed = 1;
nodes = (
"655 1121 LINE",
"655 1271 LINE",
"27 1271 LINE",
"27 1121 LINE"
);
}
);
width = 682;
}
);
note = uni02C9;
unicode = 02C9;
},
{
glyphname = breve;
lastChange = "2019-12-20 14:30:44 +0000";
layers = (
{
layerId = "9CB754D2-AD8E-43A2-9483-C1400C56EABF";
paths = (
{
closed = 1;
nodes = (
"479 1120 OFFCURVE",
"636 1285 OFFCURVE",
"641 1443 QCURVE",
"540 1443 LINE",
"519 1362 OFFCURVE",
"427 1292 OFFCURVE",
"340 1292 QCURVE SMOOTH",
"259 1292 OFFCURVE",
"157 1360 OFFCURVE",
"140 1443 QCURVE",
"39 1443 LINE",
"41 1290 OFFCURVE",
"199 1120 OFFCURVE",
"340 1120 QCURVE SMOOTH"
);
}
);
width = 682;
}
);
note = breve;
unicode = 02D8;
},
{
glyphname = dotaccent;
lastChange = "2019-12-20 14:30:44 +0000";
layers = (
{
layerId = "9CB754D2-AD8E-43A2-9483-C1400C56EABF";
paths = (
{
closed = 1;
nodes = (
"189 1203 OFFCURVE",
"279 1114 OFFCURVE",
"343 1114 QCURVE SMOOTH",
"408 1114 OFFCURVE",
"496 1205 OFFCURVE",
"496 1268 QCURVE SMOOTH",
"496 1332 OFFCURVE",
"407 1421 OFFCURVE",
"343 1421 QCURVE SMOOTH",
"280 1421 OFFCURVE",
"189 1333 OFFCURVE",
"189 1268 QCURVE SMOOTH"
);
}
);
width = 682;
}
);
note = dotaccent;
unicode = 02D9;
},
{
glyphname = ring;
lastChange = "2019-12-20 14:30:44 +0000";
layers = (
{
layerId = "9CB754D2-AD8E-43A2-9483-C1400C56EABF";
paths = (
{
closed = 1;
nodes = (
"430 1059 OFFCURVE",
"553 1183 OFFCURVE",
"553 1272 QCURVE SMOOTH",
"553 1362 OFFCURVE",
"430 1483 OFFCURVE",
"342 1483 QCURVE SMOOTH",
"254 1483 OFFCURVE",
"131 1362 OFFCURVE",
"131 1272 QCURVE SMOOTH",
"131 1182 OFFCURVE",
"255 1059 OFFCURVE",
"342 1059 QCURVE SMOOTH"
);
},
{
closed = 1;
nodes = (
"380 1371 OFFCURVE",
"440 1312 OFFCURVE",
"440 1272 QCURVE SMOOTH",
"440 1233 OFFCURVE",
"381 1174 OFFCURVE",
"342 1174 QCURVE SMOOTH",
"303 1174 OFFCURVE",
"244 1233 OFFCURVE",
"244 1272 QCURVE SMOOTH",
"244 1312 OFFCURVE",
"303 1371 OFFCURVE",
"342 1371 QCURVE SMOOTH"
);
}
);
width = 682;
}
);
note = ring;
unicode = 02DA;
},
{
glyphname = cedilla;
lastChange = "2019-12-20 14:30:44 +0000";
layers = (
{
layerId = "9CB754D2-AD8E-43A2-9483-C1400C56EABF";
paths = (
{
closed = 1;
nodes = (
"399 -422 OFFCURVE",
"543 -315 OFFCURVE",
"543 -221 QCURVE SMOOTH",
"543 -80 OFFCURVE",
"358 -53 QCURVE",
"381 57 LINE",
"270 57 LINE",
"219 -138 LINE",
"288 -143 OFFCURVE",
"350 -190 OFFCURVE",
"350 -234 QCURVE SMOOTH",
"350 -320 OFFCURVE",
"258 -320 QCURVE SMOOTH",
"195 -320 OFFCURVE",
"123 -301 QCURVE",
"123 -391 LINE",
"193 -422 OFFCURVE",
"283 -422 QCURVE SMOOTH"
);
}
);
width = 682;
}
);
note = cedilla;
unicode = 00B8;
},
{
glyphname = hungarumlaut;
lastChange = "2019-12-20 14:30:44 +0000";
layers = (
{
layerId = "9CB754D2-AD8E-43A2-9483-C1400C56EABF";
paths = (
{
closed = 1;
nodes = (
"68 1118 LINE",
"360 1407 LINE",
"360 1444 LINE",
"109 1444 LINE",
"-29 1151 LINE",
"-29 1118 LINE"
);
},
{
closed = 1;
nodes = (
"418 1118 LINE",
"711 1407 LINE",
"711 1444 LINE",
"459 1444 LINE",
"322 1151 LINE",
"322 1118 LINE"
);
}
);
width = 682;
}
);
note = hungarumlaut;
unicode = 02DD;
},
{
glyphname = ogonek;
lastChange = "2019-12-20 14:30:44 +0000";
layers = (
{
layerId = "9CB754D2-AD8E-43A2-9483-C1400C56EABF";
paths = (
{
closed = 1;
nodes = (
"456 -430 OFFCURVE",
"547 -376 QCURVE",
"547 -291 LINE",
"469 -320 OFFCURVE",
"409 -320 QCURVE SMOOTH",
"355 -320 OFFCURVE",
"297 -257 OFFCURVE",
"297 -199 QCURVE SMOOTH",
"297 -92 OFFCURVE",
"371 14 QCURVE",
"244 14 LINE",
"184 -24 OFFCURVE",
"111 -146 OFFCURVE",
"111 -215 QCURVE SMOOTH",
"111 -317 OFFCURVE",
"233 -430 OFFCURVE",
"346 -430 QCURVE SMOOTH"
);
}
);
width = 682;
}
);
note = ogonek;
unicode = 02DB;
},
{
glyphname = caron;
lastChange = "2019-12-20 14:30:44 +0000";
layers = (
{
layerId = "9CB754D2-AD8E-43A2-9483-C1400C56EABF";
paths = (
{
closed = 1;
nodes = (
"590 1444 LINE",
"342 1282 LINE",
"94 1444 LINE",
"18 1444 LINE",
"18 1411 LINE",
"235 1118 LINE",
"448 1118 LINE",
"666 1411 LINE",
"666 1444 LINE"
);
}
);
width = 682;
}
);
note = caron;
unicode = 02C7;
},
{
glyphname = Lslash;
lastChange = "2019-12-20 14:30:44 +0000";
layers = (
{
layerId = "9CB754D2-AD8E-43A2-9483-C1400C56EABF";
paths = (
{
closed = 1;
nodes = (
"43 538 LINE",
"43 402 LINE",
"207 497 LINE",
"207 100 LINE",
"35 74 LINE",
"35 0 LINE",
"1241 0 LINE",
"1280 406 LINE",
"1190 406 LINE",
"1108 127 LINE",
"1000 106 OFFCURVE",
"795 106 QCURVE SMOOTH",
"522 106 LINE",
"522 679 LINE",
"761 817 LINE",
"761 951 LINE",
"522 813 LINE",
"522 1241 LINE",
"729 1268 LINE",
"729 1341 LINE",
"37 1341 LINE",
"37 1268 LINE",
"207 1241 LINE",
"207 632 LINE"
);
}
);
width = 1366;
}
);
note = Lslash;
unicode = 0141;
},
{
glyphname = lslash;
lastChange = "2019-12-20 14:30:44 +0000";
layers = (
{
layerId = "9CB754D2-AD8E-43A2-9483-C1400C56EABF";
paths = (
{
closed = 1;
nodes = (
"20 407 LINE",
"142 478 LINE",
"142 90 LINE",
"40 66 LINE",
"40 0 LINE",
"534 0 LINE",
"534 66 LINE",
"431 90 LINE",
"431 645 LINE",
"559 720 LINE",
"559 844 LINE",
"431 770 LINE",
"431 1421 LINE",
"46 1421 LINE",
"46 1355 LINE",
"142 1331 LINE",
"142 603 LINE",
"20 533 LINE"
);
}
);
width = 569;
}
);
note = lslash;
unicode = 0142;
},
{
glyphname = brokenbar;
lastChange = "2019-12-20 14:30:44 +0000";
layers = (
{
layerId = "9CB754D2-AD8E-43A2-9483-C1400C56EABF";
paths = (
{
closed = 1;
nodes = (
"296 801 LINE",
"296 1421 LINE",
"154 1421 LINE",
"154 801 LINE"
);
},
{
closed = 1;
nodes = (
"296 -442 LINE",
"296 180 LINE",
"154 180 LINE",
"154 -442 LINE"
);
}
);
width = 451;
}
);
note = brokenbar;
unicode = 00A6;
},
{
glyphname = Eth;
lastChange = "2019-12-20 14:30:44 +0000";
layers = (
{
layerId = "9CB754D2-AD8E-43A2-9483-C1400C56EABF";
paths = (
{
closed = 1;
nodes = (
"58 1341 LINE",
"58 1268 LINE",
"230 1242 LINE",
"230 731 LINE",
"51 731 LINE",
"51 609 LINE",
"230 609 LINE",
"230 100 LINE",
"80 73 LINE",
"80 0 LINE",
"737 -4 LINE SMOOTH",
"1071 -4 OFFCURVE",
"1401 333 OFFCURVE",
"1401 678 QCURVE SMOOTH",
"1401 1014 OFFCURVE",
"1056 1341 OFFCURVE",
"695 1341 QCURVE SMOOTH"
);
},
{
closed = 1;
nodes = (
"1069 457 OFFCURVE",
"999 218 OFFCURVE",
"848 106 OFFCURVE",
"718 106 QCURVE SMOOTH",
"640 106 OFFCURVE",
"544 114 QCURVE",
"544 609 LINE",
"800 609 LINE",
"800 731 LINE",
"544 731 LINE",
"544 1231 LINE",
"618 1231 LINE SMOOTH",
"857 1231 OFFCURVE",
"1069 960 OFFCURVE",
"1069 670 QCURVE SMOOTH"
);
}
);
width = 1479;
}
);
note = Eth;
unicode = 00D0;
},
{
glyphname = eth;
lastChange = "2019-12-20 14:30:44 +0000";
layers = (
{
layerId = "9CB754D2-AD8E-43A2-9483-C1400C56EABF";
paths = (
{
closed = 1;
nodes = (
"229 991 LINE",
"484 1139 LINE",
"584 1033 OFFCURVE",
"617 895 QCURVE",
"580 903 OFFCURVE",
"514 903 QCURVE SMOOTH",
"294 903 OFFCURVE",
"78 667 OFFCURVE",
"78 444 QCURVE SMOOTH",
"78 218 OFFCURVE",
"294 -20 OFFCURVE",
"506 -20 QCURVE SMOOTH",
"946 -20 OFFCURVE",
"946 444 QCURVE SMOOTH",
"946 479 LINE SMOOTH",
"939 966 OFFCURVE",
"628 1224 QCURVE",
"819 1335 LINE",
"819 1459 LINE",
"534 1294 LINE",
"390 1382 OFFCURVE",
"218 1421 QCURVE",
"218 1313 LINE",
"313 1283 OFFCURVE",
"402 1217 QCURVE",
"229 1117 LINE"
);
},
{
closed = 1;
nodes = (
"653 259 OFFCURVE",
"583 80 OFFCURVE",
"508 80 QCURVE SMOOTH",
"436 80 OFFCURVE",
"371 245 OFFCURVE",
"371 445 QCURVE SMOOTH",
"371 640 OFFCURVE",
"435 804 OFFCURVE",
"508 804 QCURVE SMOOTH",
"583 804 OFFCURVE",
"653 632 OFFCURVE",
"653 445 QCURVE SMOOTH"
);
}
);
width = 1024;
}
);
note = eth;
unicode = 00F0;
},
{
glyphname = Thorn;
lastChange = "2019-12-20 14:30:44 +0000";
layers = (
{
layerId = "9CB754D2-AD8E-43A2-9483-C1400C56EABF";
paths = (
{
closed = 1;
nodes = (
"530 268 LINE",
"663 268 LINE SMOOTH",
"1153 268 OFFCURVE",
"1153 688 QCURVE SMOOTH",
"1153 892 OFFCURVE",
"871 1083 OFFCURVE",
"586 1083 QCURVE SMOOTH",
"530 1083 LINE",
"530 1241 LINE",
"702 1268 LINE",
"702 1341 LINE",
"43 1341 LINE",
"43 1268 LINE",
"215 1241 LINE",
"215 100 LINE",
"43 74 LINE",
"43 0 LINE",
"702 0 LINE",
"702 74 LINE",
"530 100 LINE"
);
},
{
closed = 1;
nodes = (
"831 518 OFFCURVE",
"705 378 OFFCURVE",
"566 378 QCURVE SMOOTH",
"530 378 LINE",
"530 973 LINE",
"562 973 LINE SMOOTH",
"712 973 OFFCURVE",
"831 846 OFFCURVE",
"831 686 QCURVE SMOOTH"
);
}
);
width = 1251;
}
);
note = Thorn;
unicode = 00DE;
},
{
glyphname = thorn;
lastChange = "2019-12-20 14:30:44 +0000";
layers = (
{
layerId = "9CB754D2-AD8E-43A2-9483-C1400C56EABF";
paths = (
{
closed = 1;
nodes = (
"129 -346 LINE",
"27 -370 LINE",
"27 -436 LINE",
"556 -436 LINE",
"556 -370 LINE",
"418 -346 LINE",
"418 -141 LINE SMOOTH",
"418 -59 OFFCURVE",
"412 7 QCURVE",
"520 -20 OFFCURVE",
"643 -20 QCURVE SMOOTH",
"855 -20 OFFCURVE",
"1075 238 OFFCURVE",
"1075 478 QCURVE SMOOTH",
"1075 726 OFFCURVE",
"866 965 OFFCURVE",
"658 965 QCURVE SMOOTH",
"591 965 OFFCURVE",
"469 933 OFFCURVE",
"409 892 QCURVE",
"418 977 OFFCURVE",
"418 1076 QCURVE SMOOTH",
"418 1421 LINE",
"14 1421 LINE",
"14 1356 LINE",
"129 1333 LINE"
);
},
{
closed = 1;
nodes = (
"782 279 OFFCURVE",
"677 82 OFFCURVE",
"587 82 QCURVE SMOOTH",
"499 82 OFFCURVE",
"418 103 QCURVE",
"418 811 LINE",
"504 854 OFFCURVE",
"595 854 QCURVE SMOOTH",
"684 854 OFFCURVE",
"782 655 OFFCURVE",
"782 470 QCURVE SMOOTH"
);
}
);
width = 1139;
}
);
note = thorn;
unicode = 00FE;
},
{
glyphname = minus;
lastChange = "2019-12-20 14:30:44 +0000";
layers = (
{
layerId = "9CB754D2-AD8E-43A2-9483-C1400C56EABF";
paths = (
{
closed = 1;
nodes = (
"108 751 LINE",
"108 608 LINE",
"1060 608 LINE",
"1060 751 LINE"
);
}
);
width = 1167;
}
);
note = minus;
unicode = 2212;
},
{
glyphname = multiply;
lastChange = "2019-12-20 14:30:44 +0000";
layers = (
{
layerId = "9CB754D2-AD8E-43A2-9483-C1400C56EABF";
paths = (
{
closed = 1;
nodes = (
"904 254 LINE",
"1005 356 LINE",
"681 682 LINE",
"1005 1006 LINE",
"904 1108 LINE",
"578 784 LINE",
"256 1108 LINE",
"152 1004 LINE",
"476 682 LINE",
"152 356 LINE",
"253 254 LINE",
"578 578 LINE"
);
}
);
width = 1167;
}
);
note = multiply;
unicode = 00D7;
},
{
glyphname = uni00B9;
lastChange = "2019-12-20 14:30:44 +0000";
layers = (
{
layerId = "9CB754D2-AD8E-43A2-9483-C1400C56EABF";
paths = (
{
closed = 1;
nodes = (
"393 1347 LINE",
"303 1347 LINE",
"76 1213 LINE",
"76 1147 LINE",
"215 1193 LINE",
"215 616 LINE",
"76 602 LINE",
"76 535 LINE",
"533 535 LINE",
"533 602 LINE",
"393 616 LINE"
);
}
);
width = 614;
}
);
note = uni00B9;
unicode = 00B9;
},
{
glyphname = uni00B2;
lastChange = "2019-12-20 14:30:44 +0000";
layers = (
{
layerId = "9CB754D2-AD8E-43A2-9483-C1400C56EABF";
paths = (
{
closed = 1;
nodes = (
"566 677 LINE",
"191 677 LINE",
"301 772 LINE SMOOTH",
"407 859 OFFCURVE",
"506 964 OFFCURVE",
"550 1072 OFFCURVE",
"550 1140 QCURVE SMOOTH",
"550 1240 OFFCURVE",
"409 1350 OFFCURVE",
"276 1350 QCURVE SMOOTH",
"196 1350 OFFCURVE",
"83 1324 QCURVE",
"83 1131 LINE",
"145 1131 LINE",
"171 1247 LINE",
"208 1278 OFFCURVE",
"261 1278 QCURVE SMOOTH",
"314 1278 OFFCURVE",
"372 1209 OFFCURVE",
"372 1143 QCURVE SMOOTH",
"372 1064 OFFCURVE",
"331 952 OFFCURVE",
"251 848 OFFCURVE",
"133 732 OFFCURVE",
"56 649 QCURVE",
"56 536 LINE",
"566 536 LINE"
);
}
);
width = 614;
}
);
note = uni00B2;
unicode = 00B2;
},
{
glyphname = uni00B3;
lastChange = "2019-12-20 14:30:44 +0000";
layers = (
{
layerId = "9CB754D2-AD8E-43A2-9483-C1400C56EABF";
paths = (
{
closed = 1;
nodes = (
"571 844 OFFCURVE",
"473 943 OFFCURVE",
"369 956 QCURVE",
"456 970 OFFCURVE",
"535 1075 OFFCURVE",
"535 1151 QCURVE SMOOTH",
"535 1349 OFFCURVE",
"265 1349 QCURVE SMOOTH",
"174 1349 OFFCURVE",
"72 1323 QCURVE",
"72 1130 LINE",
"134 1130 LINE",
"160 1249 LINE",
"204 1277 OFFCURVE",
"242 1277 QCURVE SMOOTH",
"353 1277 OFFCURVE",
"353 1143 QCURVE SMOOTH",
"353 1071 OFFCURVE",
"303 1005 OFFCURVE",
"249 1001 QCURVE SMOOTH",
"187 997 LINE",
"187 914 LINE",
"251 910 LINE SMOOTH",
"327 905 OFFCURVE",
"390 830 OFFCURVE",
"390 760 QCURVE SMOOTH",
"390 594 OFFCURVE",
"241 594 QCURVE SMOOTH",
"187 594 OFFCURVE",
"142 620 QCURVE",
"110 752 LINE",
"45 752 LINE",
"52 547 LINE",
"155 523 OFFCURVE",
"274 523 QCURVE SMOOTH",
"417 523 OFFCURVE",
"571 645 OFFCURVE",
"571 754 QCURVE SMOOTH"
);
}
);
width = 614;
}
);
note = uni00B3;
unicode = 00B3;
},
{
glyphname = franc;
lastChange = "2019-12-20 14:30:44 +0000";
layers = (
{
layerId = "9CB754D2-AD8E-43A2-9483-C1400C56EABF";
paths = (
{
closed = 1;
nodes = (
"48 282 LINE",
"207 282 LINE",
"207 100 LINE",
"48 73 LINE",
"48 0 LINE",
"705 0 LINE",
"705 73 LINE",
"522 100 LINE",
"522 282 LINE",
"752 282 LINE",
"752 384 LINE",
"522 384 LINE",
"522 572 LINE",
"797 572 LINE",
"828 430 LINE",
"917 430 LINE",
"917 822 LINE",
"828 822 LINE",
"797 682 LINE",
"522 682 LINE",
"522 1231 LINE",
"643 1231 LINE SMOOTH",
"774 1231 OFFCURVE",
"872 1217 QCURVE",
"904 980 LINE",
"998 980 LINE",
"998 1341 LINE",
"35 1341 LINE",
"35 1268 LINE",
"207 1242 LINE",
"207 384 LINE",
"48 384 LINE"
);
}
);
width = 1024;
}
);
note = franc;
unicode = 20A3;
},
{
glyphname = uni0111;
lastChange = "2019-12-20 14:30:44 +0000";
layers = (
{
layerId = "9CB754D2-AD8E-43A2-9483-C1400C56EABF";
paths = (
{
closed = 1;
nodes = (
"754 0 LINE",
"1116 0 LINE",
"1116 66 LINE",
"1013 90 LINE",
"1013 1099 LINE",
"1116 1099 LINE",
"1116 1202 LINE",
"1013 1202 LINE",
"1013 1421 LINE",
"628 1421 LINE",
"628 1355 LINE",
"724 1331 LINE",
"724 1202 LINE",
"506 1202 LINE",
"506 1099 LINE",
"724 1099 LINE",
"724 1089 LINE SMOOTH",
"724 951 OFFCURVE",
"730 918 QCURVE",
"619 945 OFFCURVE",
"510 945 QCURVE SMOOTH",
"303 945 OFFCURVE",
"83 697 OFFCURVE",
"83 457 QCURVE SMOOTH",
"83 213 OFFCURVE",
"286 -20 OFFCURVE",
"495 -20 QCURVE SMOOTH",
"541 -20 OFFCURVE",
"617 -6 OFFCURVE",
"677 17 OFFCURVE",
"733 53 QCURVE"
);
},
{
closed = 1;
nodes = (
"376 651 OFFCURVE",
"476 843 OFFCURVE",
"566 843 QCURVE SMOOTH",
"642 843 OFFCURVE",
"724 823 QCURVE",
"724 133 LINE",
"635 91 OFFCURVE",
"558 91 QCURVE SMOOTH",
"471 91 OFFCURVE",
"376 282 OFFCURVE",
"376 465 QCURVE SMOOTH"
);
}
);
width = 1139;
}
);
note = uni0111;
unicode = 0111;
},
{
glyphname = uni00AF;
lastChange = "2019-12-20 14:30:44 +0000";
layers = (
{
layerId = "9CB754D2-AD8E-43A2-9483-C1400C56EABF";
paths = (
{
closed = 1;
nodes = (
"1042 1541 LINE",
"-17 1541 LINE",
"-17 1392 LINE",
"1042 1392 LINE"
);
}
);
width = 1024;
}
);
note = uni00AF;
unicode = 00AF;
},
{
glyphname = uni00B7;
lastChange = "2019-12-20 14:30:44 +0000";
layers = (
{
layerId = "9CB754D2-AD8E-43A2-9483-C1400C56EABF";
paths = (
{
closed = 1;
nodes = (
"411 511 OFFCURVE",
"507 608 OFFCURVE",
"507 677 QCURVE SMOOTH",
"507 747 OFFCURVE",
"410 843 OFFCURVE",
"341 843 QCURVE SMOOTH",
"271 843 OFFCURVE",
"175 746 OFFCURVE",
"175 677 QCURVE SMOOTH",
"175 607 OFFCURVE",
"272 511 OFFCURVE",
"341 511 QCURVE SMOOTH"
);
}
);
width = 683;
}
);
note = uni00B7;
unicode = 00B7;
},
{
glyphname = Gamma;
lastChange = "2019-12-20 14:30:44 +0000";
layers = (
{
layerId = "9CB754D2-AD8E-43A2-9483-C1400C56EABF";
paths = (
{
closed = 1;
nodes = (
"731 73 LINE",
"524 99 LINE",
"524 1235 LINE",
"727 1235 LINE SMOOTH",
"940 1235 OFFCURVE",
"1040 1215 QCURVE",
"1102 936 LINE",
"1192 936 LINE",
"1174 1341 LINE",
"37 1341 LINE",
"37 1268 LINE",
"209 1241 LINE",
"209 99 LINE",
"38 73 LINE",
"38 0 LINE",
"731 0 LINE"
);
}
);
width = 1303;
}
);
note = Gamma;
unicode = 0393;
},
{
glyphname = Theta;
lastChange = "2019-12-20 14:30:44 +0000";
layers = (
{
layerId = "9CB754D2-AD8E-43A2-9483-C1400C56EABF";
paths = (
{
closed = 1;
nodes = (
"432 989 OFFCURVE",
"607 1255 OFFCURVE",
"797 1255 QCURVE SMOOTH",
"986 1255 OFFCURVE",
"1161 989 OFFCURVE",
"1161 672 QCURVE SMOOTH",
"1161 354 OFFCURVE",
"986 80 OFFCURVE",
"797 80 QCURVE SMOOTH",
"607 80 OFFCURVE",
"432 353 OFFCURVE",
"432 672 QCURVE SMOOTH"
);
},
{
closed = 1;
nodes = (
"100 330 OFFCURVE",
"458 -20 OFFCURVE",
"797 -20 QCURVE SMOOTH",
"1137 -20 OFFCURVE",
"1493 331 OFFCURVE",
"1493 672 QCURVE SMOOTH",
"1493 1009 OFFCURVE",
"1141 1356 OFFCURVE",
"797 1356 QCURVE SMOOTH",
"100 1356 OFFCURVE",
"100 672 QCURVE SMOOTH"
);
},
{
closed = 1;
nodes = (
"650 790 LINE",
"624 892 LINE",
"556 892 LINE",
"556 460 LINE",
"624 460 LINE",
"650 560 LINE",
"943 560 LINE",
"969 460 LINE",
"1037 460 LINE",
"1037 892 LINE",
"969 892 LINE",
"943 790 LINE"
);
}
);
width = 1593;
}
);
note = Theta;
unicode = 0398;
},
{
glyphname = Phi;
lastChange = "2019-12-20 14:30:44 +0000";
layers = (
{
layerId = "9CB754D2-AD8E-43A2-9483-C1400C56EABF";
paths = (
{
closed = 1;
nodes = (
"637 324 LINE SMOOTH",
"526 324 OFFCURVE",
"383 528 OFFCURVE",
"383 690 QCURVE SMOOTH",
"383 850 OFFCURVE",
"526 1034 OFFCURVE",
"646 1034 QCURVE SMOOTH",
"711 1034 LINE",
"711 324 LINE"
);
},
{
closed = 1;
nodes = (
"986 324 LINE",
"986 1034 LINE",
"1051 1034 LINE SMOOTH",
"1171 1034 OFFCURVE",
"1314 851 OFFCURVE",
"1314 690 QCURVE SMOOTH",
"1314 528 OFFCURVE",
"1171 324 OFFCURVE",
"1060 324 QCURVE SMOOTH"
);
},
{
closed = 1;
nodes = (
"1158 0 LINE",
"1158 74 LINE",
"986 100 LINE",
"986 221 LINE",
"1095 221 LINE SMOOTH",
"1255 221 OFFCURVE",
"1488 332 OFFCURVE",
"1618 551 OFFCURVE",
"1618 692 QCURVE SMOOTH",
"1618 827 OFFCURVE",
"1497 1027 OFFCURVE",
"1260 1137 OFFCURVE",
"1090 1137 QCURVE SMOOTH",
"986 1137 LINE",
"986 1241 LINE",
"1158 1268 LINE",
"1158 1341 LINE",
"539 1341 LINE",
"539 1268 LINE",
"711 1241 LINE",
"711 1137 LINE",
"607 1137 LINE SMOOTH",
"436 1137 OFFCURVE",
"200 1027 OFFCURVE",
"79 828 OFFCURVE",
"79 692 QCURVE SMOOTH",
"79 552 OFFCURVE",
"208 333 OFFCURVE",
"441 221 OFFCURVE",
"602 221 QCURVE SMOOTH",
"711 221 LINE",
"711 100 LINE",
"539 74 LINE",
"539 0 LINE"
);
}
);
width = 1698;
}
);
note = Phi;
unicode = 03A6;
},
{
glyphname = alpha;
lastChange = "2019-12-20 14:30:44 +0000";
layers = (
{
layerId = "9CB754D2-AD8E-43A2-9483-C1400C56EABF";
paths = (
{
closed = 1;
nodes = (
"523 -20 OFFCURVE",
"670 90 OFFCURVE",
"741 219 QCURVE",
"747 219 LINE",
"770 82 OFFCURVE",
"801 0 QCURVE",
"1119 0 LINE",
"1119 75 LINE",
"1071 90 LINE",
"1038 164 OFFCURVE",
"991 331 OFFCURVE",
"964 483 QCURVE",
"1050 784 OFFCURVE",
"1122 900 QCURVE",
"1122 940 LINE",
"839 940 LINE",
"793 745 LINE",
"787 745 LINE",
"700 965 OFFCURVE",
"494 965 QCURVE SMOOTH",
"303 965 OFFCURVE",
"75 695 OFFCURVE",
"75 453 QCURVE SMOOTH",
"75 231 OFFCURVE",
"263 -20 OFFCURVE",
"428 -20 QCURVE SMOOTH"
);
},
{
closed = 1;
nodes = (
"608 849 OFFCURVE",
"711 657 OFFCURVE",
"729 474 QCURVE",
"684 300 OFFCURVE",
"563 124 OFFCURVE",
"495 124 QCURVE SMOOTH",
"434 124 OFFCURVE",
"369 303 OFFCURVE",
"369 460 QCURVE SMOOTH",
"369 660 OFFCURVE",
"446 849 OFFCURVE",
"527 849 QCURVE SMOOTH"
);
}
);
width = 1143;
}
);
note = alpha;
unicode = 03B1;
},
{
glyphname = delta;
lastChange = "2019-12-20 14:30:44 +0000";
layers = (
{
layerId = "9CB754D2-AD8E-43A2-9483-C1400C56EABF";
paths = (
{
closed = 1;
nodes = (
"880 1400 LINE",
"717 1431 OFFCURVE",
"608 1431 QCURVE SMOOTH",
"439 1431 OFFCURVE",
"244 1280 OFFCURVE",
"244 1150 QCURVE SMOOTH",
"244 1072 OFFCURVE",
"328 905 OFFCURVE",
"399 839 QCURVE",
"239 768 OFFCURVE",
"75 546 OFFCURVE",
"75 402 QCURVE SMOOTH",
"75 201 OFFCURVE",
"317 -30 OFFCURVE",
"526 -30 QCURVE SMOOTH",
"739 -30 OFFCURVE",
"988 214 OFFCURVE",
"988 424 QCURVE SMOOTH",
"988 561 OFFCURVE",
"885 774 OFFCURVE",
"752 890 QCURVE SMOOTH",
"659 972 LINE SMOOTH",
"580 1040 OFFCURVE",
"511 1151 OFFCURVE",
"511 1208 QCURVE SMOOTH",
"511 1264 OFFCURVE",
"579 1336 OFFCURVE",
"642 1336 QCURVE SMOOTH",
"722 1336 OFFCURVE",
"779 1292 QCURVE",
"814 1169 LINE",
"880 1169 LINE"
);
},
{
closed = 1;
nodes = (
"357 514 OFFCURVE",
"428 715 OFFCURVE",
"485 765 QCURVE",
"601 680 OFFCURVE",
"697 482 OFFCURVE",
"697 366 QCURVE SMOOTH",
"697 224 OFFCURVE",
"606 59 OFFCURVE",
"527 59 QCURVE SMOOTH",
"450 59 OFFCURVE",
"357 221 OFFCURVE",
"357 392 QCURVE SMOOTH"
);
}
);
width = 1063;
}
);
note = delta;
unicode = 03B4;
},
{
glyphname = epsilon;
lastChange = "2019-12-20 14:30:44 +0000";
layers = (
{
layerId = "9CB754D2-AD8E-43A2-9483-C1400C56EABF";
paths = (
{
closed = 1;
nodes = (
"833 157 LINE",
"775 139 LINE SMOOTH",
"676 106 OFFCURVE",
"543 106 QCURVE SMOOTH",
"447 106 OFFCURVE",
"334 208 OFFCURVE",
"334 288 QCURVE SMOOTH",
"334 347 OFFCURVE",
"384 434 OFFCURVE",
"433 455 QCURVE",
"467 453 OFFCURVE",
"554 437 QCURVE SMOOTH",
"628 423 OFFCURVE",
"642 423 QCURVE SMOOTH",
"693 423 LINE",
"693 581 LINE",
"642 581 LINE SMOOTH",
"630 581 OFFCURVE",
"557 568 QCURVE SMOOTH",
"450 551 LINE",
"415 570 OFFCURVE",
"373 657 OFFCURVE",
"373 715 QCURVE SMOOTH",
"373 782 OFFCURVE",
"460 864 OFFCURVE",
"535 864 QCURVE SMOOTH",
"625 864 OFFCURVE",
"692 828 QCURVE",
"744 713 LINE",
"809 713 LINE",
"809 929 LINE",
"673 965 OFFCURVE",
"520 965 QCURVE SMOOTH",
"324 965 OFFCURVE",
"95 830 OFFCURVE",
"95 715 QCURVE SMOOTH",
"95 573 OFFCURVE",
"244 509 QCURVE",
"244 502 LINE",
"156 476 OFFCURVE",
"56 349 OFFCURVE",
"56 268 QCURVE SMOOTH",
"56 130 OFFCURVE",
"277 -20 OFFCURVE",
"483 -20 QCURVE SMOOTH",
"691 -20 OFFCURVE",
"833 70 QCURVE"
);
}
);
width = 875;
}
);
note = epsilon;
unicode = 03B5;
},
{
glyphname = sigma;
lastChange = "2019-12-20 14:30:44 +0000";
layers = (
{
layerId = "9CB754D2-AD8E-43A2-9483-C1400C56EABF";
paths = (
{
closed = 1;
nodes = (
"713 270 OFFCURVE",
"623 80 OFFCURVE",
"538 80 QCURVE SMOOTH",
"459 80 OFFCURVE",
"371 266 OFFCURVE",
"371 423 QCURVE SMOOTH",
"371 591 OFFCURVE",
"500 797 OFFCURVE",
"615 816 QCURVE",
"713 664 OFFCURVE",
"713 442 QCURVE SMOOTH"
);
},
{
closed = 1;
nodes = (
"1086 831 LINE",
"1102 1066 LINE",
"1021 1066 LINE",
"957 940 LINE",
"611 940 LINE SMOOTH",
"361 940 OFFCURVE",
"78 686 OFFCURVE",
"78 463 QCURVE SMOOTH",
"78 242 OFFCURVE",
"321 -20 OFFCURVE",
"523 -20 QCURVE SMOOTH",
"661 -20 OFFCURVE",
"877 94 OFFCURVE",
"996 302 OFFCURVE",
"996 438 QCURVE SMOOTH",
"996 544 OFFCURVE",
"900 747 OFFCURVE",
"809 825 QCURVE",
"809 831 LINE"
);
}
);
width = 1114;
}
);
note = sigma;
unicode = 03C3;
},
{
glyphname = tau;
lastChange = "2019-12-20 14:30:44 +0000";
layers = (
{
layerId = "9CB754D2-AD8E-43A2-9483-C1400C56EABF";
paths = (
{
closed = 1;
nodes = (
"328 836 LINE",
"328 217 LINE SMOOTH",
"328 102 OFFCURVE",
"475 -20 OFFCURVE",
"610 -20 QCURVE SMOOTH",
"669 -20 OFFCURVE",
"783 5 OFFCURVE",
"815 23 QCURVE",
"815 118 LINE",
"761 105 OFFCURVE",
"718 105 QCURVE SMOOTH",
"674 105 OFFCURVE",
"617 170 OFFCURVE",
"617 235 QCURVE SMOOTH",
"617 836 LINE",
"920 836 LINE",
"920 940 LINE",
"61 940 LINE",
"40 668 LINE",
"121 668 LINE",
"188 836 LINE"
);
}
);
width = 944;
}
);
note = tau;
unicode = 03C4;
},
{
glyphname = phi;
lastChange = "2019-12-20 14:30:44 +0000";
layers = (
{
layerId = "9CB754D2-AD8E-43A2-9483-C1400C56EABF";
paths = (
{
closed = 1;
nodes = (
"700 -17 LINE",
"946 3 OFFCURVE",
"1206 273 OFFCURVE",
"1206 503 QCURVE SMOOTH",
"1206 714 OFFCURVE",
"1007 966 OFFCURVE",
"839 966 QCURVE SMOOTH",
"711 966 OFFCURVE",
"576 808 OFFCURVE",
"576 662 QCURVE SMOOTH",
"576 81 LINE",
"467 95 OFFCURVE",
"366 289 OFFCURVE",
"366 475 QCURVE SMOOTH",
"366 658 OFFCURVE",
"439 840 OFFCURVE",
"521 872 QCURVE",
"521 964 LINE",
"292 935 OFFCURVE",
"73 696 OFFCURVE",
"73 475 QCURVE SMOOTH",
"73 245 OFFCURVE",
"330 1 OFFCURVE",
"576 -16 QCURVE",
"576 -436 LINE",
"700 -436 LINE"
);
},
{
closed = 1;
nodes = (
"913 291 OFFCURVE",
"807 96 OFFCURVE",
"700 84 QCURVE",
"700 660 LINE SMOOTH",
"700 760 OFFCURVE",
"746 866 OFFCURVE",
"800 866 QCURVE SMOOTH",
"862 866 OFFCURVE",
"913 681 OFFCURVE",
"913 485 QCURVE SMOOTH"
);
}
);
width = 1278;
}
);
note = phi;
unicode = 03C6;
},
{
glyphname = uni207F;
lastChange = "2019-12-20 14:30:44 +0000";
layers = (
{
layerId = "9CB754D2-AD8E-43A2-9483-C1400C56EABF";
paths = (
{
closed = 1;
nodes = (
"262 1099 LINE",
"23 1099 LINE",
"23 1050 LINE",
"78 1035 LINE",
"78 599 LINE",
"23 585 LINE",
"23 535 LINE",
"323 535 LINE",
"323 585 LINE",
"271 599 LINE",
"271 1001 LINE",
"317 1021 OFFCURVE",
"363 1021 QCURVE SMOOTH",
"402 1021 OFFCURVE",
"445 965 OFFCURVE",
"445 915 QCURVE SMOOTH",
"445 599 LINE",
"394 585 LINE",
"394 535 LINE",
"695 535 LINE",
"695 585 LINE",
"638 599 LINE",
"638 948 LINE SMOOTH",
"638 1027 OFFCURVE",
"545 1114 OFFCURVE",
"462 1114 QCURVE SMOOTH",
"385 1114 OFFCURVE",
"270 1050 QCURVE"
);
}
);
width = 712;
}
);
note = uni207F;
unicode = 207F;
},
{
glyphname = peseta;
lastChange = "2019-12-20 14:30:44 +0000";
layers = (
{
layerId = "9CB754D2-AD8E-43A2-9483-C1400C56EABF";
paths = (
{
closed = 1;
nodes = (
"1309 -20 OFFCURVE",
"1381 30 QCURVE",
"1434 8 OFFCURVE",
"1573 -20 OFFCURVE",
"1629 -20 QCURVE SMOOTH",
"1776 -20 OFFCURVE",
"1937 97 OFFCURVE",
"1937 205 QCURVE SMOOTH",
"1937 296 OFFCURVE",
"1855 398 OFFCURVE",
"1745 429 QCURVE SMOOTH",
"1651 455 OFFCURVE",
"1597 483 OFFCURVE",
"1565 518 OFFCURVE",
"1565 543 QCURVE SMOOTH",
"1565 580 OFFCURVE",
"1618 616 OFFCURVE",
"1660 616 QCURVE SMOOTH",
"1695 616 OFFCURVE",
"1765 583 OFFCURVE",
"1783 556 QCURVE",
"1815 476 LINE",
"1881 476 LINE",
"1881 681 LINE",
"1753 710 OFFCURVE",
"1651 710 QCURVE SMOOTH",
"1515 710 OFFCURVE",
"1368 593 OFFCURVE",
"1368 493 QCURVE SMOOTH",
"1368 429 OFFCURVE",
"1412 344 OFFCURVE",
"1489 288 OFFCURVE",
"1573 265 QCURVE SMOOTH",
"1663 239 OFFCURVE",
"1709 214 OFFCURVE",
"1735 180 OFFCURVE",
"1735 155 QCURVE SMOOTH",
"1735 73 OFFCURVE",
"1625 73 QCURVE SMOOTH",
"1523 73 OFFCURVE",
"1469 160 QCURVE",
"1436 237 LINE",
"1370 237 LINE",
"1370 99 LINE",
"1316 84 OFFCURVE",
"1274 84 QCURVE SMOOTH",
"1237 84 OFFCURVE",
"1206 148 OFFCURVE",
"1206 215 QCURVE SMOOTH",
"1206 586 LINE",
"1344 586 LINE",
"1344 680 LINE",
"1206 680 LINE",
"1206 893 LINE",
"1100 893 LINE",
"979 674 LINE",
"894 663 LINE",
"968 753 OFFCURVE",
"968 946 QCURVE SMOOTH",
"968 1154 OFFCURVE",
"704 1341 OFFCURVE",
"435 1341 QCURVE SMOOTH",
"20 1341 LINE",
"20 1268 LINE",
"122 1242 LINE",
"122 100 LINE",
"33 73 LINE",
"33 0 LINE",
"531 0 LINE",
"531 73 LINE",
"408 100 LINE",
"408 526 LINE",
"520 526 LINE SMOOTH",
"740 526 OFFCURVE",
"856 625 QCURVE",
"856 586 LINE",
"957 586 LINE",
"957 217 LINE SMOOTH",
"957 89 OFFCURVE",
"1076 -20 OFFCURVE",
"1195 -20 QCURVE SMOOTH"
);
},
{
closed = 1;
nodes = (
"676 777 OFFCURVE",
"568 636 OFFCURVE",
"448 636 QCURVE SMOOTH",
"408 636 LINE",
"408 1231 LINE",
"444 1231 LINE SMOOTH",
"574 1231 OFFCURVE",
"676 1104 OFFCURVE",
"676 944 QCURVE SMOOTH"
);
}
);
width = 1984;
}
);
note = peseta;
unicode = 20A7;
},
{
glyphname = arrowleft;
lastChange = "2019-12-20 14:30:44 +0000";
layers = (
{
layerId = "9CB754D2-AD8E-43A2-9483-C1400C56EABF";
paths = (
{
closed = 1;
nodes = (
"1630 427 LINE",
"1630 513 LINE",
"641 513 LINE",
"698 580 OFFCURVE",
"760 710 QCURVE",
"688 710 LINE",
"561 561 OFFCURVE",
"418 488 QCURVE",
"418 452 LINE",
"561 379 OFFCURVE",
"688 230 QCURVE",
"760 230 LINE",
"698 360 OFFCURVE",
"641 427 QCURVE"
);
}
);
width = 2048;
}
);
note = arrowleft;
unicode = 2190;
},
{
glyphname = arrowup;
lastChange = "2019-12-20 14:30:44 +0000";
layers = (
{
layerId = "9CB754D2-AD8E-43A2-9483-C1400C56EABF";
paths = (
{
closed = 1;
nodes = (
"469 -61 LINE",
"555 -61 LINE",
"555 928 LINE",
"622 871 OFFCURVE",
"752 809 QCURVE",
"752 881 LINE",
"603 1008 OFFCURVE",
"530 1151 QCURVE",
"494 1151 LINE",
"421 1008 OFFCURVE",
"272 881 QCURVE",
"272 809 LINE",
"402 871 OFFCURVE",
"469 928 QCURVE"
);
}
);
width = 1024;
}
);
note = arrowup;
unicode = 2191;
},
{
glyphname = arrowright;
lastChange = "2019-12-20 14:30:44 +0000";
layers = (
{
layerId = "9CB754D2-AD8E-43A2-9483-C1400C56EABF";
paths = (
{
closed = 1;
nodes = (
"418 513 LINE",
"418 427 LINE",
"1407 427 LINE",
"1350 360 OFFCURVE",
"1288 230 QCURVE",
"1360 230 LINE",
"1487 379 OFFCURVE",
"1630 452 QCURVE",
"1630 488 LINE",
"1487 561 OFFCURVE",
"1360 710 QCURVE",
"1288 710 LINE",
"1350 580 OFFCURVE",
"1407 513 QCURVE"
);
}
);
width = 2048;
}
);
note = arrowright;
unicode = 2192;
},
{
glyphname = arrowdown;
lastChange = "2019-12-20 14:30:44 +0000";
layers = (
{
layerId = "9CB754D2-AD8E-43A2-9483-C1400C56EABF";
paths = (
{
closed = 1;
nodes = (
"555 1151 LINE",
"469 1151 LINE",
"469 162 LINE",
"402 219 OFFCURVE",
"272 281 QCURVE",
"272 209 LINE",
"421 82 OFFCURVE",
"494 -61 QCURVE",
"530 -61 LINE",
"603 82 OFFCURVE",
"752 209 QCURVE",
"752 281 LINE",
"622 219 OFFCURVE",
"555 162 QCURVE"
);
}
);
width = 1024;
}
);
note = arrowdown;
unicode = 2193;
},
{
glyphname = arrowboth;
lastChange = "2019-12-20 14:30:44 +0000";
layers = (
{
layerId = "9CB754D2-AD8E-43A2-9483-C1400C56EABF";
paths = (
{
closed = 1;
nodes = (
"1407 427 LINE",
"1350 360 OFFCURVE",
"1288 230 QCURVE",
"1360 230 LINE",
"1487 379 OFFCURVE",
"1630 452 QCURVE",
"1630 488 LINE",
"1487 561 OFFCURVE",
"1360 710 QCURVE",
"1288 710 LINE",
"1350 580 OFFCURVE",
"1407 513 QCURVE",
"641 513 LINE",
"698 580 OFFCURVE",
"760 710 QCURVE",
"688 710 LINE",
"561 561 OFFCURVE",
"418 488 QCURVE",
"418 452 LINE",
"561 379 OFFCURVE",
"688 230 QCURVE",
"760 230 LINE",
"698 360 OFFCURVE",
"641 427 QCURVE"
);
}
);
width = 2048;
}
);
note = arrowboth;
unicode = 2194;
},
{
glyphname = arrowupdn;
lastChange = "2019-12-20 14:30:44 +0000";
layers = (
{
layerId = "9CB754D2-AD8E-43A2-9483-C1400C56EABF";
paths = (
{
closed = 1;
nodes = (
"469 162 LINE",
"402 219 OFFCURVE",
"272 281 QCURVE",
"272 209 LINE",
"421 82 OFFCURVE",
"494 -61 QCURVE",
"530 -61 LINE",
"603 82 OFFCURVE",
"752 209 QCURVE",
"752 281 LINE",
"622 219 OFFCURVE",
"555 162 QCURVE",
"555 928 LINE",
"622 871 OFFCURVE",
"752 809 QCURVE",
"752 881 LINE",
"603 1008 OFFCURVE",
"530 1151 QCURVE",
"494 1151 LINE",
"421 1008 OFFCURVE",
"272 881 QCURVE",
"272 809 LINE",
"402 871 OFFCURVE",
"469 928 QCURVE"
);
}
);
width = 1024;
}
);
note = arrowupdn;
unicode = 2195;
},
{
glyphname = arrowupdnbse;
lastChange = "2019-12-20 14:30:44 +0000";
layers = (
{
layerId = "9CB754D2-AD8E-43A2-9483-C1400C56EABF";
paths = (
{
closed = 1;
nodes = (
"272 -184 LINE",
"752 -184 LINE",
"752 -104 LINE",
"272 -104 LINE"
);
},
{
closed = 1;
nodes = (
"469 162 LINE",
"402 219 OFFCURVE",
"272 281 QCURVE",
"272 209 LINE",
"421 82 OFFCURVE",
"494 -61 QCURVE",
"530 -61 LINE",
"603 82 OFFCURVE",
"752 209 QCURVE",
"752 281 LINE",
"622 219 OFFCURVE",
"555 162 QCURVE",
"555 928 LINE",
"622 871 OFFCURVE",
"752 809 QCURVE",
"752 881 LINE",
"603 1008 OFFCURVE",
"530 1151 QCURVE",
"494 1151 LINE",
"421 1008 OFFCURVE",
"272 881 QCURVE",
"272 809 LINE",
"402 871 OFFCURVE",
"469 928 QCURVE"
);
}
);
width = 1024;
}
);
note = arrowupdnbse;
unicode = 21A8;
},
{
glyphname = orthogonal;
lastChange = "2019-12-20 14:30:44 +0000";
layers = (
{
layerId = "9CB754D2-AD8E-43A2-9483-C1400C56EABF";
paths = (
{
closed = 1;
nodes = (
"408 0 LINE",
"1632 0 LINE",
"1632 94 LINE",
"502 94 LINE",
"502 1223 LINE",
"408 1223 LINE"
);
}
);
width = 2005;
}
);
note = orthogonal;
unicode = 221F;
},
{
glyphname = intersection;
lastChange = "2019-12-20 14:30:44 +0000";
layers = (
{
layerId = "9CB754D2-AD8E-43A2-9483-C1400C56EABF";
paths = (
{
closed = 1;
nodes = (
"381 -2 LINE",
"381 510 LINE SMOOTH",
"381 704 OFFCURVE",
"573 930 OFFCURVE",
"735 930 QCURVE SMOOTH",
"895 930 OFFCURVE",
"1091 702 OFFCURVE",
"1091 512 QCURVE SMOOTH",
"1091 -2 LINE",
"1194 -2 LINE",
"1194 510 LINE SMOOTH",
"1194 658 OFFCURVE",
"1075 900 OFFCURVE",
"864 1032 OFFCURVE",
"733 1032 QCURVE SMOOTH",
"603 1032 OFFCURVE",
"394 899 OFFCURVE",
"278 660 OFFCURVE",
"278 510 QCURVE SMOOTH",
"278 -2 LINE"
);
}
);
width = 1472;
}
);
note = intersection;
unicode = 2229;
},
{
glyphname = equivalence;
lastChange = "2019-12-20 14:30:44 +0000";
layers = (
{
layerId = "9CB754D2-AD8E-43A2-9483-C1400C56EABF";
paths = (
{
closed = 1;
nodes = (
"102 406 LINE",
"102 263 LINE",
"1054 263 LINE",
"1054 406 LINE"
);
},
{
closed = 1;
nodes = (
"102 1096 LINE",
"102 953 LINE",
"1054 953 LINE",
"1054 1096 LINE"
);
},
{
closed = 1;
nodes = (
"102 751 LINE",
"102 608 LINE",
"1054 608 LINE",
"1054 751 LINE"
);
}
);
width = 1167;
}
);
note = equivalence;
unicode = 2261;
},
{
glyphname = house;
lastChange = "2019-12-20 14:30:44 +0000";
layers = (
{
layerId = "9CB754D2-AD8E-43A2-9483-C1400C56EABF";
paths = (
{
closed = 1;
nodes = (
"1075 0 LINE",
"1075 635 LINE",
"614 1153 LINE",
"153 635 LINE",
"153 0 LINE"
);
},
{
closed = 1;
nodes = (
"233 600 LINE",
"614 1026 LINE",
"995 600 LINE",
"995 82 LINE",
"233 82 LINE"
);
}
);
width = 1229;
}
);
note = house;
unicode = 2302;
},
{
glyphname = revlogicalnot;
lastChange = "2019-12-20 14:30:44 +0000";
layers = (
{
layerId = "9CB754D2-AD8E-43A2-9483-C1400C56EABF";
paths = (
{
closed = 1;
nodes = (
"102 752 LINE",
"102 203 LINE",
"244 203 LINE",
"244 608 LINE",
"1055 608 LINE",
"1055 752 LINE"
);
}
);
width = 1167;
}
);
note = revlogicalnot;
unicode = 2310;
},
{
glyphname = integraltp;
lastChange = "2019-12-20 14:30:44 +0000";
layers = (
{
layerId = "9CB754D2-AD8E-43A2-9483-C1400C56EABF";
paths = (
{
closed = 1;
nodes = (
"693 1423 LINE SMOOTH",
"693 1528 OFFCURVE",
"699 1563 QCURVE SMOOTH",
"708 1602 OFFCURVE",
"744 1602 QCURVE SMOOTH",
"760 1602 OFFCURVE",
"793 1563 QCURVE SMOOTH",
"831 1521 OFFCURVE",
"847 1513 QCURVE",
"860 1503 OFFCURVE",
"890 1503 QCURVE SMOOTH",
"927 1503 OFFCURVE",
"978 1555 OFFCURVE",
"978 1595 QCURVE SMOOTH",
"978 1643 OFFCURVE",
"903 1706 OFFCURVE",
"840 1706 QCURVE SMOOTH",
"714 1706 OFFCURVE",
"546 1460 OFFCURVE",
"546 1264 QCURVE SMOOTH",
"546 -614 LINE",
"693 -614 LINE"
);
}
);
width = 1237;
}
);
note = integraltp;
unicode = 2320;
},
{
glyphname = integralbt;
lastChange = "2019-12-20 14:30:44 +0000";
layers = (
{
layerId = "9CB754D2-AD8E-43A2-9483-C1400C56EABF";
paths = (
{
closed = 1;
nodes = (
"546 -334 LINE SMOOTH",
"546 -461 OFFCURVE",
"523 -512 OFFCURVE",
"494 -512 QCURVE SMOOTH",
"478 -512 OFFCURVE",
"447 -475 QCURVE SMOOTH",
"416 -434 OFFCURVE",
"406 -430 QCURVE",
"380 -414 OFFCURVE",
"347 -414 QCURVE SMOOTH",
"311 -414 OFFCURVE",
"261 -467 OFFCURVE",
"261 -506 QCURVE SMOOTH",
"261 -553 OFFCURVE",
"339 -614 OFFCURVE",
"398 -614 QCURVE SMOOTH",
"530 -614 OFFCURVE",
"693 -369 OFFCURVE",
"693 -174 QCURVE SMOOTH",
"693 1706 LINE",
"546 1706 LINE"
);
}
);
width = 1237;
}
);
note = integralbt;
unicode = 2321;
},
{
glyphname = uni2500;
lastChange = "2019-12-20 14:30:44 +0000";
layers = (
{
layerId = "9CB754D2-AD8E-43A2-9483-C1400C56EABF";
paths = (
{
closed = 1;
nodes = (
"1461 549 LINE",
"1461 694 LINE",
"-10 694 LINE",
"-10 549 LINE"
);
}
);
width = 1451;
}
);
note = uni2500;
unicode = 2500;
},
{
glyphname = uni2502;
lastChange = "2019-12-20 14:30:44 +0000";
layers = (
{
layerId = "9CB754D2-AD8E-43A2-9483-C1400C56EABF";
paths = (
{
closed = 1;
nodes = (
"653 -621 LINE",
"798 -621 LINE",
"798 1864 LINE",
"653 1864 LINE"
);
}
);
width = 1451;
}
);
note = uni2502;
unicode = 2502;
},
{
glyphname = uni250C;
lastChange = "2019-12-20 14:30:44 +0000";
layers = (
{
layerId = "9CB754D2-AD8E-43A2-9483-C1400C56EABF";
paths = (
{
closed = 1;
nodes = (
"653 -621 LINE",
"798 -621 LINE",
"798 549 LINE",
"1461 549 LINE",
"1461 694 LINE",
"653 694 LINE"
);
}
);
width = 1451;
}
);
note = uni250C;
unicode = 250C;
},
{
glyphname = uni2510;
lastChange = "2019-12-20 14:30:44 +0000";
layers = (
{
layerId = "9CB754D2-AD8E-43A2-9483-C1400C56EABF";
paths = (
{
closed = 1;
nodes = (
"653 549 LINE",
"653 -621 LINE",
"798 -621 LINE",
"798 694 LINE",
"-10 694 LINE",
"-10 549 LINE"
);
}
);
width = 1451;
}
);
note = uni2510;
unicode = 2510;
},
{
glyphname = uni2514;
lastChange = "2019-12-20 14:30:44 +0000";
layers = (
{
layerId = "9CB754D2-AD8E-43A2-9483-C1400C56EABF";
paths = (
{
closed = 1;
nodes = (
"653 549 LINE",
"1461 549 LINE",
"1461 694 LINE",
"798 694 LINE",
"798 1864 LINE",
"653 1864 LINE"
);
}
);
width = 1451;
}
);
note = uni2514;
unicode = 2514;
},
{
glyphname = uni2518;
lastChange = "2019-12-20 14:30:44 +0000";
layers = (
{
layerId = "9CB754D2-AD8E-43A2-9483-C1400C56EABF";
paths = (
{
closed = 1;
nodes = (
"798 549 LINE",
"798 1864 LINE",
"653 1864 LINE",
"653 694 LINE",
"-10 694 LINE",
"-10 549 LINE"
);
}
);
width = 1451;
}
);
note = uni2518;
unicode = 2518;
},
{
glyphname = uni251C;
lastChange = "2019-12-20 14:30:44 +0000";
layers = (
{
layerId = "9CB754D2-AD8E-43A2-9483-C1400C56EABF";
paths = (
{
closed = 1;
nodes = (
"653 -621 LINE",
"798 -621 LINE",
"798 549 LINE",
"1461 549 LINE",
"1461 694 LINE",
"798 694 LINE",
"798 1864 LINE",
"653 1864 LINE"
);
}
);
width = 1451;
}
);
note = uni251C;
unicode = 251C;
},
{
glyphname = uni2524;
lastChange = "2019-12-20 14:30:44 +0000";
layers = (
{
layerId = "9CB754D2-AD8E-43A2-9483-C1400C56EABF";
paths = (
{
closed = 1;
nodes = (
"653 549 LINE",
"653 -621 LINE",
"798 -621 LINE",
"798 1864 LINE",
"653 1864 LINE",
"653 694 LINE",
"-10 694 LINE",
"-10 549 LINE"
);
}
);
width = 1451;
}
);
note = uni2524;
unicode = 2524;
},
{
glyphname = uni252C;
lastChange = "2019-12-20 14:30:44 +0000";
layers = (
{
layerId = "9CB754D2-AD8E-43A2-9483-C1400C56EABF";
paths = (
{
closed = 1;
nodes = (
"653 549 LINE",
"653 -621 LINE",
"798 -621 LINE",
"798 549 LINE",
"1461 549 LINE",
"1461 694 LINE",
"-10 694 LINE",
"-10 549 LINE"
);
}
);
width = 1451;
}
);
note = uni252C;
unicode = 252C;
},
{
glyphname = uni2534;
lastChange = "2019-12-20 14:30:44 +0000";
layers = (
{
layerId = "9CB754D2-AD8E-43A2-9483-C1400C56EABF";
paths = (
{
closed = 1;
nodes = (
"1461 549 LINE",
"1461 694 LINE",
"798 694 LINE",
"798 1864 LINE",
"653 1864 LINE",
"653 694 LINE",
"-10 694 LINE",
"-10 549 LINE"
);
}
);
width = 1451;
}
);
note = uni2534;
unicode = 2534;
},
{
glyphname = uni253C;
lastChange = "2019-12-20 14:30:44 +0000";
layers = (
{
layerId = "9CB754D2-AD8E-43A2-9483-C1400C56EABF";
paths = (
{
closed = 1;
nodes = (
"653 549 LINE",
"653 -621 LINE",
"798 -621 LINE",
"798 549 LINE",
"1461 549 LINE",
"1461 694 LINE",
"798 694 LINE",
"798 1864 LINE",
"653 1864 LINE",
"653 694 LINE",
"-10 694 LINE",
"-10 549 LINE"
);
}
);
width = 1451;
}
);
note = uni253C;
unicode = 253C;
},
{
glyphname = uni2550;
lastChange = "2019-12-20 14:30:44 +0000";
layers = (
{
layerId = "9CB754D2-AD8E-43A2-9483-C1400C56EABF";
paths = (
{
closed = 1;
nodes = (
"1461 729 LINE",
"1461 874 LINE",
"-10 874 LINE",
"-10 729 LINE"
);
},
{
closed = 1;
nodes = (
"1461 369 LINE",
"1461 514 LINE",
"-10 514 LINE",
"-10 369 LINE"
);
}
);
width = 1451;
}
);
note = uni2550;
unicode = 2550;
},
{
glyphname = uni2551;
lastChange = "2019-12-20 14:30:44 +0000";
layers = (
{
layerId = "9CB754D2-AD8E-43A2-9483-C1400C56EABF";
paths = (
{
closed = 1;
nodes = (
"473 -621 LINE",
"618 -621 LINE",
"618 1864 LINE",
"473 1864 LINE"
);
},
{
closed = 1;
nodes = (
"833 -621 LINE",
"978 -621 LINE",
"978 1864 LINE",
"833 1864 LINE"
);
}
);
width = 1451;
}
);
note = uni2551;
unicode = 2551;
},
{
glyphname = uni2552;
lastChange = "2019-12-20 14:30:44 +0000";
layers = (
{
layerId = "9CB754D2-AD8E-43A2-9483-C1400C56EABF";
paths = (
{
closed = 1;
nodes = (
"653 -621 LINE",
"798 -621 LINE",
"798 369 LINE",
"1461 369 LINE",
"1461 514 LINE",
"798 514 LINE",
"798 729 LINE",
"1461 729 LINE",
"1461 874 LINE",
"653 874 LINE"
);
}
);
width = 1451;
}
);
note = uni2552;
unicode = 2552;
},
{
glyphname = uni2553;
lastChange = "2019-12-20 14:30:44 +0000";
layers = (
{
layerId = "9CB754D2-AD8E-43A2-9483-C1400C56EABF";
paths = (
{
closed = 1;
nodes = (
"473 694 LINE",
"473 -621 LINE",
"618 -621 LINE",
"618 549 LINE",
"833 549 LINE",
"833 -621 LINE",
"978 -621 LINE",
"978 549 LINE",
"1461 549 LINE",
"1461 694 LINE"
);
}
);
width = 1451;
}
);
note = uni2553;
unicode = 2553;
},
{
glyphname = uni2554;
lastChange = "2019-12-20 14:30:44 +0000";
layers = (
{
layerId = "9CB754D2-AD8E-43A2-9483-C1400C56EABF";
paths = (
{
closed = 1;
nodes = (
"473 -621 LINE",
"618 -621 LINE",
"618 729 LINE",
"1461 729 LINE",
"1461 874 LINE",
"473 874 LINE"
);
},
{
closed = 1;
nodes = (
"833 -621 LINE",
"978 -621 LINE",
"978 369 LINE",
"1461 369 LINE",
"1461 514 LINE",
"833 514 LINE"
);
}
);
width = 1451;
}
);
note = uni2554;
unicode = 2554;
},
{
glyphname = uni2555;
lastChange = "2019-12-20 14:30:44 +0000";
layers = (
{
layerId = "9CB754D2-AD8E-43A2-9483-C1400C56EABF";
paths = (
{
closed = 1;
nodes = (
"653 369 LINE",
"653 -621 LINE",
"798 -621 LINE",
"798 874 LINE",
"-10 874 LINE",
"-10 729 LINE",
"653 729 LINE",
"653 514 LINE",
"-10 514 LINE",
"-10 369 LINE"
);
}
);
width = 1451;
}
);
note = uni2555;
unicode = 2555;
},
{
glyphname = uni2556;
lastChange = "2019-12-20 14:30:44 +0000";
layers = (
{
layerId = "9CB754D2-AD8E-43A2-9483-C1400C56EABF";
paths = (
{
closed = 1;
nodes = (
"473 549 LINE",
"473 -621 LINE",
"618 -621 LINE",
"618 549 LINE",
"833 549 LINE",
"833 -621 LINE",
"978 -621 LINE",
"978 694 LINE",
"-10 694 LINE",
"-10 549 LINE"
);
}
);
width = 1451;
}
);
note = uni2556;
unicode = 2556;
},
{
glyphname = uni2557;
lastChange = "2019-12-20 14:30:44 +0000";
layers = (
{
layerId = "9CB754D2-AD8E-43A2-9483-C1400C56EABF";
paths = (
{
closed = 1;
nodes = (
"-10 874 LINE",
"-10 729 LINE",
"833 729 LINE",
"833 -621 LINE",
"978 -621 LINE",
"978 874 LINE"
);
},
{
closed = 1;
nodes = (
"618 514 LINE",
"-10 514 LINE",
"-10 369 LINE",
"473 369 LINE",
"473 -621 LINE",
"618 -621 LINE"
);
}
);
width = 1451;
}
);
note = uni2557;
unicode = 2557;
},
{
glyphname = uni2558;
lastChange = "2019-12-20 14:30:44 +0000";
layers = (
{
layerId = "9CB754D2-AD8E-43A2-9483-C1400C56EABF";
paths = (
{
closed = 1;
nodes = (
"653 369 LINE",
"1461 369 LINE",
"1461 514 LINE",
"798 514 LINE",
"798 729 LINE",
"1461 729 LINE",
"1461 874 LINE",
"798 874 LINE",
"798 1864 LINE",
"653 1864 LINE"
);
}
);
width = 1451;
}
);
note = uni2558;
unicode = 2558;
},
{
glyphname = uni2559;
lastChange = "2019-12-20 14:30:44 +0000";
layers = (
{
layerId = "9CB754D2-AD8E-43A2-9483-C1400C56EABF";
paths = (
{
closed = 1;
nodes = (
"833 694 LINE",
"618 694 LINE",
"618 1864 LINE",
"473 1864 LINE",
"473 549 LINE",
"1461 549 LINE",
"1461 694 LINE",
"978 694 LINE",
"978 1864 LINE",
"833 1864 LINE"
);
}
);
width = 1451;
}
);
note = uni2559;
unicode = 2559;
},
{
glyphname = uni255A;
lastChange = "2019-12-20 14:30:44 +0000";
layers = (
{
layerId = "9CB754D2-AD8E-43A2-9483-C1400C56EABF";
paths = (
{
closed = 1;
nodes = (
"473 369 LINE",
"1461 369 LINE",
"1461 514 LINE",
"618 514 LINE",
"618 1864 LINE",
"473 1864 LINE"
);
},
{
closed = 1;
nodes = (
"833 729 LINE",
"1461 729 LINE",
"1461 874 LINE",
"978 874 LINE",
"978 1864 LINE",
"833 1864 LINE"
);
}
);
width = 1451;
}
);
note = uni255A;
unicode = 255A;
},
{
glyphname = uni255B;
lastChange = "2019-12-20 14:30:44 +0000";
layers = (
{
layerId = "9CB754D2-AD8E-43A2-9483-C1400C56EABF";
paths = (
{
closed = 1;
nodes = (
"798 369 LINE",
"798 1864 LINE",
"653 1864 LINE",
"653 874 LINE",
"-10 874 LINE",
"-10 729 LINE",
"653 729 LINE",
"653 514 LINE",
"-10 514 LINE",
"-10 369 LINE"
);
}
);
width = 1451;
}
);
note = uni255B;
unicode = 255B;
},
{
glyphname = uni255C;
lastChange = "2019-12-20 14:30:44 +0000";
layers = (
{
layerId = "9CB754D2-AD8E-43A2-9483-C1400C56EABF";
paths = (
{
closed = 1;
nodes = (
"978 1864 LINE",
"833 1864 LINE",
"833 694 LINE",
"618 694 LINE",
"618 1864 LINE",
"473 1864 LINE",
"473 694 LINE",
"-10 694 LINE",
"-10 549 LINE",
"978 549 LINE"
);
}
);
width = 1451;
}
);
note = uni255C;
unicode = 255C;
},
{
glyphname = uni255D;
lastChange = "2019-12-20 14:30:44 +0000";
layers = (
{
layerId = "9CB754D2-AD8E-43A2-9483-C1400C56EABF";
paths = (
{
closed = 1;
nodes = (
"978 1864 LINE",
"833 1864 LINE",
"833 514 LINE",
"-10 514 LINE",
"-10 369 LINE",
"978 369 LINE"
);
},
{
closed = 1;
nodes = (
"473 874 LINE",
"-10 874 LINE",
"-10 729 LINE",
"618 729 LINE",
"618 1864 LINE",
"473 1864 LINE"
);
}
);
width = 1451;
}
);
note = uni255D;
unicode = 255D;
},
{
glyphname = uni255E;
lastChange = "2019-12-20 14:30:44 +0000";
layers = (
{
layerId = "9CB754D2-AD8E-43A2-9483-C1400C56EABF";
paths = (
{
closed = 1;
nodes = (
"653 -621 LINE",
"798 -621 LINE",
"798 369 LINE",
"1461 369 LINE",
"1461 514 LINE",
"798 514 LINE",
"798 729 LINE",
"1461 729 LINE",
"1461 874 LINE",
"798 874 LINE",
"798 1864 LINE",
"653 1864 LINE"
);
}
);
width = 1451;
}
);
note = uni255E;
unicode = 255E;
},
{
glyphname = uni255F;
lastChange = "2019-12-20 14:30:44 +0000";
layers = (
{
layerId = "9CB754D2-AD8E-43A2-9483-C1400C56EABF";
paths = (
{
closed = 1;
nodes = (
"833 -621 LINE",
"978 -621 LINE",
"978 549 LINE",
"1461 549 LINE",
"1461 694 LINE",
"978 694 LINE",
"978 1864 LINE",
"833 1864 LINE"
);
},
{
closed = 1;
nodes = (
"473 -621 LINE",
"618 -621 LINE",
"618 1864 LINE",
"473 1864 LINE"
);
}
);
width = 1451;
}
);
note = uni255F;
unicode = 255F;
},
{
glyphname = uni2560;
lastChange = "2019-12-20 14:30:44 +0000";
layers = (
{
layerId = "9CB754D2-AD8E-43A2-9483-C1400C56EABF";
paths = (
{
closed = 1;
nodes = (
"618 1864 LINE",
"473 1864 LINE",
"473 -621 LINE",
"618 -621 LINE"
);
},
{
closed = 1;
nodes = (
"833 -621 LINE",
"978 -621 LINE",
"978 369 LINE",
"1461 369 LINE",
"1461 514 LINE",
"833 514 LINE"
);
},
{
closed = 1;
nodes = (
"833 729 LINE",
"1461 729 LINE",
"1461 874 LINE",
"978 874 LINE",
"978 1864 LINE",
"833 1864 LINE"
);
}
);
width = 1451;
}
);
note = uni2560;
unicode = 2560;
},
{
glyphname = uni2561;
lastChange = "2019-12-20 14:30:44 +0000";
layers = (
{
layerId = "9CB754D2-AD8E-43A2-9483-C1400C56EABF";
paths = (
{
closed = 1;
nodes = (
"653 369 LINE",
"653 -621 LINE",
"798 -621 LINE",
"798 1864 LINE",
"653 1864 LINE",
"653 874 LINE",
"-10 874 LINE",
"-10 729 LINE",
"653 729 LINE",
"653 514 LINE",
"-10 514 LINE",
"-10 369 LINE"
);
}
);
width = 1451;
}
);
note = uni2561;
unicode = 2561;
},
{
glyphname = uni2562;
lastChange = "2019-12-20 14:30:44 +0000";
layers = (
{
layerId = "9CB754D2-AD8E-43A2-9483-C1400C56EABF";
paths = (
{
closed = 1;
nodes = (
"473 549 LINE",
"473 -621 LINE",
"618 -621 LINE",
"618 1864 LINE",
"473 1864 LINE",
"473 694 LINE",
"-10 694 LINE",
"-10 549 LINE"
);
},
{
closed = 1;
nodes = (
"833 -621 LINE",
"978 -621 LINE",
"978 1864 LINE",
"833 1864 LINE"
);
}
);
width = 1451;
}
);
note = uni2562;
unicode = 2562;
},
{
glyphname = uni2563;
lastChange = "2019-12-20 14:30:44 +0000";
layers = (
{
layerId = "9CB754D2-AD8E-43A2-9483-C1400C56EABF";
paths = (
{
closed = 1;
nodes = (
"833 -621 LINE",
"978 -621 LINE",
"978 1864 LINE",
"833 1864 LINE"
);
},
{
closed = 1;
nodes = (
"473 874 LINE",
"-10 874 LINE",
"-10 729 LINE",
"618 729 LINE",
"618 1864 LINE",
"473 1864 LINE"
);
},
{
closed = 1;
nodes = (
"618 514 LINE",
"-10 514 LINE",
"-10 369 LINE",
"473 369 LINE",
"473 -621 LINE",
"618 -621 LINE"
);
}
);
width = 1451;
}
);
note = uni2563;
unicode = 2563;
},
{
glyphname = uni2564;
lastChange = "2019-12-20 14:30:44 +0000";
layers = (
{
layerId = "9CB754D2-AD8E-43A2-9483-C1400C56EABF";
paths = (
{
closed = 1;
nodes = (
"653 369 LINE",
"653 -621 LINE",
"798 -621 LINE",
"798 369 LINE",
"1461 369 LINE",
"1461 514 LINE",
"-10 514 LINE",
"-10 369 LINE"
);
},
{
closed = 1;
nodes = (
"1461 729 LINE",
"1461 874 LINE",
"-10 874 LINE",
"-10 729 LINE"
);
}
);
width = 1451;
}
);
note = uni2564;
unicode = 2564;
},
{
glyphname = uni2565;
lastChange = "2019-12-20 14:30:44 +0000";
layers = (
{
layerId = "9CB754D2-AD8E-43A2-9483-C1400C56EABF";
paths = (
{
closed = 1;
nodes = (
"473 549 LINE",
"473 -621 LINE",
"618 -621 LINE",
"618 549 LINE",
"833 549 LINE",
"833 -621 LINE",
"978 -621 LINE",
"978 549 LINE",
"1461 549 LINE",
"1461 694 LINE",
"-10 694 LINE",
"-10 549 LINE"
);
}
);
width = 1451;
}
);
note = uni2565;
unicode = 2565;
},
{
glyphname = uni2566;
lastChange = "2019-12-20 14:30:44 +0000";
layers = (
{
layerId = "9CB754D2-AD8E-43A2-9483-C1400C56EABF";
paths = (
{
closed = 1;
nodes = (
"618 514 LINE",
"-10 514 LINE",
"-10 369 LINE",
"473 369 LINE",
"473 -621 LINE",
"618 -621 LINE"
);
},
{
closed = 1;
nodes = (
"833 -621 LINE",
"978 -621 LINE",
"978 369 LINE",
"1461 369 LINE",
"1461 514 LINE",
"833 514 LINE"
);
},
{
closed = 1;
nodes = (
"-10 874 LINE",
"-10 729 LINE",
"1461 729 LINE",
"1461 874 LINE"
);
}
);
width = 1451;
}
);
note = uni2566;
unicode = 2566;
},
{
glyphname = uni2567;
lastChange = "2019-12-20 14:30:44 +0000";
layers = (
{
layerId = "9CB754D2-AD8E-43A2-9483-C1400C56EABF";
paths = (
{
closed = 1;
nodes = (
"1461 729 LINE",
"1461 874 LINE",
"798 874 LINE",
"798 1864 LINE",
"653 1864 LINE",
"653 874 LINE",
"-10 874 LINE",
"-10 729 LINE"
);
},
{
closed = 1;
nodes = (
"1461 369 LINE",
"1461 514 LINE",
"-10 514 LINE",
"-10 369 LINE"
);
}
);
width = 1451;
}
);
note = uni2567;
unicode = 2567;
},
{
glyphname = uni2568;
lastChange = "2019-12-20 14:30:44 +0000";
layers = (
{
layerId = "9CB754D2-AD8E-43A2-9483-C1400C56EABF";
paths = (
{
closed = 1;
nodes = (
"1461 549 LINE",
"1461 694 LINE",
"978 694 LINE",
"978 1864 LINE",
"833 1864 LINE",
"833 694 LINE",
"618 694 LINE",
"618 1864 LINE",
"473 1864 LINE",
"473 694 LINE",
"-10 694 LINE",
"-10 549 LINE"
);
}
);
width = 1451;
}
);
note = uni2568;
unicode = 2568;
},
{
glyphname = uni2569;
lastChange = "2019-12-20 14:30:44 +0000";
layers = (
{
layerId = "9CB754D2-AD8E-43A2-9483-C1400C56EABF";
paths = (
{
closed = 1;
nodes = (
"833 729 LINE",
"1461 729 LINE",
"1461 874 LINE",
"978 874 LINE",
"978 1864 LINE",
"833 1864 LINE"
);
},
{
closed = 1;
nodes = (
"473 874 LINE",
"-10 874 LINE",
"-10 729 LINE",
"618 729 LINE",
"618 1864 LINE",
"473 1864 LINE"
);
},
{
closed = 1;
nodes = (
"1461 369 LINE",
"1461 514 LINE",
"-10 514 LINE",
"-10 369 LINE"
);
}
);
width = 1451;
}
);
note = uni2569;
unicode = 2569;
},
{
glyphname = uni256A;
lastChange = "2019-12-20 14:30:44 +0000";
layers = (
{
layerId = "9CB754D2-AD8E-43A2-9483-C1400C56EABF";
paths = (
{
closed = 1;
nodes = (
"653 369 LINE",
"653 -621 LINE",
"798 -621 LINE",
"798 369 LINE",
"1461 369 LINE",
"1461 514 LINE",
"798 514 LINE",
"798 729 LINE",
"1461 729 LINE",
"1461 874 LINE",
"798 874 LINE",
"798 1864 LINE",
"653 1864 LINE",
"653 874 LINE",
"-10 874 LINE",
"-10 729 LINE",
"653 729 LINE",
"653 514 LINE",
"-10 514 LINE",
"-10 369 LINE"
);
}
);
width = 1451;
}
);
note = uni256A;
unicode = 256A;
},
{
glyphname = uni256B;
lastChange = "2019-12-20 14:30:44 +0000";
layers = (
{
layerId = "9CB754D2-AD8E-43A2-9483-C1400C56EABF";
paths = (
{
closed = 1;
nodes = (
"833 694 LINE",
"618 694 LINE",
"618 1864 LINE",
"473 1864 LINE",
"473 694 LINE",
"-10 694 LINE",
"-10 549 LINE",
"473 549 LINE",
"473 -621 LINE",
"618 -621 LINE",
"618 549 LINE",
"833 549 LINE",
"833 -621 LINE",
"978 -621 LINE",
"978 549 LINE",
"1461 549 LINE",
"1461 694 LINE",
"978 694 LINE",
"978 1864 LINE",
"833 1864 LINE"
);
}
);
width = 1451;
}
);
note = uni256B;
unicode = 256B;
},
{
glyphname = uni256C;
lastChange = "2019-12-20 14:30:44 +0000";
layers = (
{
layerId = "9CB754D2-AD8E-43A2-9483-C1400C56EABF";
paths = (
{
closed = 1;
nodes = (
"833 729 LINE",
"1461 729 LINE",
"1461 874 LINE",
"978 874 LINE",
"978 1864 LINE",
"833 1864 LINE"
);
},
{
closed = 1;
nodes = (
"618 514 LINE",
"-10 514 LINE",
"-10 369 LINE",
"473 369 LINE",
"473 -621 LINE",
"618 -621 LINE"
);
},
{
closed = 1;
nodes = (
"833 -621 LINE",
"978 -621 LINE",
"978 369 LINE",
"1461 369 LINE",
"1461 514 LINE",
"833 514 LINE"
);
},
{
closed = 1;
nodes = (
"473 874 LINE",
"-10 874 LINE",
"-10 729 LINE",
"618 729 LINE",
"618 1864 LINE",
"473 1864 LINE"
);
}
);
width = 1451;
}
);
note = uni256C;
unicode = 256C;
},
{
glyphname = upblock;
lastChange = "2019-12-20 14:30:44 +0000";
layers = (
{
layerId = "9CB754D2-AD8E-43A2-9483-C1400C56EABF";
paths = (
{
closed = 1;
nodes = (
"1451 1864 LINE",
"0 1864 LINE",
"0 621 LINE",
"1451 621 LINE"
);
}
);
width = 1451;
}
);
note = upblock;
unicode = 2580;
},
{
glyphname = dnblock;
lastChange = "2019-12-20 14:30:44 +0000";
layers = (
{
layerId = "9CB754D2-AD8E-43A2-9483-C1400C56EABF";
paths = (
{
closed = 1;
nodes = (
"1451 621 LINE",
"0 621 LINE",
"0 -621 LINE",
"1451 -621 LINE"
);
}
);
width = 1451;
}
);
note = dnblock;
unicode = 2584;
},
{
glyphname = block;
lastChange = "2019-12-20 14:30:44 +0000";
layers = (
{
layerId = "9CB754D2-AD8E-43A2-9483-C1400C56EABF";
paths = (
{
closed = 1;
nodes = (
"1451 1864 LINE",
"0 1864 LINE",
"0 -621 LINE",
"1451 -621 LINE"
);
}
);
width = 1451;
}
);
note = block;
unicode = 2588;
},
{
glyphname = lfblock;
lastChange = "2019-12-20 14:30:44 +0000";
layers = (
{
layerId = "9CB754D2-AD8E-43A2-9483-C1400C56EABF";
paths = (
{
closed = 1;
nodes = (
"726 1864 LINE",
"0 1864 LINE",
"0 -621 LINE",
"726 -621 LINE"
);
}
);
width = 1451;
}
);
note = lfblock;
unicode = 258C;
},
{
glyphname = rtblock;
lastChange = "2019-12-20 14:30:44 +0000";
layers = (
{
layerId = "9CB754D2-AD8E-43A2-9483-C1400C56EABF";
paths = (
{
closed = 1;
nodes = (
"1451 1864 LINE",
"725 1864 LINE",
"725 -621 LINE",
"1451 -621 LINE"
);
}
);
width = 1451;
}
);
note = rtblock;
unicode = 2590;
},
{
glyphname = ltshade;
lastChange = "2019-12-20 14:30:44 +0000";
layers = (
{
layerId = "9CB754D2-AD8E-43A2-9483-C1400C56EABF";
paths = (
{
closed = 1;
nodes = (
"103 1216 LINE",
"207 1216 LINE",
"207 1314 LINE",
"103 1314 LINE"
);
},
{
closed = 1;
nodes = (
"517 1216 LINE",
"621 1216 LINE",
"621 1314 LINE",
"517 1314 LINE"
);
},
{
closed = 1;
nodes = (
"933 1216 LINE",
"1036 1216 LINE",
"1036 1314 LINE",
"933 1314 LINE"
);
},
{
closed = 1;
nodes = (
"310 1023 LINE",
"414 1023 LINE",
"414 1119 LINE",
"310 1119 LINE"
);
},
{
closed = 1;
nodes = (
"725 1023 LINE",
"829 1023 LINE",
"829 1119 LINE",
"725 1119 LINE"
);
},
{
closed = 1;
nodes = (
"1140 1023 LINE",
"1244 1023 LINE",
"1244 1119 LINE",
"1140 1119 LINE"
);
},
{
closed = 1;
nodes = (
"933 831 LINE",
"1036 831 LINE",
"1036 927 LINE",
"933 927 LINE"
);
},
{
closed = 1;
nodes = (
"517 831 LINE",
"621 831 LINE",
"621 927 LINE",
"517 927 LINE"
);
},
{
closed = 1;
nodes = (
"103 831 LINE",
"207 831 LINE",
"207 927 LINE",
"103 927 LINE"
);
},
{
closed = 1;
nodes = (
"1140 636 LINE",
"1244 636 LINE",
"1244 732 LINE",
"1140 732 LINE"
);
},
{
closed = 1;
nodes = (
"725 636 LINE",
"829 636 LINE",
"829 732 LINE",
"725 732 LINE"
);
},
{
closed = 1;
nodes = (
"310 636 LINE",
"414 636 LINE",
"414 732 LINE",
"310 732 LINE"
);
},
{
closed = 1;
nodes = (
"103 444 LINE",
"207 444 LINE",
"207 540 LINE",
"103 540 LINE"
);
},
{
closed = 1;
nodes = (
"517 444 LINE",
"621 444 LINE",
"621 540 LINE",
"517 540 LINE"
);
},
{
closed = 1;
nodes = (
"933 444 LINE",
"1036 444 LINE",
"1036 540 LINE",
"933 540 LINE"
);
},
{
closed = 1;
nodes = (
"1140 249 LINE",
"1244 249 LINE",
"1244 345 LINE",
"1140 345 LINE"
);
},
{
closed = 1;
nodes = (
"725 249 LINE",
"829 249 LINE",
"829 345 LINE",
"725 345 LINE"
);
},
{
closed = 1;
nodes = (
"310 249 LINE",
"414 249 LINE",
"414 345 LINE",
"310 345 LINE"
);
},
{
closed = 1;
nodes = (
"103 56 LINE",
"207 56 LINE",
"207 153 LINE",
"103 153 LINE"
);
},
{
closed = 1;
nodes = (
"517 56 LINE",
"621 56 LINE",
"621 153 LINE",
"517 153 LINE"
);
},
{
closed = 1;
nodes = (
"933 56 LINE",
"1036 56 LINE",
"1036 153 LINE",
"933 153 LINE"
);
},
{
closed = 1;
nodes = (
"310 -136 LINE",
"414 -136 LINE",
"414 -42 LINE",
"310 -42 LINE"
);
},
{
closed = 1;
nodes = (
"725 -136 LINE",
"829 -136 LINE",
"829 -42 LINE",
"725 -42 LINE"
);
},
{
closed = 1;
nodes = (
"1140 -136 LINE",
"1244 -136 LINE",
"1244 -42 LINE",
"1140 -42 LINE"
);
},
{
closed = 1;
nodes = (
"933 -331 LINE",
"1036 -331 LINE",
"1036 -234 LINE",
"933 -234 LINE"
);
},
{
closed = 1;
nodes = (
"517 -331 LINE",
"621 -331 LINE",
"621 -234 LINE",
"517 -234 LINE"
);
},
{
closed = 1;
nodes = (
"103 -331 LINE",
"207 -331 LINE",
"207 -234 LINE",
"103 -234 LINE"
);
},
{
closed = 1;
nodes = (
"310 -523 LINE",
"414 -523 LINE",
"414 -427 LINE",
"310 -427 LINE"
);
},
{
closed = 1;
nodes = (
"725 -523 LINE",
"829 -523 LINE",
"829 -427 LINE",
"725 -427 LINE"
);
},
{
closed = 1;
nodes = (
"1140 -523 LINE",
"1244 -523 LINE",
"1244 -427 LINE",
"1140 -427 LINE"
);
},
{
closed = 1;
nodes = (
"310 1408 LINE",
"414 1408 LINE",
"414 1506 LINE",
"310 1506 LINE"
);
},
{
closed = 1;
nodes = (
"725 1408 LINE",
"829 1408 LINE",
"829 1506 LINE",
"725 1506 LINE"
);
},
{
closed = 1;
nodes = (
"1140 1408 LINE",
"1244 1408 LINE",
"1244 1506 LINE",
"1140 1506 LINE"
);
},
{
closed = 1;
nodes = (
"103 1603 LINE",
"207 1603 LINE",
"207 1699 LINE",
"103 1699 LINE"
);
},
{
closed = 1;
nodes = (
"517 1603 LINE",
"621 1603 LINE",
"621 1699 LINE",
"517 1699 LINE"
);
},
{
closed = 1;
nodes = (
"933 1603 LINE",
"1036 1603 LINE",
"1036 1699 LINE",
"933 1699 LINE"
);
},
{
closed = 1;
nodes = (
"1347 1216 LINE",
"1451 1216 LINE",
"1451 1314 LINE",
"1347 1314 LINE"
);
},
{
closed = 1;
nodes = (
"1347 831 LINE",
"1451 831 LINE",
"1451 927 LINE",
"1347 927 LINE"
);
},
{
closed = 1;
nodes = (
"1347 444 LINE",
"1451 444 LINE",
"1451 540 LINE",
"1347 540 LINE"
);
},
{
closed = 1;
nodes = (
"1347 56 LINE",
"1451 56 LINE",
"1451 153 LINE",
"1347 153 LINE"
);
},
{
closed = 1;
nodes = (
"1347 -331 LINE",
"1451 -331 LINE",
"1451 -234 LINE",
"1347 -234 LINE"
);
},
{
closed = 1;
nodes = (
"1347 1603 LINE",
"1451 1603 LINE",
"1451 1699 LINE",
"1347 1699 LINE"
);
}
);
width = 1451;
}
);
note = ltshade;
unicode = 2591;
},
{
glyphname = shade;
lastChange = "2019-12-20 14:30:44 +0000";
layers = (
{
layerId = "9CB754D2-AD8E-43A2-9483-C1400C56EABF";
paths = (
{
closed = 1;
nodes = (
"103 1216 LINE",
"207 1216 LINE",
"207 1314 LINE",
"103 1314 LINE"
);
},
{
closed = 1;
nodes = (
"310 1216 LINE",
"414 1216 LINE",
"414 1314 LINE",
"310 1314 LINE"
);
},
{
closed = 1;
nodes = (
"517 1216 LINE",
"621 1216 LINE",
"621 1314 LINE",
"517 1314 LINE"
);
},
{
closed = 1;
nodes = (
"725 1216 LINE",
"829 1216 LINE",
"829 1314 LINE",
"725 1314 LINE"
);
},
{
closed = 1;
nodes = (
"933 1216 LINE",
"1037 1216 LINE",
"1037 1314 LINE",
"933 1314 LINE"
);
},
{
closed = 1;
nodes = (
"1140 1216 LINE",
"1244 1216 LINE",
"1244 1314 LINE",
"1140 1314 LINE"
);
},
{
closed = 1;
nodes = (
"0 1023 LINE",
"103 1023 LINE",
"103 1119 LINE",
"0 1119 LINE"
);
},
{
closed = 1;
nodes = (
"207 1023 LINE",
"310 1023 LINE",
"310 1119 LINE",
"207 1119 LINE"
);
},
{
closed = 1;
nodes = (
"414 1023 LINE",
"517 1023 LINE",
"517 1119 LINE",
"414 1119 LINE"
);
},
{
closed = 1;
nodes = (
"621 1023 LINE",
"725 1023 LINE",
"725 1119 LINE",
"621 1119 LINE"
);
},
{
closed = 1;
nodes = (
"829 1023 LINE",
"933 1023 LINE",
"933 1119 LINE",
"829 1119 LINE"
);
},
{
closed = 1;
nodes = (
"1037 1023 LINE",
"1140 1023 LINE",
"1140 1119 LINE",
"1037 1119 LINE"
);
},
{
closed = 1;
nodes = (
"103 831 LINE",
"207 831 LINE",
"207 927 LINE",
"103 927 LINE"
);
},
{
closed = 1;
nodes = (
"310 831 LINE",
"414 831 LINE",
"414 927 LINE",
"310 927 LINE"
);
},
{
closed = 1;
nodes = (
"517 831 LINE",
"621 831 LINE",
"621 927 LINE",
"517 927 LINE"
);
},
{
closed = 1;
nodes = (
"725 831 LINE",
"829 831 LINE",
"829 927 LINE",
"725 927 LINE"
);
},
{
closed = 1;
nodes = (
"933 831 LINE",
"1037 831 LINE",
"1037 927 LINE",
"933 927 LINE"
);
},
{
closed = 1;
nodes = (
"1140 831 LINE",
"1244 831 LINE",
"1244 927 LINE",
"1140 927 LINE"
);
},
{
closed = 1;
nodes = (
"0 636 LINE",
"103 636 LINE",
"103 732 LINE",
"0 732 LINE"
);
},
{
closed = 1;
nodes = (
"207 636 LINE",
"310 636 LINE",
"310 732 LINE",
"207 732 LINE"
);
},
{
closed = 1;
nodes = (
"414 636 LINE",
"517 636 LINE",
"517 732 LINE",
"414 732 LINE"
);
},
{
closed = 1;
nodes = (
"621 636 LINE",
"725 636 LINE",
"725 732 LINE",
"621 732 LINE"
);
},
{
closed = 1;
nodes = (
"829 636 LINE",
"933 636 LINE",
"933 732 LINE",
"829 732 LINE"
);
},
{
closed = 1;
nodes = (
"1037 636 LINE",
"1140 636 LINE",
"1140 732 LINE",
"1037 732 LINE"
);
},
{
closed = 1;
nodes = (
"103 444 LINE",
"207 444 LINE",
"207 540 LINE",
"103 540 LINE"
);
},
{
closed = 1;
nodes = (
"310 444 LINE",
"414 444 LINE",
"414 540 LINE",
"310 540 LINE"
);
},
{
closed = 1;
nodes = (
"517 444 LINE",
"621 444 LINE",
"621 540 LINE",
"517 540 LINE"
);
},
{
closed = 1;
nodes = (
"725 444 LINE",
"829 444 LINE",
"829 540 LINE",
"725 540 LINE"
);
},
{
closed = 1;
nodes = (
"933 444 LINE",
"1037 444 LINE",
"1037 540 LINE",
"933 540 LINE"
);
},
{
closed = 1;
nodes = (
"1140 444 LINE",
"1244 444 LINE",
"1244 540 LINE",
"1140 540 LINE"
);
},
{
closed = 1;
nodes = (
"0 249 LINE",
"103 249 LINE",
"103 345 LINE",
"0 345 LINE"
);
},
{
closed = 1;
nodes = (
"414 249 LINE",
"517 249 LINE",
"517 345 LINE",
"414 345 LINE"
);
},
{
closed = 1;
nodes = (
"621 249 LINE",
"725 249 LINE",
"725 345 LINE",
"621 345 LINE"
);
},
{
closed = 1;
nodes = (
"829 249 LINE",
"933 249 LINE",
"933 345 LINE",
"829 345 LINE"
);
},
{
closed = 1;
nodes = (
"1037 249 LINE",
"1140 249 LINE",
"1140 345 LINE",
"1037 345 LINE"
);
},
{
closed = 1;
nodes = (
"207 249 LINE",
"310 249 LINE",
"310 345 LINE",
"207 345 LINE"
);
},
{
closed = 1;
nodes = (
"1140 56 LINE",
"1244 56 LINE",
"1244 153 LINE",
"1140 153 LINE"
);
},
{
closed = 1;
nodes = (
"933 56 LINE",
"1037 56 LINE",
"1037 153 LINE",
"933 153 LINE"
);
},
{
closed = 1;
nodes = (
"725 56 LINE",
"829 56 LINE",
"829 153 LINE",
"725 153 LINE"
);
},
{
closed = 1;
nodes = (
"517 56 LINE",
"621 56 LINE",
"621 153 LINE",
"517 153 LINE"
);
},
{
closed = 1;
nodes = (
"310 56 LINE",
"414 56 LINE",
"414 153 LINE",
"310 153 LINE"
);
},
{
closed = 1;
nodes = (
"103 56 LINE",
"207 56 LINE",
"207 153 LINE",
"103 153 LINE"
);
},
{
closed = 1;
nodes = (
"0 -136 LINE",
"103 -136 LINE",
"103 -42 LINE",
"0 -42 LINE"
);
},
{
closed = 1;
nodes = (
"207 -136 LINE",
"310 -136 LINE",
"310 -42 LINE",
"207 -42 LINE"
);
},
{
closed = 1;
nodes = (
"414 -136 LINE",
"517 -136 LINE",
"517 -42 LINE",
"414 -42 LINE"
);
},
{
closed = 1;
nodes = (
"621 -136 LINE",
"725 -136 LINE",
"725 -42 LINE",
"621 -42 LINE"
);
},
{
closed = 1;
nodes = (
"829 -136 LINE",
"933 -136 LINE",
"933 -42 LINE",
"829 -42 LINE"
);
},
{
closed = 1;
nodes = (
"1037 -136 LINE",
"1140 -136 LINE",
"1140 -42 LINE",
"1037 -42 LINE"
);
},
{
closed = 1;
nodes = (
"1140 -331 LINE",
"1244 -331 LINE",
"1244 -234 LINE",
"1140 -234 LINE"
);
},
{
closed = 1;
nodes = (
"933 -331 LINE",
"1037 -331 LINE",
"1037 -234 LINE",
"933 -234 LINE"
);
},
{
closed = 1;
nodes = (
"725 -331 LINE",
"829 -331 LINE",
"829 -234 LINE",
"725 -234 LINE"
);
},
{
closed = 1;
nodes = (
"517 -331 LINE",
"621 -331 LINE",
"621 -234 LINE",
"517 -234 LINE"
);
},
{
closed = 1;
nodes = (
"310 -331 LINE",
"414 -331 LINE",
"414 -234 LINE",
"310 -234 LINE"
);
},
{
closed = 1;
nodes = (
"103 -331 LINE",
"207 -331 LINE",
"207 -234 LINE",
"103 -234 LINE"
);
},
{
closed = 1;
nodes = (
"0 -523 LINE",
"103 -523 LINE",
"103 -427 LINE",
"0 -427 LINE"
);
},
{
closed = 1;
nodes = (
"207 -523 LINE",
"310 -523 LINE",
"310 -427 LINE",
"207 -427 LINE"
);
},
{
closed = 1;
nodes = (
"414 -523 LINE",
"517 -523 LINE",
"517 -427 LINE",
"414 -427 LINE"
);
},
{
closed = 1;
nodes = (
"621 -523 LINE",
"725 -523 LINE",
"725 -427 LINE",
"621 -427 LINE"
);
},
{
closed = 1;
nodes = (
"829 -523 LINE",
"933 -523 LINE",
"933 -427 LINE",
"829 -427 LINE"
);
},
{
closed = 1;
nodes = (
"1037 -523 LINE",
"1140 -523 LINE",
"1140 -427 LINE",
"1037 -427 LINE"
);
},
{
closed = 1;
nodes = (
"0 1408 LINE",
"103 1408 LINE",
"103 1506 LINE",
"0 1506 LINE"
);
},
{
closed = 1;
nodes = (
"207 1408 LINE",
"310 1408 LINE",
"310 1506 LINE",
"207 1506 LINE"
);
},
{
closed = 1;
nodes = (
"414 1408 LINE",
"517 1408 LINE",
"517 1506 LINE",
"414 1506 LINE"
);
},
{
closed = 1;
nodes = (
"621 1408 LINE",
"725 1408 LINE",
"725 1506 LINE",
"621 1506 LINE"
);
},
{
closed = 1;
nodes = (
"829 1408 LINE",
"933 1408 LINE",
"933 1506 LINE",
"829 1506 LINE"
);
},
{
closed = 1;
nodes = (
"1037 1408 LINE",
"1140 1408 LINE",
"1140 1506 LINE",
"1037 1506 LINE"
);
},
{
closed = 1;
nodes = (
"103 1603 LINE",
"207 1603 LINE",
"207 1699 LINE",
"103 1699 LINE"
);
},
{
closed = 1;
nodes = (
"310 1603 LINE",
"414 1603 LINE",
"414 1699 LINE",
"310 1699 LINE"
);
},
{
closed = 1;
nodes = (
"517 1603 LINE",
"621 1603 LINE",
"621 1699 LINE",
"517 1699 LINE"
);
},
{
closed = 1;
nodes = (
"725 1603 LINE",
"829 1603 LINE",
"829 1699 LINE",
"725 1699 LINE"
);
},
{
closed = 1;
nodes = (
"933 1603 LINE",
"1037 1603 LINE",
"1037 1699 LINE",
"933 1699 LINE"
);
},
{
closed = 1;
nodes = (
"1140 1603 LINE",
"1244 1603 LINE",
"1244 1699 LINE",
"1140 1699 LINE"
);
},
{
closed = 1;
nodes = (
"1347 1216 LINE",
"1451 1216 LINE",
"1451 1314 LINE",
"1347 1314 LINE"
);
},
{
closed = 1;
nodes = (
"1244 1023 LINE",
"1347 1023 LINE",
"1347 1119 LINE",
"1244 1119 LINE"
);
},
{
closed = 1;
nodes = (
"1347 831 LINE",
"1451 831 LINE",
"1451 927 LINE",
"1347 927 LINE"
);
},
{
closed = 1;
nodes = (
"1244 636 LINE",
"1347 636 LINE",
"1347 732 LINE",
"1244 732 LINE"
);
},
{
closed = 1;
nodes = (
"1347 444 LINE",
"1451 444 LINE",
"1451 540 LINE",
"1347 540 LINE"
);
},
{
closed = 1;
nodes = (
"1244 249 LINE",
"1347 249 LINE",
"1347 345 LINE",
"1244 345 LINE"
);
},
{
closed = 1;
nodes = (
"1347 56 LINE",
"1451 56 LINE",
"1451 153 LINE",
"1347 153 LINE"
);
},
{
closed = 1;
nodes = (
"1244 -136 LINE",
"1347 -136 LINE",
"1347 -42 LINE",
"1244 -42 LINE"
);
},
{
closed = 1;
nodes = (
"1347 -331 LINE",
"1451 -331 LINE",
"1451 -234 LINE",
"1347 -234 LINE"
);
},
{
closed = 1;
nodes = (
"1244 -523 LINE",
"1347 -523 LINE",
"1347 -427 LINE",
"1244 -427 LINE"
);
},
{
closed = 1;
nodes = (
"1244 1408 LINE",
"1347 1408 LINE",
"1347 1506 LINE",
"1244 1506 LINE"
);
},
{
closed = 1;
nodes = (
"1347 1603 LINE",
"1451 1603 LINE",
"1451 1699 LINE",
"1347 1699 LINE"
);
}
);
width = 1451;
}
);
note = shade;
unicode = 2592;
},
{
glyphname = dkshade;
lastChange = "2019-12-20 14:30:44 +0000";
layers = (
{
layerId = "9CB754D2-AD8E-43A2-9483-C1400C56EABF";
paths = (
{
closed = 1;
nodes = (
"1493 -523 LINE",
"1386 -523 LINE",
"1386 -427 LINE",
"1493 -427 LINE",
"1493 -136 LINE",
"1386 -136 LINE",
"1386 -42 LINE",
"1493 -42 LINE",
"1493 249 LINE",
"1386 249 LINE",
"1386 345 LINE",
"1493 345 LINE",
"1493 636 LINE",
"1386 636 LINE",
"1386 732 LINE",
"1493 732 LINE",
"1493 1023 LINE",
"1386 1023 LINE",
"1386 1119 LINE",
"1493 1119 LINE",
"1493 1408 LINE",
"1386 1408 LINE",
"1386 1506 LINE",
"1493 1506 LINE",
"1493 1699 LINE",
"1386 1699 LINE",
"1386 1603 LINE",
"1280 1603 LINE",
"1280 1699 LINE",
"1173 1699 LINE",
"1173 1603 LINE",
"1067 1603 LINE",
"1067 1699 LINE",
"960 1699 LINE",
"960 1603 LINE",
"853 1603 LINE",
"853 1699 LINE",
"746 1699 LINE",
"746 1603 LINE",
"639 1603 LINE",
"639 1699 LINE",
"532 1699 LINE",
"532 1603 LINE",
"426 1603 LINE",
"426 1699 LINE",
"319 1699 LINE",
"319 1603 LINE",
"213 1603 LINE",
"213 1699 LINE",
"106 1699 LINE",
"106 1603 LINE",
"0 1603 LINE",
"0 1314 LINE",
"106 1314 LINE",
"106 1216 LINE",
"0 1216 LINE",
"0 927 LINE",
"106 927 LINE",
"106 829 LINE",
"0 829 LINE",
"0 540 LINE",
"106 540 LINE",
"106 444 LINE",
"0 444 LINE",
"0 153 LINE",
"106 153 LINE",
"106 56 LINE",
"0 56 LINE",
"0 -234 LINE",
"106 -234 LINE",
"106 -331 LINE",
"0 -331 LINE",
"0 -621 LINE",
"1493 -621 LINE"
);
},
{
closed = 1;
nodes = (
"213 1119 LINE",
"213 1023 LINE",
"106 1023 LINE",
"106 1119 LINE"
);
},
{
closed = 1;
nodes = (
"426 1119 LINE",
"426 1023 LINE",
"319 1023 LINE",
"319 1119 LINE"
);
},
{
closed = 1;
nodes = (
"639 1119 LINE",
"639 1023 LINE",
"532 1023 LINE",
"532 1119 LINE"
);
},
{
closed = 1;
nodes = (
"853 1119 LINE",
"853 1023 LINE",
"746 1023 LINE",
"746 1119 LINE"
);
},
{
closed = 1;
nodes = (
"960 829 LINE",
"853 829 LINE",
"853 927 LINE",
"960 927 LINE"
);
},
{
closed = 1;
nodes = (
"746 829 LINE",
"639 829 LINE",
"639 927 LINE",
"746 927 LINE"
);
},
{
closed = 1;
nodes = (
"532 829 LINE",
"426 829 LINE",
"426 927 LINE",
"532 927 LINE"
);
},
{
closed = 1;
nodes = (
"319 829 LINE",
"213 829 LINE",
"213 927 LINE",
"319 927 LINE"
);
},
{
closed = 1;
nodes = (
"213 732 LINE",
"213 636 LINE",
"106 636 LINE",
"106 732 LINE"
);
},
{
closed = 1;
nodes = (
"426 732 LINE",
"426 636 LINE",
"319 636 LINE",
"319 732 LINE"
);
},
{
closed = 1;
nodes = (
"639 732 LINE",
"639 636 LINE",
"532 636 LINE",
"532 732 LINE"
);
},
{
closed = 1;
nodes = (
"853 732 LINE",
"853 636 LINE",
"746 636 LINE",
"746 732 LINE"
);
},
{
closed = 1;
nodes = (
"319 444 LINE",
"213 444 LINE",
"213 540 LINE",
"319 540 LINE"
);
},
{
closed = 1;
nodes = (
"532 540 LINE",
"532 444 LINE",
"426 444 LINE",
"426 540 LINE"
);
},
{
closed = 1;
nodes = (
"746 540 LINE",
"746 444 LINE",
"639 444 LINE",
"639 540 LINE"
);
},
{
closed = 1;
nodes = (
"960 540 LINE",
"960 444 LINE",
"853 444 LINE",
"853 540 LINE"
);
},
{
closed = 1;
nodes = (
"213 345 LINE",
"213 249 LINE",
"106 249 LINE",
"106 345 LINE"
);
},
{
closed = 1;
nodes = (
"639 345 LINE",
"639 249 LINE",
"532 249 LINE",
"532 345 LINE"
);
},
{
closed = 1;
nodes = (
"319 249 LINE",
"319 345 LINE",
"426 345 LINE",
"426 249 LINE"
);
},
{
closed = 1;
nodes = (
"853 345 LINE",
"853 249 LINE",
"746 249 LINE",
"746 345 LINE"
);
},
{
closed = 1;
nodes = (
"853 56 LINE",
"853 153 LINE",
"960 153 LINE",
"960 56 LINE"
);
},
{
closed = 1;
nodes = (
"639 56 LINE",
"639 153 LINE",
"746 153 LINE",
"746 56 LINE"
);
},
{
closed = 1;
nodes = (
"426 56 LINE",
"426 153 LINE",
"532 153 LINE",
"532 56 LINE"
);
},
{
closed = 1;
nodes = (
"213 56 LINE",
"213 153 LINE",
"319 153 LINE",
"319 56 LINE"
);
},
{
closed = 1;
nodes = (
"213 -42 LINE",
"213 -136 LINE",
"106 -136 LINE",
"106 -42 LINE"
);
},
{
closed = 1;
nodes = (
"426 -42 LINE",
"426 -136 LINE",
"319 -136 LINE",
"319 -42 LINE"
);
},
{
closed = 1;
nodes = (
"639 -42 LINE",
"639 -136 LINE",
"532 -136 LINE",
"532 -42 LINE"
);
},
{
closed = 1;
nodes = (
"853 -42 LINE",
"853 -136 LINE",
"746 -136 LINE",
"746 -42 LINE"
);
},
{
closed = 1;
nodes = (
"853 -331 LINE",
"853 -234 LINE",
"960 -234 LINE",
"960 -331 LINE"
);
},
{
closed = 1;
nodes = (
"639 -331 LINE",
"639 -234 LINE",
"746 -234 LINE",
"746 -331 LINE"
);
},
{
closed = 1;
nodes = (
"426 -331 LINE",
"426 -234 LINE",
"532 -234 LINE",
"532 -331 LINE"
);
},
{
closed = 1;
nodes = (
"213 -331 LINE",
"213 -234 LINE",
"319 -234 LINE",
"319 -331 LINE"
);
},
{
closed = 1;
nodes = (
"213 -427 LINE",
"213 -523 LINE",
"106 -523 LINE",
"106 -427 LINE"
);
},
{
closed = 1;
nodes = (
"426 -427 LINE",
"426 -523 LINE",
"319 -523 LINE",
"319 -427 LINE"
);
},
{
closed = 1;
nodes = (
"639 -427 LINE",
"639 -523 LINE",
"532 -523 LINE",
"532 -427 LINE"
);
},
{
closed = 1;
nodes = (
"853 -427 LINE",
"853 -523 LINE",
"746 -523 LINE",
"746 -427 LINE"
);
},
{
closed = 1;
nodes = (
"960 1216 LINE",
"853 1216 LINE",
"853 1314 LINE",
"960 1314 LINE"
);
},
{
closed = 1;
nodes = (
"746 1216 LINE",
"639 1216 LINE",
"639 1314 LINE",
"746 1314 LINE"
);
},
{
closed = 1;
nodes = (
"532 1216 LINE",
"426 1216 LINE",
"426 1314 LINE",
"532 1314 LINE"
);
},
{
closed = 1;
nodes = (
"319 1216 LINE",
"213 1216 LINE",
"213 1314 LINE",
"319 1314 LINE"
);
},
{
closed = 1;
nodes = (
"853 1408 LINE",
"746 1408 LINE",
"746 1506 LINE",
"853 1506 LINE"
);
},
{
closed = 1;
nodes = (
"639 1408 LINE",
"532 1408 LINE",
"532 1506 LINE",
"639 1506 LINE"
);
},
{
closed = 1;
nodes = (
"426 1408 LINE",
"319 1408 LINE",
"319 1506 LINE",
"426 1506 LINE"
);
},
{
closed = 1;
nodes = (
"213 1408 LINE",
"106 1408 LINE",
"106 1506 LINE",
"213 1506 LINE"
);
},
{
closed = 1;
nodes = (
"1067 1119 LINE",
"1067 1023 LINE",
"960 1023 LINE",
"960 1119 LINE"
);
},
{
closed = 1;
nodes = (
"1280 1119 LINE",
"1280 1023 LINE",
"1173 1023 LINE",
"1173 1119 LINE"
);
},
{
closed = 1;
nodes = (
"1386 829 LINE",
"1280 829 LINE",
"1280 927 LINE",
"1386 927 LINE"
);
},
{
closed = 1;
nodes = (
"1173 829 LINE",
"1067 829 LINE",
"1067 927 LINE",
"1173 927 LINE"
);
},
{
closed = 1;
nodes = (
"1067 732 LINE",
"1067 636 LINE",
"960 636 LINE",
"960 732 LINE"
);
},
{
closed = 1;
nodes = (
"1280 732 LINE",
"1280 636 LINE",
"1173 636 LINE",
"1173 732 LINE"
);
},
{
closed = 1;
nodes = (
"1173 444 LINE",
"1067 444 LINE",
"1067 540 LINE",
"1173 540 LINE"
);
},
{
closed = 1;
nodes = (
"1386 540 LINE",
"1386 444 LINE",
"1280 444 LINE",
"1280 540 LINE"
);
},
{
closed = 1;
nodes = (
"1067 345 LINE",
"1067 249 LINE",
"960 249 LINE",
"960 345 LINE"
);
},
{
closed = 1;
nodes = (
"1173 249 LINE",
"1173 345 LINE",
"1280 345 LINE",
"1280 249 LINE"
);
},
{
closed = 1;
nodes = (
"1280 56 LINE",
"1280 153 LINE",
"1386 153 LINE",
"1386 56 LINE"
);
},
{
closed = 1;
nodes = (
"1067 56 LINE",
"1067 153 LINE",
"1173 153 LINE",
"1173 56 LINE"
);
},
{
closed = 1;
nodes = (
"1067 -42 LINE",
"1067 -136 LINE",
"960 -136 LINE",
"960 -42 LINE"
);
},
{
closed = 1;
nodes = (
"1280 -42 LINE",
"1280 -136 LINE",
"1173 -136 LINE",
"1173 -42 LINE"
);
},
{
closed = 1;
nodes = (
"1280 -331 LINE",
"1280 -234 LINE",
"1386 -234 LINE",
"1386 -331 LINE"
);
},
{
closed = 1;
nodes = (
"1067 -331 LINE",
"1067 -234 LINE",
"1173 -234 LINE",
"1173 -331 LINE"
);
},
{
closed = 1;
nodes = (
"1067 -427 LINE",
"1067 -523 LINE",
"960 -523 LINE",
"960 -427 LINE"
);
},
{
closed = 1;
nodes = (
"1280 -427 LINE",
"1280 -523 LINE",
"1173 -523 LINE",
"1173 -427 LINE"
);
},
{
closed = 1;
nodes = (
"1386 1216 LINE",
"1280 1216 LINE",
"1280 1314 LINE",
"1386 1314 LINE"
);
},
{
closed = 1;
nodes = (
"1173 1216 LINE",
"1067 1216 LINE",
"1067 1314 LINE",
"1173 1314 LINE"
);
},
{
closed = 1;
nodes = (
"1280 1408 LINE",
"1173 1408 LINE",
"1173 1506 LINE",
"1280 1506 LINE"
);
},
{
closed = 1;
nodes = (
"1067 1408 LINE",
"960 1408 LINE",
"960 1506 LINE",
"1067 1506 LINE"
);
}
);
width = 1493;
}
);
note = dkshade;
unicode = 2593;
},
{
glyphname = filledbox;
lastChange = "2019-12-20 14:30:44 +0000";
layers = (
{
layerId = "9CB754D2-AD8E-43A2-9483-C1400C56EABF";
paths = (
{
closed = 1;
nodes = (
"123 117 LINE",
"1114 117 LINE",
"1114 1108 LINE",
"123 1108 LINE"
);
}
);
width = 1237;
}
);
note = filledbox;
unicode = 25A0;
},
{
glyphname = filledrect;
lastChange = "2019-12-20 14:30:44 +0000";
layers = (
{
layerId = "9CB754D2-AD8E-43A2-9483-C1400C56EABF";
paths = (
{
closed = 1;
nodes = (
"0 0 LINE",
"2048 0 LINE",
"2048 616 LINE",
"0 616 LINE"
);
}
);
width = 2048;
}
);
note = filledrect;
unicode = 25AC;
},
{
glyphname = triagup;
lastChange = "2019-12-20 14:30:44 +0000";
layers = (
{
layerId = "9CB754D2-AD8E-43A2-9483-C1400C56EABF";
paths = (
{
closed = 1;
nodes = (
"1612 0 LINE",
"1014 1198 LINE",
"414 0 LINE"
);
}
);
width = 2027;
}
);
note = triagup;
unicode = 25B2;
},
{
glyphname = triagrt;
lastChange = "2019-12-20 14:30:44 +0000";
layers = (
{
layerId = "9CB754D2-AD8E-43A2-9483-C1400C56EABF";
paths = (
{
closed = 1;
nodes = (
"401 -27 LINE",
"1626 586 LINE",
"401 1196 LINE"
);
}
);
width = 2027;
}
);
note = triagrt;
unicode = 25BA;
},
{
glyphname = triagdn;
lastChange = "2019-12-20 14:30:44 +0000";
layers = (
{
layerId = "9CB754D2-AD8E-43A2-9483-C1400C56EABF";
paths = (
{
closed = 1;
nodes = (
"414 1171 LINE",
"1014 -27 LINE",
"1612 1171 LINE"
);
}
);
width = 2027;
}
);
note = triagdn;
unicode = 25BC;
},
{
glyphname = triaglf;
lastChange = "2019-12-20 14:30:44 +0000";
layers = (
{
layerId = "9CB754D2-AD8E-43A2-9483-C1400C56EABF";
paths = (
{
closed = 1;
nodes = (
"401 586 LINE",
"1626 -27 LINE",
"1626 1196 LINE"
);
}
);
width = 2027;
}
);
note = triaglf;
unicode = 25C4;
},
{
glyphname = circle;
lastChange = "2019-12-20 14:30:44 +0000";
layers = (
{
layerId = "9CB754D2-AD8E-43A2-9483-C1400C56EABF";
paths = (
{
closed = 1;
nodes = (
"167 490 OFFCURVE",
"287 282 OFFCURVE",
"495 162 OFFCURVE",
"617 162 QCURVE SMOOTH",
"740 162 OFFCURVE",
"949 282 OFFCURVE",
"1070 491 OFFCURVE",
"1070 612 QCURVE SMOOTH",
"1070 733 OFFCURVE",
"949 944 OFFCURVE",
"739 1065 OFFCURVE",
"617 1065 QCURVE SMOOTH",
"496 1065 OFFCURVE",
"287 944 OFFCURVE",
"167 734 OFFCURVE",
"167 612 QCURVE SMOOTH"
);
},
{
closed = 1;
nodes = (
"253 712 OFFCURVE",
"351 881 OFFCURVE",
"520 979 OFFCURVE",
"617 979 QCURVE SMOOTH",
"715 979 OFFCURVE",
"886 881 OFFCURVE",
"984 710 OFFCURVE",
"984 612 QCURVE SMOOTH",
"984 514 OFFCURVE",
"884 344 OFFCURVE",
"715 248 OFFCURVE",
"617 248 QCURVE SMOOTH",
"518 248 OFFCURVE",
"351 345 OFFCURVE",
"253 514 OFFCURVE",
"253 612 QCURVE SMOOTH"
);
}
);
width = 1237;
}
);
note = circle;
unicode = 25CB;
},
{
glyphname = invbullet;
lastChange = "2019-12-20 14:30:44 +0000";
layers = (
{
layerId = "9CB754D2-AD8E-43A2-9483-C1400C56EABF";
paths = (
{
closed = 1;
nodes = (
"1196 0 LINE",
"1196 1155 LINE",
"41 1155 LINE",
"41 0 LINE"
);
},
{
closed = 1;
nodes = (
"176 695 OFFCURVE",
"293 899 OFFCURVE",
"498 1018 OFFCURVE",
"616 1018 QCURVE SMOOTH",
"735 1018 OFFCURVE",
"939 900 OFFCURVE",
"1057 695 OFFCURVE",
"1057 577 QCURVE SMOOTH",
"1057 460 OFFCURVE",
"939 255 OFFCURVE",
"734 137 OFFCURVE",
"616 137 QCURVE SMOOTH",
"497 137 OFFCURVE",
"294 255 OFFCURVE",
"176 459 OFFCURVE",
"176 577 QCURVE SMOOTH"
);
}
);
width = 1237;
}
);
note = invbullet;
unicode = 25D8;
},
{
glyphname = invcircle;
lastChange = "2019-12-20 14:30:44 +0000";
layers = (
{
layerId = "9CB754D2-AD8E-43A2-9483-C1400C56EABF";
paths = (
{
closed = 1;
nodes = (
"1196 0 LINE",
"1196 1155 LINE",
"41 1155 LINE",
"41 0 LINE"
);
},
{
closed = 1;
nodes = (
"253 480 OFFCURVE",
"351 310 OFFCURVE",
"521 212 OFFCURVE",
"618 212 QCURVE SMOOTH",
"715 212 OFFCURVE",
"885 310 OFFCURVE",
"983 480 OFFCURVE",
"983 577 QCURVE SMOOTH",
"983 674 OFFCURVE",
"885 844 OFFCURVE",
"715 942 OFFCURVE",
"618 942 QCURVE SMOOTH",
"521 942 OFFCURVE",
"351 844 OFFCURVE",
"253 674 OFFCURVE",
"253 577 QCURVE SMOOTH"
);
},
{
closed = 1;
nodes = (
"176 695 OFFCURVE",
"293 899 OFFCURVE",
"498 1018 OFFCURVE",
"616 1018 QCURVE SMOOTH",
"735 1018 OFFCURVE",
"939 900 OFFCURVE",
"1057 695 OFFCURVE",
"1057 577 QCURVE SMOOTH",
"1057 460 OFFCURVE",
"939 255 OFFCURVE",
"734 137 OFFCURVE",
"616 137 QCURVE SMOOTH",
"497 137 OFFCURVE",
"294 255 OFFCURVE",
"176 459 OFFCURVE",
"176 577 QCURVE SMOOTH"
);
}
);
width = 1237;
}
);
note = invcircle;
unicode = 25D9;
},
{
glyphname = smileface;
lastChange = "2019-12-20 14:30:44 +0000";
layers = (
{
layerId = "9CB754D2-AD8E-43A2-9483-C1400C56EABF";
paths = (
{
closed = 1;
nodes = (
"1657 833 OFFCURVE",
"1303 1196 OFFCURVE",
"1045 1196 QCURVE SMOOTH",
"787 1196 OFFCURVE",
"433 834 OFFCURVE",
"433 584 QCURVE SMOOTH",
"434 331 OFFCURVE",
"792 -27 OFFCURVE",
"1045 -27 QCURVE SMOOTH",
"1297 -26 OFFCURVE",
"1657 330 OFFCURVE",
"1657 584 QCURVE SMOOTH"
);
},
{
closed = 1;
nodes = (
"1566 369 OFFCURVE",
"1262 61 OFFCURVE",
"1045 61 QCURVE SMOOTH",
"829 62 OFFCURVE",
"523 368 OFFCURVE",
"523 584 QCURVE SMOOTH",
"523 801 OFFCURVE",
"676 954 QCURVE SMOOTH",
"827 1108 OFFCURVE",
"1045 1108 QCURVE SMOOTH",
"1261 1107 OFFCURVE",
"1567 801 OFFCURVE",
"1567 584 QCURVE SMOOTH"
);
},
{
closed = 1;
nodes = (
"889 743 OFFCURVE",
"843 788 OFFCURVE",
"811 788 QCURVE SMOOTH",
"779 788 OFFCURVE",
"734 743 OFFCURVE",
"734 711 QCURVE SMOOTH",
"734 679 OFFCURVE",
"779 633 OFFCURVE",
"811 633 QCURVE SMOOTH",
"843 633 OFFCURVE",
"889 679 OFFCURVE",
"889 711 QCURVE SMOOTH"
);
},
{
closed = 1;
nodes = (
"1356 743 OFFCURVE",
"1312 788 OFFCURVE",
"1280 788 QCURVE SMOOTH",
"1248 788 OFFCURVE",
"1201 743 OFFCURVE",
"1201 711 QCURVE SMOOTH",
"1201 679 OFFCURVE",
"1248 633 OFFCURVE",
"1280 633 QCURVE SMOOTH",
"1312 633 OFFCURVE",
"1356 679 OFFCURVE",
"1356 711 QCURVE SMOOTH"
);
},
{
closed = 1;
nodes = (
"762 387 LINE",
"860 201 OFFCURVE",
"1045 201 QCURVE SMOOTH",
"1230 201 OFFCURVE",
"1328 387 QCURVE",
"1266 422 LINE",
"1190 285 OFFCURVE",
"1045 285 QCURVE SMOOTH",
"898 285 OFFCURVE",
"822 422 QCURVE"
);
}
);
width = 2091;
}
);
note = smileface;
unicode = 263A;
},
{
glyphname = invsmileface;
lastChange = "2019-12-20 14:30:44 +0000";
layers = (
{
layerId = "9CB754D2-AD8E-43A2-9483-C1400C56EABF";
paths = (
{
closed = 1;
nodes = (
"1689 833 OFFCURVE",
"1335 1196 OFFCURVE",
"1077 1196 QCURVE SMOOTH",
"819 1196 OFFCURVE",
"465 834 OFFCURVE",
"465 584 QCURVE SMOOTH",
"466 331 OFFCURVE",
"824 -27 OFFCURVE",
"1077 -27 QCURVE SMOOTH",
"1329 -26 OFFCURVE",
"1689 330 OFFCURVE",
"1689 584 QCURVE SMOOTH"
);
},
{
closed = 1;
nodes = (
"921 679 OFFCURVE",
"875 633 OFFCURVE",
"843 633 QCURVE SMOOTH",
"811 633 OFFCURVE",
"766 679 OFFCURVE",
"766 711 QCURVE SMOOTH",
"766 743 OFFCURVE",
"811 788 OFFCURVE",
"843 788 QCURVE SMOOTH",
"875 788 OFFCURVE",
"921 743 OFFCURVE",
"921 711 QCURVE SMOOTH"
);
},
{
closed = 1;
nodes = (
"1388 679 OFFCURVE",
"1344 633 OFFCURVE",
"1312 633 QCURVE SMOOTH",
"1280 633 OFFCURVE",
"1233 679 OFFCURVE",
"1233 711 QCURVE SMOOTH",
"1233 743 OFFCURVE",
"1280 788 OFFCURVE",
"1312 788 QCURVE SMOOTH",
"1344 788 OFFCURVE",
"1388 743 OFFCURVE",
"1388 711 QCURVE SMOOTH"
);
},
{
closed = 1;
nodes = (
"854 422 LINE",
"930 285 OFFCURVE",
"1077 285 QCURVE SMOOTH",
"1222 285 OFFCURVE",
"1298 422 QCURVE",
"1360 387 LINE",
"1262 201 OFFCURVE",
"1077 201 QCURVE SMOOTH",
"892 201 OFFCURVE",
"794 387 QCURVE"
);
}
);
width = 2155;
}
);
note = invsmileface;
unicode = 263B;
},
